<svg width="236" height="76" viewBox="0 0 236 76" fill="none" xmlns="http://www.w3.org/2000/svg">
<g clip-path="url(#clip0_6_1983)">
<rect width="236" height="76" rx="38" fill="#F0F2E6"/>
<g filter="url(#filter0_f_6_1983)">
<path d="M271.242 -210C-61.3524 -210 -316 48.8216 -316 368.159V1297H-36.198V380.883C-36.198 204.301 88.0207 63.4075 270.932 63.4075C453.843 63.4075 576.198 204.301 576.198 383.055V1297H856V368.159C856 48.8216 601.352 -210 271.242 -210Z" fill="url(#paint0_linear_6_1983)"/>
</g>
<path d="M31.2 35.252H36.8L37.184 34.676C37.232 34.612 37.28 34.532 37.36 34.532C37.44 34.532 37.52 34.564 37.584 34.628L38.496 35.364C38.592 35.444 38.656 35.508 38.656 35.62C38.656 35.748 38.592 35.844 38.096 36.164V43.108C38.096 43.444 38.16 44.948 38.16 45.268C38.16 45.412 38.16 45.748 37.36 45.748C36.96 45.748 36.96 45.62 36.96 45.284V44.692H27.088V45.22C27.088 45.444 27.088 45.748 26.32 45.748C25.936 45.748 25.888 45.588 25.888 45.396C25.888 45.3 25.952 43.444 25.952 43.204V36.532C25.952 35.476 25.936 35.124 25.888 34.596L27.296 35.252H30.528C30.864 34.5 31.264 33.412 31.456 32.676H26.128C25.808 32.676 25.52 32.692 24.88 32.756L24.608 31.972C25.056 32.004 25.568 32.036 26.208 32.036H37.056L37.664 31.156C37.712 31.092 37.76 31.012 37.872 31.012C37.936 31.012 38 31.044 38.096 31.124L39.248 32.164C39.328 32.228 39.392 32.34 39.392 32.452C39.392 32.676 39.152 32.676 39.04 32.676H32.944C32.4 33.7 31.744 34.628 31.2 35.252ZM33.392 35.892H30.592V38.148H33.392V35.892ZM36.96 35.892H34.48V44.052H36.96V35.892ZM29.52 35.892H27.088V44.052H29.52V35.892ZM33.392 38.788H30.592V41.076H33.392V38.788ZM33.392 41.716H30.592V44.052H33.392V41.716ZM53.424 32.212L54.496 33.028C54.624 33.124 54.784 33.284 54.784 33.444C54.784 33.588 54.64 33.652 54.496 33.652C54.368 33.652 54.176 33.604 54.08 33.588C53.712 33.876 52.72 34.676 51.712 35.172C52.112 35.732 53.136 37.044 55.344 37.508V37.764C54.976 37.908 54.528 38.1 54.224 38.74C53.344 38.228 51.328 36.98 50.624 33.876C49.936 37.428 47.056 38.308 46.096 38.596L46.016 38.372C47.728 37.3 49.712 36.052 49.712 31.828C49.712 31.428 49.696 31.188 49.68 30.996L50.816 31.124C51.424 31.188 51.424 31.364 51.424 31.444C51.424 31.636 51.36 31.652 50.8 31.828C50.8 32.42 50.784 32.628 50.752 32.964C50.88 33.556 51.088 34.164 51.52 34.868C53.008 33.3 53.376 32.324 53.424 32.212ZM45.744 45.668L45.664 45.444C49.696 43.54 49.728 39.732 49.728 38.468C49.728 38.196 49.728 38.068 49.696 37.54L50.816 37.668C51.36 37.732 51.44 37.876 51.44 38.004C51.44 38.1 51.44 38.228 50.8 38.42C50.8 38.628 50.736 39.508 50.736 39.684C50.736 40.02 51.168 41.076 51.424 41.524C52.208 40.692 52.992 39.716 53.264 38.932L54.32 39.812C54.544 39.988 54.608 40.084 54.608 40.212C54.608 40.404 54.464 40.436 54.352 40.436C54.208 40.436 54 40.388 53.92 40.372C53.536 40.692 52.624 41.348 51.616 41.86C52.256 42.852 53.488 43.988 55.408 44.372V44.628C55.04 44.772 54.528 44.98 54.256 45.668C52.432 44.692 51.072 43.044 50.592 40.628C49.824 44.26 47.248 45.268 45.744 45.668ZM42.704 40.276H44.432L44.768 39.764C44.816 39.7 44.88 39.636 44.96 39.636C45.04 39.636 45.12 39.7 45.168 39.748L45.952 40.42C46.016 40.468 46.08 40.532 46.08 40.66C46.08 40.804 46.032 40.836 45.584 41.14V42.724C45.584 42.868 45.648 44.548 45.648 44.82C45.648 45.076 45.52 45.332 44.928 45.332C44.576 45.332 44.576 45.204 44.576 44.996V44.708H42.576V45.3C42.576 45.588 42.576 45.812 41.888 45.812C41.488 45.812 41.472 45.62 41.472 45.428C41.472 45.332 41.536 43.54 41.536 43.268V41.46C41.536 41.076 41.504 40.164 41.472 39.604L42.704 40.276ZM44.576 40.916H42.576V44.068H44.576V40.916ZM42.96 32.052H44.016L44.464 31.444C44.528 31.348 44.576 31.3 44.656 31.3C44.72 31.3 44.768 31.316 44.88 31.412L45.712 32.18C45.776 32.244 45.856 32.356 45.856 32.468C45.856 32.692 45.616 32.692 45.504 32.692H42.864C42.544 32.692 42.256 32.692 41.616 32.756L41.344 31.988C41.808 32.02 42.304 32.052 42.96 32.052ZM42.224 34.084H44.576L45.024 33.444C45.104 33.316 45.168 33.3 45.232 33.3C45.28 33.3 45.344 33.316 45.456 33.428L46.32 34.196C46.368 34.244 46.464 34.372 46.464 34.484C46.464 34.724 46.224 34.724 46.128 34.724H42.128C41.696 34.724 41.488 34.724 40.88 34.788L40.608 34.02C41.072 34.052 41.584 34.084 42.224 34.084ZM42.944 36.1H44.032L44.464 35.492C44.528 35.396 44.576 35.332 44.672 35.332C44.72 35.332 44.768 35.348 44.896 35.46L45.76 36.244C45.808 36.276 45.904 36.404 45.904 36.516C45.904 36.74 45.68 36.756 45.552 36.74H42.864C42.544 36.74 42.256 36.756 41.6 36.82L41.344 36.036C41.808 36.068 42.304 36.1 42.944 36.1ZM42.944 38.148H44.016L44.448 37.524C44.496 37.46 44.56 37.38 44.656 37.38C44.72 37.38 44.768 37.396 44.88 37.492L45.744 38.276C45.808 38.34 45.888 38.452 45.888 38.548C45.888 38.788 45.648 38.788 45.536 38.788H42.864C42.544 38.788 42.24 38.788 41.6 38.852L41.344 38.084C41.808 38.116 42.304 38.148 42.944 38.148ZM47.728 32.292L47.984 32.26C48.032 32.548 48.112 32.964 48.112 33.54C48.112 35.044 47.6 35.604 47.072 35.604C46.72 35.604 46.56 35.348 46.56 35.14C46.56 34.932 46.64 34.788 46.864 34.452C47.552 33.38 47.664 32.66 47.728 32.292ZM47.712 39.092L47.968 39.076C48.016 39.348 48.112 39.796 48.112 40.404C48.112 41.492 47.792 42.436 47.072 42.436C46.688 42.436 46.56 42.148 46.56 41.972C46.56 41.796 46.704 41.556 46.976 41.092C47.52 40.18 47.648 39.54 47.712 39.092ZM63.936 44.596L63.872 44.356C67.376 43.076 69.184 40.852 69.184 38.164C69.184 35.364 67.088 33.764 64.592 33.764C64.304 33.764 64.016 33.78 63.808 33.796C64.064 34.052 64.48 34.436 64.48 34.964C64.48 35.62 63.136 38.772 62.672 39.828C61.776 41.86 61.056 43.284 59.968 43.284C58.72 43.284 57.472 41.636 57.472 39.572C57.472 36.42 60.224 33.076 64.624 33.076C67.744 33.076 70.416 34.916 70.416 38.308C70.416 41.684 67.728 44.1 63.936 44.596ZM63.12 33.908C59.872 34.692 58.496 37.492 58.496 39.524C58.496 41.028 59.248 42.196 59.872 42.196C60.512 42.196 61.12 40.836 61.76 39.428C62.272 38.276 63.392 35.636 63.392 34.724C63.392 34.34 63.232 34.084 63.12 33.908ZM83.008 32.068L83.456 31.54C83.536 31.444 83.616 31.412 83.68 31.412C83.776 31.412 83.856 31.476 83.936 31.556L85.008 32.532C85.04 32.564 85.152 32.692 85.152 32.82C85.152 33.044 85.088 33.044 84.048 33.188C82.912 34.036 82.144 34.548 80.848 35.268C81.152 35.524 81.424 35.844 81.424 36.26C81.424 36.34 81.424 36.756 80.96 36.836H85.056L85.552 36.244C85.584 36.212 85.664 36.132 85.744 36.132C85.856 36.132 85.904 36.18 85.984 36.26L87.072 37.268C87.136 37.332 87.216 37.444 87.216 37.556C87.216 37.828 87.12 37.844 86.176 37.956C85.136 39.076 84.432 39.7 83.04 40.772L82.848 40.612C83.408 39.908 84.32 38.724 85.056 37.476H80.592V42.276C80.592 42.596 80.624 44.02 80.624 44.308C80.624 45.14 80.512 45.668 78.8 45.844C78.784 45.22 78.768 45.012 76.624 44.452V44.196L78.944 44.26C79.344 44.276 79.424 44.212 79.424 43.876V37.476H74.096C73.488 37.476 73.04 37.524 72.88 37.54L72.608 36.772C73.056 36.804 73.568 36.836 74.208 36.836H80.8C80.544 36.804 80.416 36.676 79.984 36.228C79.232 35.444 78.688 34.9 77.072 34.02L77.168 33.78C78.4 34.052 79.68 34.5 80.432 34.964C81.024 34.5 82.08 33.588 82.848 32.708H75.84C75.52 32.708 75.232 32.708 74.64 32.772L74.352 32.004C74.816 32.036 75.312 32.068 75.968 32.068H83.008ZM93.616 33.124L94.672 33.764C95.04 33.988 95.04 34.068 95.04 34.148C95.04 34.372 94.864 34.372 94.368 34.356C93.728 35.252 92.608 36.788 91.072 38.084C91.248 38.068 93.44 37.94 93.872 37.908C93.648 37.444 93.488 37.156 93.152 36.692L93.328 36.5C93.808 36.804 95.36 37.78 95.36 38.932C95.36 39.284 95.168 39.716 94.816 39.716C94.512 39.716 94.464 39.54 94.32 39.028C94.24 38.788 94.112 38.452 94.048 38.292C93.808 38.356 93.152 38.5 92.704 38.596V43.316C92.704 43.604 92.736 44.9 92.736 45.172C92.736 45.444 92.736 45.796 91.984 45.796C91.632 45.796 91.6 45.636 91.6 45.348C91.6 45.028 91.632 43.604 91.632 43.316V38.82C91.312 38.884 89.904 39.172 89.616 39.236C89.568 39.476 89.536 39.684 89.36 39.684C89.2 39.684 89.136 39.54 89.056 39.316L88.64 38.068C89.424 38.132 89.632 38.116 90.464 38.1C92.992 34.9 93.536 33.348 93.616 33.124ZM101.072 34.452L101.424 33.956C101.472 33.892 101.536 33.796 101.648 33.796C101.728 33.796 101.776 33.844 101.904 33.94L102.816 34.66C102.88 34.708 102.992 34.804 102.992 34.948C102.992 35.06 102.944 35.156 102.4 35.428C102.352 42.308 102.096 43.86 101.568 44.708C101.216 45.284 100.56 45.716 98.896 45.716C98.896 44.932 98.72 44.868 97.088 44.308L97.12 44.052C99.312 44.26 99.408 44.26 99.776 44.26C100.208 44.26 100.704 44.164 100.896 43.108C101.184 41.46 101.2 40.1 101.248 35.092H96.928C96.56 35.732 96.112 36.436 95.072 37.428L94.864 37.284C96.112 35.156 97.008 32.852 97.264 31.012L98.496 31.396C98.736 31.476 98.992 31.572 98.992 31.764C98.992 31.988 98.784 32.004 98.368 32.068C97.888 33.268 97.648 33.764 97.28 34.452H101.072ZM88.944 33.732L89.072 33.508C89.904 33.796 90.384 34.1 90.48 34.164C91.472 32.196 91.584 31.988 91.792 31.028L93.024 31.62C93.408 31.812 93.408 31.924 93.408 31.988C93.408 32.244 93.168 32.228 92.736 32.212C92.144 33.076 91.456 33.844 90.848 34.42C91.104 34.628 91.648 35.076 91.648 35.668C91.648 35.972 91.456 36.388 91.12 36.388C90.848 36.388 90.816 36.308 90.448 35.604C89.984 34.724 89.552 34.244 88.944 33.732ZM89.824 40.132L90.928 40.484C91.232 40.58 91.296 40.66 91.296 40.772C91.296 40.948 91.104 41.012 90.816 41.06C90.384 42.484 89.568 44.036 88.96 44.756L88.72 44.644C89.632 42.26 89.808 40.58 89.824 40.132ZM93.52 40.244L93.712 40.084C94.4 40.58 95.648 41.764 95.648 42.996C95.648 43.508 95.328 43.796 95.056 43.796C94.72 43.796 94.688 43.62 94.496 42.868C94.096 41.236 93.712 40.58 93.52 40.244ZM96.512 37.38L96.704 37.156C97.792 37.86 99.552 39.3 99.552 40.484C99.552 40.916 99.328 41.38 98.912 41.38C98.544 41.38 98.448 41.108 98.272 40.58C97.696 38.9 96.816 37.796 96.512 37.38ZM115.968 36.516L116 36.276C116.128 36.228 116.272 36.18 116.48 36.18C117.248 36.18 118.064 36.996 118.064 37.524C118.064 37.844 117.952 37.876 116.928 38.164C115.104 38.692 113.792 39.316 113.008 39.7C113.024 39.94 113.104 41.444 113.104 41.572C113.104 41.78 113.104 42.532 112.448 42.532C111.952 42.532 111.952 42.02 111.952 41.812V40.26C111.056 40.772 109.584 41.636 109.584 42.66C109.584 43.396 110.272 43.796 112.32 43.796C113.136 43.796 113.968 43.716 114.864 43.556C115.28 43.476 115.36 43.46 115.52 43.46C115.872 43.46 116.624 43.764 116.624 44.196C116.624 44.564 116.208 44.644 116 44.692C115.44 44.804 113.76 44.852 112.72 44.852C111.776 44.852 108.72 44.852 108.72 42.852C108.72 41.636 109.728 40.66 111.904 39.412C111.84 38.628 111.76 37.652 110.512 37.652C109.024 37.652 108.144 38.836 107.52 39.652C107.088 40.244 107.024 40.324 106.784 40.324C106.512 40.324 106.272 40.084 106.272 39.732C106.272 39.188 106.768 38.756 107.12 38.436C107.936 37.732 108.64 36.772 109.616 35.396C109.344 35.412 109.04 35.444 108.736 35.444C107.36 35.444 106.992 34.74 106.688 34.164L106.88 34.02C107.088 34.132 107.648 34.484 108.784 34.484C109.328 34.484 110.048 34.388 110.336 34.356C110.624 33.924 111.28 32.916 111.28 32.548C111.28 32.276 110.992 32.068 110.496 31.908L110.576 31.684C110.736 31.62 110.896 31.54 111.152 31.54C111.84 31.54 112.72 32.036 112.72 32.5C112.72 32.74 112.624 32.852 112.288 33.204C112.128 33.38 111.904 33.684 111.52 34.18C112.544 33.988 113.184 33.86 113.776 33.556C114.208 33.348 114.288 33.3 114.512 33.3C114.928 33.3 115.52 33.556 115.52 33.908C115.52 34.292 115.024 34.404 114.016 34.628C112.976 34.868 112.016 35.028 110.752 35.236C110.608 35.412 109.632 36.676 109.072 37.396C109.552 37.172 110.048 36.932 110.752 36.932C112.608 36.932 112.848 38.452 112.912 38.852C113.92 38.34 114.96 37.844 116 37.348C116.352 37.188 116.512 37.092 116.512 36.948C116.512 36.708 116.112 36.564 115.968 36.516ZM124.752 45.572L124.688 45.332C128.32 43.7 128.624 41.492 128.768 40.484C128.592 40.884 128.16 41.844 126.816 41.844C125.648 41.844 124.528 40.964 124.528 39.284C124.528 37.476 125.808 36.596 127.072 36.596C127.792 36.596 128.208 36.836 128.416 36.964C128.4 35.476 128.4 35.316 128.4 34.964C125.872 35.172 124.256 35.54 123.968 35.604C123.744 35.652 122.768 35.956 122.576 35.956C122.016 35.956 121.248 35.316 121.248 34.516C121.248 34.34 121.296 34.212 121.328 34.116L121.568 34.052C121.776 34.404 122 34.644 122.736 34.644C123.632 34.644 127.568 34.196 128.384 34.116C128.352 32.42 128.192 32.196 127.248 31.94L127.264 31.7C127.52 31.572 127.744 31.444 128.032 31.444C128.528 31.444 129.632 31.86 129.632 32.404C129.632 32.516 129.52 33.012 129.504 33.108C129.44 33.412 129.44 33.748 129.44 34.036C131.936 33.876 132.224 33.86 132.544 33.844C132.704 33.828 133.408 33.716 133.552 33.716C134.048 33.716 134.752 34.068 134.752 34.516C134.752 34.932 134.288 34.948 134.112 34.948C133.952 34.948 131.584 34.852 131.136 34.852C130.224 34.852 129.824 34.868 129.44 34.9C129.424 35.988 129.424 37.06 129.44 38.068C129.584 38.372 129.856 39.124 129.856 40.116C129.856 43.38 127.408 45.012 124.752 45.572ZM125.552 39.284C125.552 40.404 126.16 41.012 126.816 41.012C127.696 41.012 128.256 39.956 128.256 38.948C128.256 38.628 128.192 37.348 127.024 37.348C126 37.348 125.552 38.452 125.552 39.284ZM140.352 32.74L140.592 32.644C140.752 32.884 141.008 33.236 141.664 33.236C142.304 33.236 143.968 32.868 144.112 32.836C144.304 32.788 145.904 32.42 145.968 32.42C146.48 32.42 147.008 33.14 147.008 33.412C147.008 33.588 146.944 33.652 146.288 34.084C145.12 34.852 141.36 38.516 141.36 38.516C142.624 37.748 143.712 37.092 145.552 37.092C147.824 37.092 149.6 38.308 149.6 40.484C149.6 43.044 147.168 44.74 144.32 44.74C142.512 44.74 141.136 44.004 141.136 42.756C141.136 41.7 142.128 40.884 143.328 40.884C144.32 40.884 145.792 41.54 146.208 43.556C148.272 42.772 148.4 41.028 148.4 40.484C148.4 38.708 147.136 37.78 145.36 37.78C142.432 37.78 140 40.228 139.408 40.98C138.832 41.7 138.768 41.78 138.512 41.78C138.16 41.78 138.032 41.364 138.032 41.06C138.032 40.66 138.096 40.596 139.04 39.7C139.6 39.172 143.808 35.012 144.224 34.58C144.432 34.372 145.12 33.668 145.12 33.524C145.12 33.46 145.056 33.428 144.976 33.428C144.944 33.428 144.176 33.54 143.12 33.908C142.88 33.988 141.856 34.452 141.632 34.452C141.216 34.452 140.32 33.892 140.32 33.044C140.32 32.964 140.32 32.948 140.352 32.74ZM145.168 43.828C144.912 41.924 143.52 41.7 143.136 41.7C142.496 41.7 142 42.132 142 42.676C142 43.54 143.232 43.908 144.176 43.908C144.576 43.908 144.944 43.86 145.168 43.828Z" fill="white"/>
<rect x="168" y="16" width="44" height="44" rx="22" fill="white" fill-opacity="0.6"/>
<path d="M189.126 35.191L189.721 34.5586C190.893 36.1767 192.065 37.0881 193.85 37.8134V38.204C192.065 38.9108 190.893 39.8221 189.721 41.4402L189.126 40.8079C190.223 39.6733 191.507 38.6318 193.162 38.111L189.516 38.3342H186.15V37.6646H189.516L193.162 37.8878C191.507 37.367 190.223 36.3441 189.126 35.191Z" fill="#111111"/>
</g>
<defs>
<filter id="filter0_f_6_1983" x="-356" y="-250" width="1252" height="1587" filterUnits="userSpaceOnUse" color-interpolation-filters="sRGB">
<feFlood flood-opacity="0" result="BackgroundImageFix"/>
<feBlend mode="normal" in="SourceGraphic" in2="BackgroundImageFix" result="shape"/>
<feGaussianBlur stdDeviation="20" result="effect1_foregroundBlur_6_1983"/>
</filter>
<linearGradient id="paint0_linear_6_1983" x1="270.001" y1="-210" x2="270.001" y2="174.778" gradientUnits="userSpaceOnUse">
<stop stop-color="#FFA108"/>
<stop offset="1" stop-color="#DD3C14"/>
</linearGradient>
<clipPath id="clip0_6_1983">
<rect width="236" height="76" rx="38" fill="white"/>
</clipPath>
</defs>
</svg>
