<svg width="1868" height="76" viewBox="0 0 1868 76" fill="none" xmlns="http://www.w3.org/2000/svg">
<g clip-path="url(#clip0_2_67)">
<path d="M88.5094 10.1772L86.5713 13.6678H91.172L93.0537 10.1772H88.5094Z" fill="url(#paint0_linear_2_67)"/>
<path d="M112.835 10.1772L114.961 13.6678H119.2L121.354 10.1772H112.835Z" fill="url(#paint1_linear_2_67)"/>
<path d="M268.146 13.6718V10.1719H255.148V13.6718H268.146Z" fill="url(#paint2_linear_2_67)"/>
<path d="M242.164 13.6718V10.1719H229.166V13.6718H242.164Z" fill="url(#paint3_linear_2_67)"/>
<path d="M203.452 13.6678H211.59C214.295 13.2021 215.241 11.5744 215.876 10.1772H208.848C208.848 10.1772 208.82 10.1772 208.801 10.1772H203.48" fill="url(#paint4_linear_2_67)"/>
<path d="M186.353 13.7506V10.0859H177.076V13.7506H186.353Z" fill="url(#paint5_linear_2_67)"/>
<path d="M68.333 13.7505V10.0859H59.0562V13.7505H68.333Z" fill="url(#paint6_linear_2_67)"/>
<path d="M91.1634 13.6719H86.5674L81.8773 22.1395L81.1904 23.3438H82.4982H97.66H98.281V22.7276V20.0179V19.3969H97.66H88.0727L88.1104 19.3311L91.1634 13.6719Z" fill="black"/>
<path d="M97.3532 2.19353L98.28 0.5H81.1942V1.09274C81.1942 1.09274 81.1895 1.11155 81.1895 1.12096V4.45157H91.6752L91.6047 4.58329L88.5046 10.1813H93.0489L97.3579 2.19353H97.3532Z" fill="black"/>
<path d="M123.133 0.5H127.381L126.741 1.44555L121.355 10.1766H112.835L107.519 1.44555L106.898 0.5H111.146L117.111 10.1766L123.133 0.5Z" fill="black"/>
<path d="M114.961 22.7222V23.3431H115.577H118.583H119.199V22.7222V13.6665H114.961V22.7222Z" fill="black"/>
<path d="M268.146 4.41864V0.5H255.153H251.187H250.914V23.3438H251.187H255.153H268.146V19.4299H255.153V4.41864H268.146Z" fill="black"/>
<path d="M242.296 4.41864V0.5H229.303H225.332H225.06V23.3438H225.332H229.303H242.296V19.4299H229.303V4.41864H242.296Z" fill="black"/>
<path d="M215.92 22.3983L211.592 13.6719H207.076L211.413 23.0521L211.564 23.3438H211.94H215.365H216.447L215.92 22.3983Z" fill="black"/>
<path d="M212.033 6.85073C212.033 8.66187 210.556 10.1484 208.848 10.1766H215.876C216.248 9.471 216.445 8.39843 216.445 7.29764C216.445 3.41663 213.077 0.5 209.163 0.5H199.209V23.3438H203.452V13.846L203.48 10.1766V4.41864H208.801C210.532 4.41864 212.033 5.12428 212.033 6.85073Z" fill="black"/>
<path d="M33.2109 13.6678H41.3493C44.0542 13.2021 44.9998 11.5744 45.6349 10.1772H38.6067C38.6067 10.1772 38.5785 10.1772 38.5597 10.1772H33.2392" fill="url(#paint7_linear_2_67)"/>
<path d="M45.6721 22.3983L41.3442 13.6719H36.8281L41.1701 23.0521L41.316 23.3438H41.6923H45.117H46.199L45.6721 22.3983Z" fill="black"/>
<path d="M41.7914 6.85073C41.7914 8.66187 40.3142 10.1484 38.6066 10.1766H45.6347C46.0064 9.471 46.204 8.39843 46.204 7.29764C46.1993 3.41663 42.8357 0.5 38.9171 0.5H28.9629V23.3438H33.2061V13.846L33.2343 10.1766V4.41864H38.5549C40.286 4.41864 41.7867 5.12428 41.7867 6.85073H41.7914Z" fill="black"/>
<path d="M281.012 13.6678H289.15C291.855 13.2021 292.801 11.5744 293.436 10.1772H286.407C286.407 10.1772 286.379 10.1772 286.36 10.1772H281.04" fill="url(#paint8_linear_2_67)"/>
<path d="M293.473 22.3983L289.145 13.6719H284.629L288.971 23.0521L289.117 23.3438H289.493H292.918H294L293.473 22.3983Z" fill="black"/>
<path d="M289.588 6.85073C289.588 8.66187 288.111 10.1484 286.403 10.1766H293.431C293.803 9.471 294.001 8.39843 294.001 7.29764C294.001 3.41663 290.632 0.5 286.718 0.5H276.764V23.3438H281.007V13.846L281.036 10.1766V4.41864H286.356C288.087 4.41864 289.588 5.12428 289.588 6.85073Z" fill="black"/>
<path d="M181.733 0.5C176.695 0.5 172.837 4.42334 172.837 9.26401V23.3438H177.076V9.45689C177.076 6.78017 178.958 4.64444 181.728 4.64444C184.499 4.64444 186.353 6.78017 186.353 9.48982V23.3438H190.591V9.26872C190.591 4.42334 186.734 0.5 181.733 0.5Z" fill="black"/>
<path d="M63.7084 0.5C58.6749 0.5 54.8174 4.42334 54.8174 9.26872V23.3485H59.0559V9.45689C59.0559 6.78017 60.9376 4.64444 63.7084 4.64444C66.4792 4.64444 68.3327 6.78017 68.3327 9.48982V23.3438H72.5712V9.26872C72.5712 4.42334 68.7137 0.5 63.7084 0.5Z" fill="black"/>
<path d="M3.65759 10.1766H5.33231C5.35583 10.0778 5.37464 9.97906 5.39816 9.88497C6.20259 6.8084 8.84638 4.47038 12.2146 4.47038C13.9928 4.47038 15.7663 5.16661 17.1023 6.34268L17.521 6.74254L17.8973 6.34268L19.8308 4.34337L20.2636 3.90117L19.8026 3.45897C17.6386 1.51612 15.3241 0.5 12.1205 0.5C6.48485 0.5 1.82764 4.53154 0.853862 9.88027C0.835045 9.97906 0.83034 10.0778 0.811523 10.1766H3.61055C3.61055 10.1766 3.63878 10.1766 3.65759 10.1766Z" fill="black"/>
<path d="M19.8596 19.4102L17.8933 17.378L17.5404 16.9828L17.0982 17.378C15.7669 18.4552 14.1487 19.1844 12.2435 19.1844C8.81877 19.1844 6.12794 16.7899 5.36585 13.6616H0.802734C1.62598 19.175 6.35845 23.3383 12.1212 23.3383C14.9437 23.3383 17.6722 22.3551 19.8314 20.2617L20.283 19.8336L19.8643 19.4055L19.8596 19.4102Z" fill="black"/>
<path d="M5.33831 13.5502C5.216 13.0045 5.14073 12.44 5.14073 11.8614C5.14073 11.2827 5.21129 10.7229 5.33361 10.1772H3.65889C3.65889 10.1772 3.63067 10.1772 3.61185 10.1772H0.817528C0.728147 10.7559 0.666992 11.3486 0.666992 11.9555C0.666992 12.4964 0.70933 13.028 0.779894 13.5502C0.784598 13.5925 0.794007 13.6302 0.803415 13.6678H5.37124C5.36183 13.6255 5.34772 13.5878 5.33831 13.5502Z" fill="url(#paint9_linear_2_67)"/>
<path d="M147.388 10.1766H149.062C149.086 10.0778 149.105 9.97906 149.128 9.88497C149.933 6.8084 152.576 4.47038 155.945 4.47038C157.723 4.47038 159.496 5.16661 160.832 6.34268L161.251 6.74254L161.627 6.34268L163.561 4.34337L163.994 3.90117L163.533 3.45897C161.369 1.51612 159.054 0.5 155.851 0.5C150.215 0.5 145.558 4.53154 144.584 9.88027C144.565 9.97906 144.56 10.0778 144.542 10.1766H147.336C147.336 10.1766 147.364 10.1766 147.383 10.1766H147.388Z" fill="black"/>
<path d="M163.589 19.4102L161.623 17.378L161.27 16.9828L160.828 17.378C159.496 18.4552 157.878 19.1844 155.973 19.1844C152.548 19.1844 149.857 16.7899 149.095 13.6616H144.527C145.351 19.175 150.083 23.3383 155.846 23.3383C158.668 23.3383 161.397 22.3551 163.556 20.2617L164.008 19.8336L163.589 19.4055V19.4102Z" fill="black"/>
<path d="M149.067 13.5502C148.945 13.0045 148.869 12.44 148.869 11.8614C148.869 11.2827 148.94 10.7229 149.062 10.1772H147.387C147.387 10.1772 147.359 10.1772 147.34 10.1772H144.546C144.457 10.7559 144.396 11.3486 144.396 11.9555C144.396 12.4964 144.438 13.028 144.508 13.5502C144.513 13.5925 144.523 13.6302 144.532 13.6678H149.1C149.09 13.6255 149.076 13.5878 149.067 13.5502Z" fill="url(#paint10_linear_2_67)"/>
</g>
<rect x="1792.67" y="0.5" width="74.6667" height="74.6667" rx="37.3333" fill="white" fill-opacity="0.7"/>
<circle cx="1822" cy="37.8333" r="1.33333" fill="black" fill-opacity="0.6"/>
<circle cx="1830" cy="37.8333" r="1.33333" fill="black" fill-opacity="0.6"/>
<circle cx="1838" cy="37.8333" r="1.33333" fill="black" fill-opacity="0.6"/>
<defs>
<linearGradient id="paint0_linear_2_67" x1="93.0537" y1="11.9225" x2="86.5713" y2="11.9225" gradientUnits="userSpaceOnUse">
<stop stop-color="#E16D05"/>
<stop offset="0.42" stop-color="#DD3C14"/>
<stop offset="1" stop-color="#B3300E"/>
</linearGradient>
<linearGradient id="paint1_linear_2_67" x1="121.354" y1="0.500608" x2="112.835" y2="11.9225" gradientUnits="userSpaceOnUse">
<stop stop-color="#E16D05"/>
<stop offset="0.42" stop-color="#DD3C14"/>
<stop offset="1" stop-color="#B3300E"/>
</linearGradient>
<linearGradient id="paint2_linear_2_67" x1="268.146" y1="0.49994" x2="255.153" y2="11.9219" gradientUnits="userSpaceOnUse">
<stop stop-color="#E16D05"/>
<stop offset="0.42" stop-color="#DD3C14"/>
<stop offset="1" stop-color="#B3300E"/>
</linearGradient>
<linearGradient id="paint3_linear_2_67" x1="242.169" y1="0.49994" x2="229.171" y2="11.9219" gradientUnits="userSpaceOnUse">
<stop stop-color="#E16D05"/>
<stop offset="0.42" stop-color="#DD3C14"/>
<stop offset="1" stop-color="#B3300E"/>
</linearGradient>
<linearGradient id="paint4_linear_2_67" x1="215.876" y1="0.500608" x2="203.452" y2="11.9225" gradientUnits="userSpaceOnUse">
<stop stop-color="#E16D05"/>
<stop offset="0.42" stop-color="#DD3C14"/>
<stop offset="1" stop-color="#B3300E"/>
</linearGradient>
<linearGradient id="paint5_linear_2_67" x1="186.353" y1="11.9206" x2="177.076" y2="11.9206" gradientUnits="userSpaceOnUse">
<stop stop-color="#E16D05"/>
<stop offset="0.42" stop-color="#DD3C14"/>
<stop offset="1" stop-color="#B3300E"/>
</linearGradient>
<linearGradient id="paint6_linear_2_67" x1="68.333" y1="11.9206" x2="59.0562" y2="11.9206" gradientUnits="userSpaceOnUse">
<stop stop-color="#E16D05"/>
<stop offset="0.42" stop-color="#DD3C14"/>
<stop offset="1" stop-color="#B3300E"/>
</linearGradient>
<linearGradient id="paint7_linear_2_67" x1="45.6301" y1="0.500609" x2="33.2109" y2="11.9225" gradientUnits="userSpaceOnUse">
<stop stop-color="#E16D05"/>
<stop offset="0.42" stop-color="#DD3C14"/>
<stop offset="1" stop-color="#B3300E"/>
</linearGradient>
<linearGradient id="paint8_linear_2_67" x1="293.431" y1="0.500609" x2="281.012" y2="11.9225" gradientUnits="userSpaceOnUse">
<stop stop-color="#E16D05"/>
<stop offset="0.42" stop-color="#DD3C14"/>
<stop offset="1" stop-color="#B3300E"/>
</linearGradient>
<linearGradient id="paint9_linear_2_67" x1="5.37124" y1="11.9225" x2="0.666992" y2="11.9225" gradientUnits="userSpaceOnUse">
<stop stop-color="#E16D05"/>
<stop offset="0.42" stop-color="#DD3C14"/>
<stop offset="1" stop-color="#B3300E"/>
</linearGradient>
<linearGradient id="paint10_linear_2_67" x1="149.095" y1="11.9225" x2="144.396" y2="11.9225" gradientUnits="userSpaceOnUse">
<stop stop-color="#E16D05"/>
<stop offset="0.42" stop-color="#DD3C14"/>
<stop offset="1" stop-color="#B3300E"/>
</linearGradient>
<clipPath id="clip0_2_67">
<rect width="293.333" height="22.8438" fill="white" transform="translate(0.666992 0.5)"/>
</clipPath>
</defs>
</svg>
