<svg width="110" height="9" viewBox="0 0 110 9" fill="none" xmlns="http://www.w3.org/2000/svg">
<g clip-path="url(#clip0_1_910)">
<path d="M32.9412 3.62891L32.2144 4.93786H33.9396L34.6453 3.62891H32.9412Z" fill="url(#paint0_linear_1_910)"/>
<path d="M42.063 3.62891L42.8604 4.93786H44.4498L45.2578 3.62891H42.063Z" fill="url(#paint1_linear_1_910)"/>
<path d="M100.305 4.93944V3.62695L95.4305 3.62695V4.93944H100.305Z" fill="url(#paint2_linear_1_910)"/>
<path d="M90.5615 4.93944V3.62695L85.6873 3.62695V4.93944H90.5615Z" fill="url(#paint3_linear_1_910)"/>
<path d="M76.0444 4.93786H79.0963C80.1107 4.76322 80.4653 4.15284 80.7034 3.62891H78.0678C78.0678 3.62891 78.0573 3.62891 78.0502 3.62891H76.055" fill="url(#paint4_linear_1_910)"/>
<path d="M69.6323 4.96896V3.59473H66.1535V4.96896H69.6323Z" fill="url(#paint5_linear_1_910)"/>
<path d="M25.375 4.96895V3.59473H21.8962V4.96895H25.375Z" fill="url(#paint6_linear_1_910)"/>
<path d="M33.9362 4.93945H32.2126L30.4538 8.11482L30.1963 8.56643H30.6867H36.3724H36.6052V8.33533V7.31921V7.08635H36.3724H32.7772L32.7913 7.06166L33.9362 4.93945Z" fill="black"/>
<path d="M36.2577 0.635073L36.6052 0H30.1981V0.222276C30.1981 0.222276 30.1963 0.229332 30.1963 0.23286V1.48184H34.1285L34.102 1.53123L32.9395 3.6305H34.6436L36.2595 0.635073H36.2577Z" fill="black"/>
<path d="M45.9248 0H47.5178L47.2779 0.354583L45.258 3.62874H42.0632L40.0698 0.354583L39.8369 0H41.4299L43.6668 3.62874L45.9248 0Z" fill="black"/>
<path d="M42.8604 8.33338V8.56624H43.0914H44.2187H44.4498V8.33338V4.9375H42.8604V8.33338Z" fill="black"/>
<path d="M100.305 1.46949V0H95.4322H93.9451H93.8428V8.56643H93.9451H95.4322H100.305V7.09871H95.4322V1.46949H100.305Z" fill="black"/>
<path d="M90.6111 1.46949V0H85.7387H84.2498H84.1475V8.56643H84.2498H85.7387H90.6111V7.09871H85.7387V1.46949H90.6111Z" fill="black"/>
<path d="M80.7198 8.21185L79.0969 4.93945H77.4033L79.0298 8.45705L79.0863 8.56643H79.2274H80.5117H80.9174L80.7198 8.21185Z" fill="black"/>
<path d="M79.2625 2.38153C79.2625 3.0607 78.7086 3.61815 78.0682 3.62874H80.7038C80.8432 3.36412 80.9173 2.96191 80.9173 2.54911C80.9173 1.09374 79.6542 0 78.1864 0H74.4536V8.56643H76.0448V5.00473L76.0554 3.62874V1.46949H78.0506C78.6998 1.46949 79.2625 1.7341 79.2625 2.38153Z" fill="black"/>
<path d="M12.2041 4.93786H15.256C16.2703 4.76322 16.6249 4.15284 16.8631 3.62891H14.2275C14.2275 3.62891 14.2169 3.62891 14.2099 3.62891H12.2147" fill="url(#paint7_linear_1_910)"/>
<path d="M16.877 8.21185L15.2541 4.93945H13.5605L15.1888 8.45705L15.2435 8.56643H15.3846H16.6689H17.0746L16.877 8.21185Z" fill="black"/>
<path d="M15.4215 2.38153C15.4215 3.0607 14.8676 3.61815 14.2272 3.62874H16.8628C17.0021 3.36412 17.0762 2.96191 17.0762 2.54911C17.0745 1.09374 15.8131 0 14.3437 0H10.6108V8.56643H12.2021V5.00473L12.2126 3.62874V1.46949H14.2078C14.857 1.46949 15.4198 1.7341 15.4198 2.38153H15.4215Z" fill="black"/>
<path d="M105.129 4.93786H108.181C109.196 4.76322 109.55 4.15284 109.788 3.62891H107.153C107.153 3.62891 107.142 3.62891 107.135 3.62891H105.14" fill="url(#paint8_linear_1_910)"/>
<path d="M109.802 8.21185L108.179 4.93945H106.486L108.114 8.45705L108.169 8.56643H108.31H109.594H110L109.802 8.21185Z" fill="black"/>
<path d="M108.346 2.38153C108.346 3.0607 107.792 3.61815 107.151 3.62874H109.787C109.926 3.36412 110 2.96191 110 2.54911C110 1.09374 108.737 0 107.269 0H103.537V8.56643H105.128V5.00473L105.138 3.62874V1.46949H107.134C107.783 1.46949 108.346 1.7341 108.346 2.38153Z" fill="black"/>
<path d="M67.8999 0C66.0105 0 64.564 1.47125 64.564 3.2865V8.56643H66.1534V3.35883C66.1534 2.35506 66.8591 1.55417 67.8981 1.55417C68.9372 1.55417 69.6322 2.35506 69.6322 3.37118V8.56643H71.2217V3.28827C71.2217 1.47125 69.7751 0 67.8999 0Z" fill="black"/>
<path d="M23.6408 0C21.7532 0 20.3066 1.47125 20.3066 3.28827V8.5682H21.8961V3.35883C21.8961 2.35506 22.6017 1.55417 23.6408 1.55417C24.6798 1.55417 25.3749 2.35506 25.3749 3.37118V8.56643H26.9643V3.28827C26.9643 1.47125 25.5178 0 23.6408 0Z" fill="black"/>
<path d="M1.12196 3.62874H1.74998C1.7588 3.59169 1.76586 3.55465 1.77468 3.51937C2.07634 2.36565 3.06776 1.48889 4.33085 1.48889C4.99768 1.48889 5.66274 1.74998 6.16374 2.191L6.32075 2.34095L6.46187 2.191L7.18692 1.44126L7.34921 1.27544L7.17633 1.10961C6.36485 0.381044 5.49691 0 4.29557 0C2.18218 0 0.435732 1.51183 0.0705643 3.5176C0.063508 3.55465 0.0617439 3.59169 0.0546875 3.62874H1.10432C1.10432 3.62874 1.11491 3.62874 1.12196 3.62874Z" fill="black"/>
<path d="M7.19761 7.09127L6.46022 6.32918L6.32791 6.181L6.16209 6.32918C5.66285 6.73316 5.056 7.00659 4.34154 7.00659C3.05728 7.00659 2.04822 6.10867 1.76244 4.93555H0.0512695C0.359986 7.00306 2.13466 8.56429 4.29568 8.56429C5.35413 8.56429 6.37731 8.19559 7.18702 7.41057L7.35638 7.25004L7.19937 7.0895L7.19761 7.09127Z" fill="black"/>
<path d="M1.75174 4.89376C1.70588 4.68913 1.67765 4.47743 1.67765 4.26045C1.67765 4.04347 1.70411 3.83354 1.74998 3.62891H1.12196C1.12196 3.62891 1.11138 3.62891 1.10432 3.62891H0.056451C0.0229332 3.84589 0 4.06817 0 4.29573C0 4.4986 0.0158768 4.69795 0.0423382 4.89376C0.0441023 4.90964 0.0476305 4.92375 0.0511587 4.93786H1.76409C1.76056 4.92199 1.75527 4.90787 1.75174 4.89376Z" fill="url(#paint9_linear_1_910)"/>
<path d="M55.0204 3.62874H55.6484C55.6572 3.59169 55.6643 3.55465 55.6731 3.51937C55.9748 2.36565 56.9662 1.48889 58.2293 1.48889C58.8961 1.48889 59.5612 1.74998 60.0622 2.191L60.2192 2.34095L60.3603 2.191L61.0854 1.44126L61.2477 1.27544L61.0748 1.10961C60.2633 0.381044 59.3954 0 58.194 0C56.0806 0 54.3342 1.51183 53.969 3.5176C53.9619 3.55465 53.9602 3.59169 53.9531 3.62874H55.001C55.001 3.62874 55.0116 3.62874 55.0186 3.62874H55.0204Z" fill="black"/>
<path d="M61.0959 7.09127L60.3585 6.32918L60.2262 6.181L60.0603 6.32918C59.5611 6.73316 58.9543 7.00659 58.2398 7.00659C56.9555 7.00659 55.9465 6.10867 55.6607 4.93555H53.9478C54.2565 7.00306 56.0311 8.56429 58.1922 8.56429C59.2506 8.56429 60.2738 8.19559 61.0835 7.41057L61.2529 7.25004L61.0959 7.0895V7.09127Z" fill="black"/>
<path d="M55.6502 4.89376C55.6043 4.68913 55.5761 4.47743 55.5761 4.26045C55.5761 4.04347 55.6026 3.83354 55.6484 3.62891H55.0204C55.0204 3.62891 55.0098 3.62891 55.0028 3.62891H53.9549C53.9214 3.84589 53.8984 4.06817 53.8984 4.29573C53.8984 4.4986 53.9143 4.69795 53.9408 4.89376C53.9425 4.90964 53.9461 4.92375 53.9496 4.93786H55.6625C55.659 4.92199 55.6537 4.90787 55.6502 4.89376Z" fill="url(#paint10_linear_1_910)"/>
</g>
<defs>
<linearGradient id="paint0_linear_1_910" x1="34.6453" y1="4.28338" x2="32.2144" y2="4.28338" gradientUnits="userSpaceOnUse">
<stop stop-color="#E16D05"/>
<stop offset="0.42" stop-color="#DD3C14"/>
<stop offset="1" stop-color="#B3300E"/>
</linearGradient>
<linearGradient id="paint1_linear_1_910" x1="45.2578" y1="0.000167095" x2="42.063" y2="4.28338" gradientUnits="userSpaceOnUse">
<stop stop-color="#E16D05"/>
<stop offset="0.42" stop-color="#DD3C14"/>
<stop offset="1" stop-color="#B3300E"/>
</linearGradient>
<linearGradient id="paint2_linear_1_910" x1="100.305" y1="-2.25399e-05" x2="95.4323" y2="4.28319" gradientUnits="userSpaceOnUse">
<stop stop-color="#E16D05"/>
<stop offset="0.42" stop-color="#DD3C14"/>
<stop offset="1" stop-color="#B3300E"/>
</linearGradient>
<linearGradient id="paint3_linear_1_910" x1="90.5633" y1="-2.25035e-05" x2="85.6891" y2="4.28319" gradientUnits="userSpaceOnUse">
<stop stop-color="#E16D05"/>
<stop offset="0.42" stop-color="#DD3C14"/>
<stop offset="1" stop-color="#B3300E"/>
</linearGradient>
<linearGradient id="paint4_linear_1_910" x1="80.7034" y1="0.000167112" x2="76.0444" y2="4.28339" gradientUnits="userSpaceOnUse">
<stop stop-color="#E16D05"/>
<stop offset="0.42" stop-color="#DD3C14"/>
<stop offset="1" stop-color="#B3300E"/>
</linearGradient>
<linearGradient id="paint5_linear_1_910" x1="69.6323" y1="4.28272" x2="66.1535" y2="4.28272" gradientUnits="userSpaceOnUse">
<stop stop-color="#E16D05"/>
<stop offset="0.42" stop-color="#DD3C14"/>
<stop offset="1" stop-color="#B3300E"/>
</linearGradient>
<linearGradient id="paint6_linear_1_910" x1="25.375" y1="4.28272" x2="21.8962" y2="4.28272" gradientUnits="userSpaceOnUse">
<stop stop-color="#E16D05"/>
<stop offset="0.42" stop-color="#DD3C14"/>
<stop offset="1" stop-color="#B3300E"/>
</linearGradient>
<linearGradient id="paint7_linear_1_910" x1="16.8613" y1="0.000167441" x2="12.2041" y2="4.28338" gradientUnits="userSpaceOnUse">
<stop stop-color="#E16D05"/>
<stop offset="0.42" stop-color="#DD3C14"/>
<stop offset="1" stop-color="#B3300E"/>
</linearGradient>
<linearGradient id="paint8_linear_1_910" x1="109.787" y1="0.000167441" x2="105.129" y2="4.28338" gradientUnits="userSpaceOnUse">
<stop stop-color="#E16D05"/>
<stop offset="0.42" stop-color="#DD3C14"/>
<stop offset="1" stop-color="#B3300E"/>
</linearGradient>
<linearGradient id="paint9_linear_1_910" x1="1.76409" y1="4.28338" x2="0" y2="4.28338" gradientUnits="userSpaceOnUse">
<stop stop-color="#E16D05"/>
<stop offset="0.42" stop-color="#DD3C14"/>
<stop offset="1" stop-color="#B3300E"/>
</linearGradient>
<linearGradient id="paint10_linear_1_910" x1="55.6608" y1="4.28338" x2="53.8984" y2="4.28338" gradientUnits="userSpaceOnUse">
<stop stop-color="#E16D05"/>
<stop offset="0.42" stop-color="#DD3C14"/>
<stop offset="1" stop-color="#B3300E"/>
</linearGradient>
<clipPath id="clip0_1_910">
<rect width="110" height="8.56643" fill="white"/>
</clipPath>
</defs>
</svg>
