<svg width="594" height="49" viewBox="0 0 594 49" fill="none" xmlns="http://www.w3.org/2000/svg">
<path d="M17.8207 17.116C19.5274 17.052 19.7621 16.8173 19.3994 15.7933L17.9274 11.6973H12.2954L11.1221 14.9827C10.6101 16.412 10.7807 17.0093 12.7007 17.116V17.5H8.17808V17.116C9.18075 17.0093 9.71408 16.5827 10.3541 14.876L14.6421 2.99333L14.4287 2.41733C14.8767 2.28933 15.4527 2.05467 15.7727 1.756H16.1354C16.2634 2.332 16.3487 2.60933 16.8607 4.01733L20.8927 15.0893C21.5541 16.796 21.7461 17.0093 23.1541 17.116V17.5H17.8207V17.116ZM12.5301 11.0147H17.6927L15.1114 3.84667L12.5301 11.0147ZM28.8126 17.628C27.6606 17.628 26.6152 17.3293 25.6126 16.668C25.4206 16.9453 25.1859 17.2227 24.8872 17.5H24.5032C24.6739 16.6467 24.7166 15.452 24.7166 13.7453V4.52933C24.7166 2.716 24.5246 2.332 23.4792 2.18267V1.79866C24.3752 1.692 25.1859 1.436 25.9539 0.987998H26.3379C26.2099 1.84133 26.2099 2.82267 26.2099 4.52933V8.39067C27.0846 7.66533 28.2792 7.132 29.6659 7.132C32.0766 7.132 33.9966 9.09467 33.9966 12.124C33.9966 15.516 31.6712 17.628 28.8126 17.628ZM26.2099 14.748C26.2099 15.9853 27.2766 17.0093 28.9406 17.0093C30.8606 17.0093 32.4392 15.3667 32.4392 12.7427C32.4392 9.948 31.0312 8.17733 28.7699 8.17733C27.9806 8.17733 27.1059 8.45467 26.2099 9.116V14.748ZM40.8587 17.7133C38.0427 17.7133 35.7814 15.6227 35.7814 12.508C35.7814 9.22267 38.0854 7.04667 41.0294 7.04667C43.8241 7.04667 46.0854 9.13733 46.0854 12.252C46.0854 15.5373 43.8027 17.7133 40.8587 17.7133ZM37.3814 11.996C37.3814 14.6627 38.8747 17.0947 41.1361 17.0947C43.0347 17.0947 44.4854 15.452 44.4854 12.764C44.4854 10.0973 42.9921 7.66533 40.7521 7.66533C38.8321 7.66533 37.3814 9.308 37.3814 11.996ZM51.5976 17.628C49.8909 17.628 48.8456 16.5187 48.8456 14.3V9.052C48.8456 8.04933 48.4616 7.72933 47.5229 7.644V7.26C48.3122 7.26 49.1869 7.17467 50.0829 7.04667H50.4669C50.3389 7.87867 50.3389 8.88133 50.3389 9.90533V13.9587C50.3389 15.7933 51.1922 16.604 52.5576 16.604C53.4536 16.604 54.3922 16.0493 55.2882 15.2813V9.052C55.2882 8.04933 54.9042 7.72933 53.7096 7.644V7.26C54.7549 7.26 55.6296 7.17467 56.5256 7.04667H56.9096C56.7816 7.87867 56.7816 8.88133 56.7816 9.90533V15.5373C56.7816 16.7107 56.9736 16.9027 58.1042 16.9027V17.2867C57.1869 17.3507 56.3549 17.4787 55.5442 17.7133H55.1602L55.3096 15.9427C54.2856 16.86 53.1336 17.628 51.5976 17.628ZM62.7721 17.7133C61.5134 17.7133 60.5748 17.052 60.5748 15.4307V8.17733H59.3374V7.75067C60.6388 7.28133 61.1934 6.236 61.6628 4.956H62.0468V7.26H65.5241L65.3748 8.17733H62.0468V15.004C62.0468 16.3053 62.7294 16.6893 63.6254 16.6893C64.2868 16.6893 64.9268 16.4333 65.5028 16.0707L65.7374 16.3907C64.8841 17.2227 63.7961 17.7133 62.7721 17.7133ZM78.9048 17.7133C75.4701 17.7133 73.3368 16.0067 73.3368 11.996V3.44133C73.3368 2.588 73.0381 2.43867 71.5661 2.35333V1.96933H76.7501V2.35333C75.2781 2.43867 74.9794 2.588 74.9794 3.44133V11.868C74.9794 15.4307 76.7501 16.9027 79.4168 16.9027C82.0194 16.9027 83.9821 15.6013 83.9821 11.9107V4.55067C83.9821 2.88666 83.5768 2.46 81.6141 2.35333V1.96933H86.6488V2.35333C85.0488 2.46 84.6861 2.88666 84.6861 4.55067V11.9107C84.6861 16.028 82.4248 17.7133 78.9048 17.7133ZM90.4357 17.7133C89.3051 17.7133 88.2811 17.4573 87.6624 17.18L87.4064 14.748H87.8331C88.4304 16.3907 89.2837 17.1373 90.6277 17.1373C91.8864 17.1373 92.8251 16.3693 92.8251 15.3027C92.8251 14.428 92.2704 13.7453 90.8624 13.1267L90.1157 12.8067C88.3237 12.0387 87.7691 11.036 87.7691 9.92667C87.7691 8.22 89.0277 7.04667 90.9051 7.04667C91.8011 7.04667 92.5904 7.23867 93.3371 7.516L93.5291 9.67067H93.1024C92.5691 8.284 91.7371 7.62267 90.7557 7.62267C89.8384 7.62267 88.9211 8.22 88.9211 9.244C88.9211 10.0547 89.2411 10.6733 90.8411 11.3773L91.5877 11.6973C93.3584 12.4653 93.9771 13.468 93.9771 14.5987C93.9771 16.4547 92.5477 17.7133 90.4357 17.7133Z" fill="#111111"/>
<path d="M4.85656 37.5985V38.6692C8.20056 39.9305 7.55523 41.9838 6.5579 41.3092C6.30856 40.5758 5.5459 39.6225 4.85656 38.9772V45.9878C4.85656 46.0758 4.53389 46.3252 4.06456 46.3252H3.91789V39.7838C3.19923 41.2798 2.23123 42.6145 0.999228 43.7145L0.808561 43.5092C2.12856 41.9105 3.11123 39.7398 3.65389 37.5985H1.04323L0.940561 37.1732H3.91789V34.7092C2.99389 34.8998 2.01123 35.0758 1.08723 35.1785L0.999228 34.9292C2.86189 34.4892 5.16456 33.6092 6.32323 32.9492L7.51123 33.9612C7.37923 34.1078 7.10056 34.1078 6.76323 33.9758C6.22056 34.1518 5.57523 34.3278 4.85656 34.4892V37.1732H5.94189L6.63123 36.2932C6.63123 36.2932 7.39389 36.9238 7.8779 37.3638C7.83389 37.5252 7.68723 37.5985 7.4819 37.5985H4.85656ZM10.9726 39.9745L11.2072 39.8865C15.3726 43.9345 14.7712 46.9705 13.5686 45.9292C13.4659 45.3572 13.2606 44.6972 12.9966 44.0078C11.4712 44.3892 9.44723 44.8585 6.7339 45.4305C6.64589 45.6212 6.49923 45.7092 6.33789 45.7385L5.82456 44.3892C6.27923 44.3598 6.93923 44.3012 7.76056 44.2278C8.59656 40.7225 9.5059 35.7652 9.82856 33.2718L11.4859 33.6532C11.4566 33.8292 11.2806 34.0492 10.9286 34.0785C10.4152 36.4838 9.34456 40.8398 8.09789 44.1985C9.43256 44.0812 11.1192 43.9052 12.8792 43.7145C12.3366 42.3945 11.5739 41.0158 10.9726 39.9745ZM22.8232 38.9332L22.7352 38.5812C23.4246 38.3025 24.4219 38.0532 25.3899 38.0532C26.3579 38.0532 27.0179 38.2438 27.3699 38.4052C27.7072 38.5812 27.8979 38.8012 27.8979 39.0505C27.8979 39.3145 27.6486 39.3878 27.2966 39.4172C27.0326 39.4465 26.8126 39.4905 26.4312 39.6518C25.9766 39.8132 25.2872 40.1652 24.7886 40.4145L24.5979 40.1505C25.0966 39.8278 25.9472 39.2705 26.1379 39.0798C26.2552 38.9918 26.2112 38.9185 26.0792 38.8745C25.7272 38.7425 25.2286 38.6985 24.7886 38.6985C24.1432 38.6985 23.4686 38.7865 22.8232 38.9332ZM19.2886 34.1518L19.3179 33.8145C19.6259 33.7412 19.8899 33.6972 20.2419 33.7118C20.7699 33.7412 21.6939 34.0932 21.7086 34.4305C21.7086 34.6798 21.5032 35.0465 21.3272 35.6038C21.2539 35.8678 21.1659 36.2345 21.0486 36.6452C21.8259 36.3812 22.4419 36.1025 22.8966 35.8678C23.1166 35.7505 23.2779 35.6625 23.3952 35.6625C23.6446 35.6625 24.0259 35.8092 24.0259 36.0732C24.0259 36.3518 23.8646 36.4985 23.3219 36.7332C22.9846 36.8798 21.8406 37.2905 20.7846 37.5545C20.5792 38.2732 20.3299 39.0652 20.0659 39.7692C19.3766 41.7492 18.4379 44.1105 17.8072 45.1372C17.6019 45.4745 17.4552 45.6065 17.1619 45.6065C16.9126 45.6065 16.7366 45.3425 16.7366 45.0052C16.7366 44.6825 16.8686 44.5505 17.0886 44.1545C17.8366 43.0398 18.6579 41.5732 19.3766 39.5198C19.5672 38.9772 19.7579 38.3612 19.9339 37.7452C19.4059 37.8478 18.7899 37.9212 18.2472 37.9212C17.3966 37.9212 16.6926 37.5985 16.2086 36.4838L16.4579 36.2932C17.0886 36.8505 17.5286 37.1292 18.2472 37.1292C18.9366 37.1292 19.5966 37.0265 20.1539 36.8945C20.3446 36.1318 20.4766 35.4425 20.5206 34.9878C20.5499 34.6652 20.4766 34.5332 20.2126 34.4012C19.9192 34.2985 19.5966 34.2105 19.2886 34.1518ZM21.5472 42.0572L21.8992 42.0132C21.9872 42.4385 22.1192 42.9665 22.3979 43.4065C22.9112 44.1985 23.8059 44.5358 25.0672 44.5358C26.5339 44.5358 27.0032 44.2572 27.4286 44.2572C27.7659 44.2572 28.1472 44.4185 28.1472 44.7558C28.1472 45.0492 27.7659 45.2105 27.3406 45.2985C26.8859 45.4012 26.2259 45.4892 25.3752 45.4892C23.6739 45.4892 22.3246 44.9758 21.8699 43.6852C21.6206 43.1278 21.5619 42.5705 21.5472 42.0572ZM33.8526 34.1665L33.8379 33.8438C34.1606 33.7705 34.4686 33.6972 34.7619 33.6972C35.4219 33.6972 36.2726 34.1372 36.2726 34.4745C36.2726 34.7678 35.9792 34.8558 35.8619 35.3105C35.7592 35.6332 35.6712 36.0145 35.5392 36.5278C36.5219 36.3518 37.4752 36.0585 38.0912 35.7505C38.6339 35.4718 38.9272 35.2812 39.1619 35.2812C39.4699 35.2812 39.8952 35.3838 39.8952 35.7358C39.8952 35.9852 39.4992 36.2345 38.9712 36.4398C38.3699 36.6598 36.9472 37.1145 35.3339 37.3492C35.0406 38.4932 34.5419 40.2825 34.3219 41.1038C34.2339 41.4412 34.2339 41.5145 34.5566 41.2505C35.9206 40.2092 37.2259 39.5198 38.7659 39.5198C40.9219 39.5198 41.9339 40.8252 41.9339 42.3065C41.9339 44.9465 38.1792 45.9878 34.8352 45.7678L34.7912 45.4012C35.9206 45.3572 36.8886 45.1958 37.6659 44.9758C40.2619 44.2718 40.9366 43.0985 40.9366 42.0572C40.9366 40.7665 39.9246 40.0185 38.7072 40.0185C37.0792 40.0185 35.4512 41.2798 34.3952 42.4825C34.1752 42.7318 33.9552 43.2892 33.6766 43.2892C33.3832 43.2892 33.0606 42.7465 33.0606 42.2918C33.0606 42.0572 33.1632 41.9985 33.3832 41.4705C33.6912 40.6785 34.2486 38.5958 34.5272 37.4372C34.2046 37.4665 33.8819 37.4812 33.5592 37.4812C32.3272 37.4812 31.8872 37.3638 31.0512 35.8825L31.3152 35.6918C32.1659 36.5132 32.7526 36.7185 33.7059 36.7185C34.0139 36.7185 34.3512 36.7038 34.7032 36.6598C34.8646 35.9118 35.0112 35.1345 35.0259 34.8118C35.0552 34.5185 34.9672 34.4452 34.7326 34.3718C34.4979 34.2838 34.2192 34.2252 33.8526 34.1665ZM49.0179 39.6518L49.3699 39.8278C49.0619 40.5905 48.3872 42.2478 48.2259 42.8052C48.0792 43.2598 47.9766 43.5972 47.9766 43.8612C47.9766 44.2865 48.2699 44.7558 48.2699 45.1078C48.2699 45.3865 48.1232 45.5478 47.8446 45.5478C47.5806 45.5478 47.3459 45.3132 47.1552 45.0052C46.7592 44.4038 46.3046 43.0838 46.3046 41.7198C46.3046 39.9745 46.7739 38.7278 47.0086 37.8478C47.1846 37.1438 47.3606 36.6305 47.3752 36.1465C47.3899 35.6185 47.0379 35.1345 46.5539 34.6065L46.7886 34.4158C47.0819 34.5478 47.2872 34.6652 47.5366 34.8558C47.8446 35.1052 48.4899 35.7798 48.4899 36.3958C48.4899 36.7332 48.2846 36.9972 47.9326 37.8772C47.5512 38.6985 46.9939 40.0185 46.9939 41.4705C46.9939 42.2478 47.1112 42.5412 47.2286 42.7318C47.3166 42.9078 47.4192 42.9372 47.5512 42.7465C47.8739 42.2332 48.6952 40.3998 49.0179 39.6518ZM50.4992 41.1478L50.8366 41.0892C50.9246 41.4412 51.0566 41.9985 51.2619 42.3652C51.7606 43.2305 52.5379 43.7438 54.3419 43.7438C55.9259 43.7438 56.4832 43.4798 56.8352 43.4798C57.2312 43.4798 57.6126 43.6118 57.6126 43.9492C57.6126 44.5358 56.2486 44.7118 54.6646 44.7118C52.3766 44.7118 51.1299 43.9492 50.6899 42.4532C50.5579 42.0132 50.4992 41.5438 50.4992 41.1478ZM51.1446 36.8505L50.9979 36.4985C52.1712 35.8532 53.4766 35.5892 54.5032 35.5892C55.5152 35.5892 56.0726 35.6918 56.5419 35.8972C56.8499 36.0292 56.9819 36.2345 56.9819 36.4105C56.9819 36.6012 56.8939 36.7332 56.5859 36.7772C56.2339 36.8212 55.8672 36.8505 55.3832 37.0558C54.7379 37.3492 53.6966 37.9358 52.9779 38.3905L52.7286 38.1265C53.3886 37.6572 54.4299 36.8945 54.7379 36.6305C54.9139 36.4692 54.8992 36.3665 53.9312 36.3665C53.3299 36.3665 52.3766 36.4545 51.1446 36.8505ZM59.5994 38.1265L59.8048 37.9945C60.1274 38.3465 60.4794 38.5665 60.7874 38.5665C61.0808 38.5665 61.3154 38.5225 62.0928 38.1118C63.4714 37.4078 65.7301 36.1172 67.9154 36.1172C70.5994 36.1172 71.9781 37.7745 71.9781 39.5932C71.9781 41.4998 70.8194 42.7318 69.2354 43.4798C67.9301 44.1105 65.8181 44.4332 63.5301 44.3158L63.5008 43.9198C65.4514 43.8025 67.0354 43.5678 68.5021 42.8492C70.1594 42.0718 70.9368 40.9865 70.9368 39.4172C70.9368 37.7745 69.7928 36.7185 67.9008 36.7185C66.1114 36.7185 64.1314 38.0238 63.0314 38.7132C61.9461 39.3878 61.5501 39.7985 61.1248 39.7985C60.6848 39.7985 60.0688 39.3292 59.8341 38.9478C59.6874 38.7132 59.6434 38.4198 59.5994 38.1265ZM75.6888 40.0185C75.6594 38.9625 75.7474 37.9505 75.7474 37.2905C75.7474 36.4985 75.6448 36.1318 74.6034 35.3985L74.7354 35.1638C75.0874 35.2225 75.3808 35.2812 75.6594 35.3985C76.1874 35.6478 76.9501 36.3078 76.9501 36.9092C76.9501 37.5545 76.4514 38.4785 76.4514 39.9892C76.4514 41.8518 77.3021 42.8052 77.9181 43.1278C78.1381 43.2452 78.2994 43.2158 78.4314 43.0252C78.8861 42.3358 79.3848 41.2505 79.8101 40.3412L80.1914 40.5172C79.8541 41.4852 79.3848 42.7172 79.2968 43.1718C79.1648 43.8318 79.3994 43.9052 79.3994 44.2132C79.3994 44.6092 79.0034 44.8438 78.4021 44.5945C77.2581 44.0958 75.7328 42.8198 75.6888 40.0185ZM84.8554 38.6985C84.3421 37.8332 83.5501 37.2905 82.5821 36.9238L82.7141 36.5718C84.0928 36.8212 84.8114 37.3345 85.4714 38.0238C86.3074 38.8892 86.7474 40.3412 86.7474 41.3238C86.7474 41.8958 86.5568 42.1452 86.1608 42.1452C85.9261 42.1452 85.7501 41.9692 85.6914 41.6318C85.5888 40.9865 85.4714 39.7398 84.8554 38.6985ZM89.1381 36.1025L89.4168 36.0145C89.6221 36.3958 90.0181 36.7478 90.3408 36.7478C91.1034 36.7478 93.9341 35.8972 96.3541 35.3398C98.0408 34.9438 99.1848 34.7385 99.6834 34.7385C100.065 34.7385 100.49 34.7972 100.725 34.8998C101.047 35.0465 101.165 35.2078 101.165 35.4132C101.165 35.6185 100.989 35.7945 100.666 35.7945C100.387 35.7945 99.9474 35.7505 99.4048 35.7505C98.7008 35.7505 97.6741 35.8385 96.9408 36.2932C96.2808 36.6892 94.8141 38.0532 94.8141 40.9865C94.8141 42.5852 95.4741 43.2452 96.0608 43.6118C97.0141 44.1838 98.3048 44.0958 98.9061 44.0958C99.2581 44.0958 99.7421 44.3452 99.7421 44.7118C99.7421 45.0638 99.3461 45.1958 98.6861 45.1958C97.8354 45.1958 96.3834 45.1372 95.3861 44.3745C94.4621 43.6998 93.9781 42.8198 93.9781 41.1625C93.9781 39.4318 94.5208 37.4958 96.1781 36.1905C96.2808 36.1025 96.2661 36.0145 96.1048 36.0585C94.4621 36.4545 92.3794 37.1438 91.4994 37.5545C91.2061 37.6865 90.9128 37.9212 90.6048 37.9212C90.0621 37.9212 89.3288 37.2758 89.1968 36.7772C89.1381 36.5425 89.1528 36.3225 89.1381 36.1025Z" fill="#111111" fill-opacity="0.6"/>
<g clip-path="url(#clip0_2_7)">
<path d="M164.248 17.116C165.784 17.0307 166.083 16.8813 166.083 16.028V3.44133C166.083 2.588 165.784 2.43867 164.248 2.35333V1.96933H169.582V2.35333C168.046 2.43867 167.747 2.588 167.747 3.44133V16.028C167.747 16.8813 168.046 17.0307 169.582 17.116V17.5H164.248V17.116ZM174.28 17.7133C173.149 17.7133 172.125 17.4573 171.506 17.18L171.25 14.748H171.677C172.274 16.3907 173.128 17.1373 174.472 17.1373C175.73 17.1373 176.669 16.3693 176.669 15.3027C176.669 14.428 176.114 13.7453 174.706 13.1267L173.96 12.8067C172.168 12.0387 171.613 11.036 171.613 9.92667C171.613 8.22 172.872 7.04667 174.749 7.04667C175.645 7.04667 176.434 7.23867 177.181 7.516L177.373 9.67067H176.946C176.413 8.284 175.581 7.62267 174.6 7.62267C173.682 7.62267 172.765 8.22 172.765 9.244C172.765 10.0547 173.085 10.6733 174.685 11.3773L175.432 11.6973C177.202 12.4653 177.821 13.468 177.821 14.5987C177.821 16.4547 176.392 17.7133 174.28 17.7133ZM182.634 17.7133C181.503 17.7133 180.479 17.4573 179.86 17.18L179.604 14.748H180.031C180.628 16.3907 181.482 17.1373 182.826 17.1373C184.084 17.1373 185.023 16.3693 185.023 15.3027C185.023 14.428 184.468 13.7453 183.06 13.1267L182.314 12.8067C180.522 12.0387 179.967 11.036 179.967 9.92667C179.967 8.22 181.226 7.04667 183.103 7.04667C183.999 7.04667 184.788 7.23867 185.535 7.516L185.727 9.67067H185.3C184.767 8.284 183.935 7.62267 182.954 7.62267C182.036 7.62267 181.119 8.22 181.119 9.244C181.119 10.0547 181.439 10.6733 183.039 11.3773L183.786 11.6973C185.556 12.4653 186.175 13.468 186.175 14.5987C186.175 16.4547 184.746 17.7133 182.634 17.7133ZM191.671 17.628C189.964 17.628 188.919 16.5187 188.919 14.3V9.052C188.919 8.04933 188.535 7.72933 187.596 7.644V7.26C188.385 7.26 189.26 7.17467 190.156 7.04667H190.54C190.412 7.87867 190.412 8.88133 190.412 9.90533V13.9587C190.412 15.7933 191.265 16.604 192.631 16.604C193.527 16.604 194.465 16.0493 195.361 15.2813V9.052C195.361 8.04933 194.977 7.72933 193.783 7.644V7.26C194.828 7.26 195.703 7.17467 196.599 7.04667H196.983C196.855 7.87867 196.855 8.88133 196.855 9.90533V15.5373C196.855 16.7107 197.047 16.9027 198.177 16.9027V17.2867C197.26 17.3507 196.428 17.4787 195.617 17.7133H195.233L195.383 15.9427C194.359 16.86 193.207 17.628 191.671 17.628ZM204.36 17.7133C201.8 17.7133 199.688 15.7507 199.688 12.444C199.688 9.32933 201.757 7.04667 204.616 7.04667C207.048 7.04667 208.584 8.54 208.541 11.164H201.202C201.181 11.356 201.181 11.5693 201.181 11.7827C201.181 14.7693 202.909 16.5827 205.021 16.5827C206.45 16.5827 207.752 15.6653 208.605 14.0867L208.968 14.2787C208.029 16.5613 206.216 17.7133 204.36 17.7133ZM201.288 10.5667H206.386C206.813 10.5667 206.92 10.4387 206.92 10.012C206.92 8.83867 206.109 7.62267 204.445 7.62267C202.888 7.62267 201.65 8.64667 201.288 10.5667Z" fill="#111111"/>
<path d="M144.495 34.4012H142.309L142.177 33.9612H147.648L148.147 33.4332L149.203 34.2838C149.115 34.4012 148.953 34.4598 148.66 34.4892C148.587 36.4692 148.396 37.4518 147.941 37.8332C147.633 38.0825 147.164 38.1998 146.724 38.1998C146.724 37.9505 146.68 37.7012 146.504 37.5692C146.343 37.4372 145.903 37.3198 145.521 37.2612V37.0118C145.947 37.0558 146.709 37.1145 146.929 37.1145C147.164 37.1145 147.267 37.0852 147.355 37.0118C147.575 36.8065 147.692 35.9705 147.78 34.4012H145.58C145.169 36.3958 144.099 37.6572 142.104 38.4638L142.001 38.2585C143.585 37.3052 144.26 36.0585 144.495 34.4012ZM139.699 41.6612H140.96V39.5492H139.699V41.6612ZM137.719 39.5492V39.6225C137.719 40.2385 137.719 40.9425 137.645 41.6612H138.907V39.5492H137.719ZM139.889 34.7972H138.32C138.012 35.3985 137.675 35.9705 137.293 36.4692L137.895 36.7478H139.068C139.376 36.1905 139.684 35.3985 139.889 34.7972ZM137.719 37.1732V39.1238H138.907V37.1732H137.719ZM140.96 37.1732H139.699V39.1238H140.96V37.1732ZM141.268 36.1465L142.471 37.0558C142.368 37.1732 142.119 37.2758 141.84 37.3492V45.0052C141.84 45.6945 141.679 46.1345 140.432 46.2518C140.388 46.0025 140.315 45.7825 140.139 45.6798C139.933 45.5185 139.581 45.4305 138.98 45.3425V45.1078C138.98 45.1078 140.344 45.2105 140.637 45.2105C140.887 45.2105 140.96 45.1225 140.96 44.9025V42.0718H137.616C137.44 43.5385 137.029 45.0785 135.988 46.2812L135.783 46.1198C136.809 44.1692 136.868 41.7932 136.868 39.6372V37.0118C136.575 37.3492 136.267 37.6572 135.959 37.9212L135.768 37.7745C136.692 36.6158 137.557 34.7825 138.041 32.8465L139.42 33.2718C139.361 33.4478 139.185 33.5798 138.863 33.5652C138.76 33.8292 138.657 34.0932 138.54 34.3572H139.875L140.432 33.7852L141.444 34.7532C141.341 34.8412 141.151 34.8558 140.872 34.8705C140.535 35.3838 139.963 36.2052 139.449 36.7478H140.813L141.268 36.1465ZM147.765 42.8198L148.381 42.0278C148.381 42.0278 149.115 42.5852 149.555 43.0105C149.511 43.1718 149.364 43.2452 149.159 43.2452H146.196V45.9438C146.196 46.0612 145.785 46.2812 145.448 46.2812H145.272V43.2452H142.192L142.075 42.8198H145.272V40.7225H143.365C143.028 41.2798 142.632 41.7638 142.192 42.1305L141.987 41.9838C142.588 41.1038 143.101 39.7838 143.38 38.4052L144.671 38.7865C144.612 38.9625 144.436 39.0945 144.143 39.0798C143.996 39.5052 143.805 39.9158 143.615 40.2972H145.272V38.2878L146.68 38.4492C146.651 38.6105 146.519 38.7572 146.196 38.8012V40.2972H147.428L148.015 39.5638C148.015 39.5638 148.689 40.0772 149.129 40.4878C149.085 40.6492 148.953 40.7225 148.748 40.7225H146.196V42.8198H147.765ZM151.373 33.1985L151.505 33.0518C154.688 33.5212 154.131 35.6918 153.031 35.1052C152.811 34.4305 152.004 33.6092 151.373 33.1985ZM150.332 36.5132L150.464 36.3665C153.559 36.7625 152.987 38.8598 151.931 38.2732C151.725 37.6278 150.963 36.9092 150.332 36.5132ZM154.527 35.0172L154.805 35.0905C154.145 37.0705 152.84 40.7372 152.62 41.4558C152.473 41.9398 152.371 42.4092 152.385 42.7758C152.385 43.4358 152.811 44.0812 152.767 45.2838C152.737 45.8998 152.444 46.2958 151.945 46.2958C151.681 46.2958 151.505 46.0318 151.491 45.5772C151.696 44.0812 151.593 42.9372 151.271 42.7318C151.08 42.5852 150.86 42.5412 150.537 42.5118V42.1892H151.197C151.373 42.1892 151.432 42.1745 151.564 41.8812C151.828 41.3385 151.828 41.3385 154.527 35.0172ZM158.853 36.0878V38.1998C158.853 38.6838 158.824 39.1678 158.78 39.6372H161.2V36.0878H158.853ZM163.723 40.0625H159.044C159.777 42.6145 161.405 44.5505 164.075 45.2252L164.06 45.3865C163.679 45.4892 163.371 45.7825 163.253 46.2812C160.584 45.2398 159.337 43.2158 158.736 40.0625H158.721C158.34 42.7758 156.961 45.0198 153.104 46.3105L152.972 46.0612C156.257 44.6825 157.445 42.6145 157.783 40.0625H154.145L154.028 39.6372H157.841C157.885 39.1678 157.9 38.6985 157.9 38.1998V36.0878H155.069L154.937 35.6625H157.9V33.0078L159.352 33.1692C159.323 33.3745 159.205 33.5212 158.853 33.5798V35.6625H161.053L161.596 35.0758L162.755 35.9852C162.652 36.0878 162.432 36.2052 162.124 36.2638V39.6372H162.315L162.945 38.7718C162.945 38.7718 163.664 39.4025 164.089 39.8278C164.045 39.9892 163.913 40.0625 163.723 40.0625ZM165.321 36.1612L165.6 36.0732C165.805 36.4545 166.201 36.8065 166.524 36.8065C167.287 36.8065 170.117 35.9558 172.537 35.3985C174.224 35.0025 175.368 34.7972 175.867 34.7972C176.248 34.7972 176.673 34.8558 176.908 34.9585C177.231 35.1052 177.348 35.2665 177.348 35.4718C177.348 35.6772 177.172 35.8532 176.849 35.8532C176.571 35.8532 176.131 35.8092 175.588 35.8092C174.884 35.8092 173.857 35.8972 173.124 36.3518C172.464 36.7478 170.997 38.1118 170.997 41.0452C170.997 42.6438 171.657 43.3038 172.244 43.6705C173.197 44.2425 174.488 44.1545 175.089 44.1545C175.441 44.1545 175.925 44.4038 175.925 44.7705C175.925 45.1225 175.529 45.2545 174.869 45.2545C174.019 45.2545 172.567 45.1958 171.569 44.4332C170.645 43.7585 170.161 42.8785 170.161 41.2212C170.161 39.4905 170.704 37.5545 172.361 36.2492C172.464 36.1612 172.449 36.0732 172.288 36.1172C170.645 36.5132 168.563 37.2025 167.683 37.6132C167.389 37.7452 167.096 37.9798 166.788 37.9798C166.245 37.9798 165.512 37.3345 165.38 36.8358C165.321 36.6012 165.336 36.3812 165.321 36.1612ZM175.705 37.1292L175.896 36.8652C176.629 37.1438 177.216 37.4225 177.553 37.7158C177.949 38.0385 178.096 38.3172 178.096 38.6252C178.096 38.8745 177.979 39.0065 177.759 39.0065C177.524 39.0065 177.377 38.6692 177.069 38.3025C176.732 37.9358 176.365 37.5838 175.705 37.1292ZM174.4 38.0972L174.605 37.8478C175.339 38.1412 175.911 38.4932 176.277 38.8305C176.629 39.1678 176.776 39.4172 176.776 39.7105C176.776 39.9452 176.644 40.0918 176.424 40.0918C176.204 40.0918 176.043 39.7545 175.749 39.3732C175.427 39.0212 175.031 38.5518 174.4 38.0972ZM184.491 34.2252L184.432 33.9465C184.857 33.6972 185.195 33.5652 185.635 33.5652C186.163 33.5652 186.72 33.6825 186.793 34.0932C186.881 34.5625 186.969 35.1492 187.116 35.7212C188.641 35.2665 189.213 34.7825 189.448 34.7825C189.785 34.7825 190.167 34.8558 190.181 35.1345C190.181 35.2812 190.079 35.4132 189.859 35.5598C189.551 35.7505 188.539 36.1612 187.351 36.4985C187.541 37.0705 187.791 37.7012 188.143 38.3905C188.612 38.2438 189.052 38.0825 189.433 37.9212C190.372 37.5398 190.533 37.3345 190.768 37.3345C191.135 37.3052 191.457 37.4078 191.457 37.7012C191.457 37.8478 191.399 38.0092 191.12 38.1558C190.577 38.4785 189.697 38.8598 188.583 39.1678C189.727 41.0598 190.577 41.4705 190.577 41.8518C190.577 42.3065 190.328 42.9372 189.976 42.9372C189.624 42.9372 189.389 42.6732 188.803 42.3798C188.26 42.1158 187.101 41.7198 185.899 41.7198C184.329 41.7198 183.156 42.3798 183.156 43.3478C183.156 44.7118 185.019 44.8878 186.412 44.8878C187.512 44.8878 187.864 44.7265 188.436 44.7265C188.876 44.7265 189.184 44.9172 189.184 45.1958C189.184 45.6358 188.275 45.8705 186.383 45.8705C184.549 45.8705 182.437 45.2545 182.437 43.5385C182.437 42.3652 183.64 41.2065 186.119 41.2065C187.453 41.2065 188.509 41.4705 189.199 41.6318C189.389 41.6905 189.404 41.6465 189.301 41.4998C189.052 41.1332 188.451 40.3852 187.893 39.3438C186.852 39.5932 185.635 39.7545 184.344 39.7545C182.291 39.7545 181.704 38.4785 183.303 37.3638L183.552 37.5838C182.643 38.3905 182.833 38.9772 184.461 38.9772C185.517 38.9772 186.559 38.8158 187.497 38.5665C187.219 37.9945 186.94 37.3492 186.661 36.6598C185.899 36.8505 185.092 36.9678 184.388 36.9678C183.376 36.9678 182.569 36.8505 181.807 35.5745L182.012 35.4132C182.731 35.9558 183.171 36.2345 184.329 36.2345C184.857 36.2345 185.649 36.1025 186.383 35.9265C186.221 35.5305 186.089 35.1345 185.943 34.7385C185.825 34.4012 185.693 34.2398 185.239 34.2105C184.989 34.1958 184.74 34.2105 184.491 34.2252ZM201.196 44.7558C201.401 44.7558 201.607 44.7412 201.797 44.7265C201.607 43.5972 200.888 43.0105 200.052 43.0105C199.539 43.0105 199.143 43.3185 199.143 43.7878C199.143 44.3012 199.773 44.7558 201.196 44.7558ZM198.013 34.3865L198.277 34.3425C198.468 34.7678 198.659 35.2078 199.04 35.2078C199.627 35.2078 201.475 34.7385 202.135 34.5478C202.457 34.4452 202.501 34.2985 202.707 34.2985C203.147 34.2985 203.953 34.9145 203.953 35.3105C203.953 35.5892 203.616 35.6038 203.103 36.0585C202.355 36.6745 200.404 38.5665 199.744 39.2998C199.641 39.3878 199.7 39.5052 199.817 39.4465C200.492 39.1972 201.357 38.9332 202.34 38.9332C204.247 38.9332 205.875 40.1798 205.831 42.2185C205.801 44.0518 204.159 45.5625 201.387 45.5625C199.744 45.5625 198.629 44.9025 198.629 43.8465C198.629 43.0692 199.319 42.4678 200.272 42.4678C201.328 42.4678 202.428 43.1425 202.663 44.5798C204.129 44.1692 204.863 43.1425 204.892 41.9985C204.936 40.7078 203.953 39.4172 202.149 39.4172C200.037 39.4172 198.556 40.7372 197.324 42.3212C197.104 42.5998 196.987 42.6878 196.767 42.6732C196.591 42.6732 196.371 42.4532 196.385 42.0865C196.4 41.8225 196.532 41.6172 196.869 41.2798C199.172 38.8745 201.827 36.3518 202.443 35.3692C202.575 35.1492 202.487 35.0905 202.311 35.1198C201.841 35.2225 200.565 35.6772 199.935 35.9265C199.656 36.0438 199.451 36.2638 199.216 36.2638C198.659 36.2638 198.116 35.6332 197.999 35.2078C197.94 34.9732 197.955 34.6652 198.013 34.3865ZM213.633 34.3132H209.776L209.659 33.8732H212.24L212.856 33.0958C212.856 33.0958 213.575 33.6532 214.015 34.0785C213.971 34.2398 213.839 34.3132 213.633 34.3132ZM212.856 35.7212L213.487 34.9145C213.487 34.9145 214.205 35.5012 214.645 35.9265C214.616 36.0732 214.469 36.1465 214.264 36.1465H209.16L209.043 35.7212H212.856ZM209.703 37.5838H212.475L213.047 36.8652C213.047 36.8652 213.707 37.3785 214.103 37.7745C214.073 37.9358 213.941 38.0092 213.736 38.0092H209.82L209.703 37.5838ZM213.736 39.8865H209.82L209.703 39.4612H212.475L213.047 38.7278C213.047 38.7278 213.707 39.2558 214.103 39.6518C214.073 39.8132 213.941 39.8865 213.736 39.8865ZM210.612 44.5358H212.797V41.7785H210.612V44.5358ZM213.164 40.7958L214.293 41.6612C214.205 41.7785 213.985 41.8958 213.692 41.9398V45.3278C213.677 45.4305 213.223 45.6505 212.915 45.6505H212.797V44.9758H210.612V45.9878C210.612 46.0905 210.245 46.2958 209.864 46.2958H209.732V40.8985L210.685 41.3385H212.651L213.164 40.7958ZM215.892 38.5372H217.843V36.5718H215.892V38.5372ZM217.843 34.2252H215.892V36.1612H217.843V34.2252ZM220.835 34.2252H218.781V36.1612H220.835V34.2252ZM218.781 38.5372H220.835V36.5718H218.781V38.5372ZM222.287 41.0012H219.148C219.999 42.4972 221.495 43.7732 222.844 44.4038L222.829 44.5505C222.433 44.6238 222.111 44.9172 221.964 45.4305C220.659 44.4772 219.5 42.9225 218.811 41.0012H218.781V45.9732C218.781 46.0465 218.473 46.2958 217.989 46.2958H217.843V42.1158C216.948 43.5972 215.628 44.7998 213.927 45.7092L213.765 45.4892C215.335 44.3305 216.508 42.7318 217.197 41.0012H214.411L214.293 40.5758H217.843V38.9625H215.892V39.4905C215.892 39.5785 215.511 39.7838 215.144 39.7838H214.997V33.3452L215.965 33.7998H220.688L221.216 33.2278L222.389 34.1078C222.287 34.2252 222.052 34.3572 221.759 34.4158V39.1385C221.744 39.2265 221.275 39.4612 220.981 39.4612H220.835V38.9625H218.781V40.5758H220.805L221.451 39.7252C221.451 39.7252 222.213 40.3265 222.668 40.7812C222.639 40.9278 222.477 41.0012 222.287 41.0012ZM235.208 35.9852H231.893V37.4812H235.208V35.9852ZM231.893 41.3825H235.208V39.8425H231.893V41.3825ZM235.208 39.4318V37.9212H231.893V39.4318H235.208ZM233.081 34.2105H230.397L230.28 33.7852H235.443L236.073 32.9785C236.073 32.9785 236.821 33.5505 237.276 33.9758C237.232 34.1372 237.1 34.2105 236.895 34.2105H234.064C233.873 34.6505 233.639 35.1638 233.419 35.5598H235.091L235.575 35.0318L236.631 35.8532C236.543 35.9412 236.352 36.0292 236.132 36.0732V41.9692C236.117 42.0718 235.677 42.2918 235.355 42.2918H235.208V41.8078H231.893V42.1158C231.893 42.2185 231.512 42.4385 231.116 42.4385H230.984V35.0905L231.967 35.5598H232.847C232.92 35.1345 233.023 34.6212 233.081 34.2105ZM233.888 42.5118L234.005 42.2772C238.039 43.2452 236.777 45.2252 236.044 44.4185C235.765 43.7878 235.032 43.0985 233.888 42.5118ZM229.825 44.6092L229.679 44.4185C230.691 43.8758 231.747 42.8785 232.216 42.1892L233.507 42.7758C233.433 42.9372 233.228 42.9812 232.861 42.9372C232.216 43.5238 230.999 44.2572 229.825 44.6092ZM228.652 34.1372H225.675V35.6332H228.652V34.1372ZM225.675 37.5692H228.652V36.0438H225.675V37.5692ZM225.675 37.9945V38.3172C225.675 38.4198 225.279 38.6252 224.897 38.6252H224.765V33.2572L225.748 33.6972H228.505L229.019 33.1252L230.192 34.0198C230.089 34.1372 229.869 34.2545 229.561 34.3278V38.2145C229.547 38.3025 229.077 38.5078 228.769 38.5078H228.652V37.9945H225.675ZM227.684 42.1305V44.4332C228.901 44.9318 230.471 45.0345 232.553 45.0345C233.624 45.0345 236.103 45.0345 237.261 45.0198V45.2105C236.88 45.2838 236.675 45.5772 236.645 45.9438H232.495C228.799 45.9438 226.775 45.4305 225.411 42.9078C225.132 44.1838 224.648 45.4452 223.797 46.3252L223.621 46.1345C224.443 44.8145 224.765 42.6292 224.809 40.8252L226.188 40.9718C226.159 41.1918 225.997 41.3238 225.66 41.3532C225.616 41.7198 225.557 42.1012 225.484 42.4972C225.851 43.1132 226.276 43.5825 226.775 43.9345V39.7985H223.871L223.768 39.3732H228.96L229.591 38.5958C229.591 38.5958 230.265 39.1532 230.705 39.5785C230.661 39.7252 230.529 39.7985 230.324 39.7985H227.684V41.7198H228.828L229.415 40.9572C229.415 40.9572 230.045 41.5145 230.441 41.9105C230.412 42.0718 230.265 42.1305 230.06 42.1305H227.684Z" fill="#111111" fill-opacity="0.6"/>
</g>
<g clip-path="url(#clip1_2_7)">
<path d="M278.91 17.7133C274.665 17.7133 271.337 14.5987 271.337 9.92667C271.337 5.04133 274.835 1.756 279.209 1.756C283.539 1.756 286.846 4.87067 286.846 9.54267C286.846 14.428 283.305 17.7133 278.91 17.7133ZM273.214 9.35067C273.214 13.7027 275.817 17.052 279.294 17.052C282.494 17.052 284.969 14.3 284.969 10.1187C284.969 5.74533 282.345 2.41733 278.867 2.41733C275.667 2.41733 273.214 5.16933 273.214 9.35067ZM292.483 17.628C290.776 17.628 289.731 16.5187 289.731 14.3V9.052C289.731 8.04933 289.347 7.72933 288.408 7.644V7.26C289.198 7.26 290.072 7.17467 290.968 7.04667H291.352C291.224 7.87867 291.224 8.88133 291.224 9.90533V13.9587C291.224 15.7933 292.078 16.604 293.443 16.604C294.339 16.604 295.278 16.0493 296.174 15.2813V9.052C296.174 8.04933 295.79 7.72933 294.595 7.644V7.26C295.64 7.26 296.515 7.17467 297.411 7.04667H297.795C297.667 7.87867 297.667 8.88133 297.667 9.90533V15.5373C297.667 16.7107 297.859 16.9027 298.99 16.9027V17.2867C298.072 17.3507 297.24 17.4787 296.43 17.7133H296.046L296.195 15.9427C295.171 16.86 294.019 17.628 292.483 17.628ZM300.266 17.116C301.375 17.0307 301.674 16.9453 301.674 16.1133V9.90533C301.674 8.62533 301.29 8.26267 300.436 8.11333V7.72933C301.29 7.62267 302.186 7.36667 302.911 7.04667H303.295L303.146 9.052C303.359 8.75333 303.594 8.43333 303.871 8.17733C304.532 7.516 305.343 7.04667 306.346 7.04667C306.9 7.04667 307.263 7.388 307.263 7.9C307.263 8.39067 306.879 8.75333 306.388 8.75333C305.812 8.75333 305.514 8.39067 305.087 8.39067C304.49 8.39067 303.722 8.924 303.167 9.82V16.1133C303.167 16.9453 303.487 17.0307 305.002 17.116V17.5H300.266V17.116ZM317.739 17.7133C315.777 17.7133 314.625 16.9667 314.241 16.9667C314.027 16.9667 313.921 17.0947 313.814 17.5H313.43L312.939 13.148H313.43C314.305 15.7293 315.627 17.0947 317.782 17.0947C319.894 17.0947 321.345 15.836 321.345 14.044C321.345 12.6573 320.491 11.5267 318.294 10.588L317.035 10.0547C314.539 8.988 313.665 7.516 313.665 5.95867C313.665 3.484 315.542 1.756 317.889 1.756C319.595 1.756 320.513 2.50267 320.897 2.50267C321.11 2.50267 321.195 2.37467 321.302 1.96933H321.686L322.113 5.87333H321.622C320.854 3.612 319.51 2.37467 317.846 2.37467C316.267 2.37467 314.945 3.356 314.945 5.084C314.945 6.38533 315.521 7.452 317.889 8.45467L319.147 8.988C321.643 10.0547 322.625 11.5053 322.625 13.212C322.625 15.7933 320.534 17.7133 317.739 17.7133ZM329.235 17.7133C326.675 17.7133 324.563 15.7507 324.563 12.444C324.563 9.32933 326.632 7.04667 329.491 7.04667C331.923 7.04667 333.459 8.54 333.416 11.164H326.077C326.056 11.356 326.056 11.5693 326.056 11.7827C326.056 14.7693 327.784 16.5827 329.896 16.5827C331.325 16.5827 332.627 15.6653 333.48 14.0867L333.843 14.2787C332.904 16.5613 331.091 17.7133 329.235 17.7133ZM326.163 10.5667H331.261C331.688 10.5667 331.795 10.4387 331.795 10.012C331.795 8.83867 330.984 7.62267 329.32 7.62267C327.763 7.62267 326.525 8.64667 326.163 10.5667ZM335.099 17.116C336.208 17.0307 336.507 16.9453 336.507 16.1133V9.90533C336.507 8.62533 336.123 8.26267 335.27 8.11333V7.72933C336.123 7.62267 337.019 7.36667 337.744 7.04667H338.128L337.979 9.052C338.192 8.75333 338.427 8.43333 338.704 8.17733C339.366 7.516 340.176 7.04667 341.179 7.04667C341.734 7.04667 342.096 7.388 342.096 7.9C342.096 8.39067 341.712 8.75333 341.222 8.75333C340.646 8.75333 340.347 8.39067 339.92 8.39067C339.323 8.39067 338.555 8.924 338 9.82V16.1133C338 16.9453 338.32 17.0307 339.835 17.116V17.5H335.099V17.116ZM344.293 9.244C343.824 8.092 343.525 7.75067 342.629 7.644V7.26H346.938V7.644C345.466 7.708 345.424 8.07067 345.722 8.88133L348.368 15.7933L350.864 9.372C351.226 8.43333 351.162 7.75067 349.818 7.644V7.26H353.402V7.644C352.57 7.75067 352.016 8.30533 351.589 9.41467L348.41 17.5H347.536L344.293 9.244ZM354.056 17.116C355.251 17.0307 355.55 16.9453 355.55 16.1133V9.90533C355.55 8.62533 355.166 8.26267 354.227 8.11333V7.72933C355.166 7.62267 356.062 7.36667 356.787 7.04667H357.171C357.043 7.9 357.043 8.88133 357.043 9.90533V16.1133C357.043 16.9453 357.342 17.0307 358.536 17.116V17.5H354.056V17.116ZM355.08 3.164C355.08 2.588 355.528 2.14 356.104 2.14C356.659 2.14 357.128 2.588 357.128 3.164C357.128 3.74 356.659 4.188 356.104 4.188C355.528 4.188 355.08 3.74 355.08 3.164ZM364.738 17.7133C362.093 17.7133 359.917 15.6867 359.917 12.508C359.917 9.28667 362.136 7.04667 365.229 7.04667C367.405 7.04667 368.941 8.30533 368.941 9.20133C368.941 9.628 368.642 9.92667 368.216 9.92667C367.832 9.92667 367.618 9.692 367.362 9.20133C366.829 8.156 366.061 7.62267 364.952 7.62267C362.989 7.62267 361.432 9.116 361.432 11.74C361.432 14.748 363.224 16.5827 365.4 16.5827C366.936 16.5827 368.301 15.6227 369.176 14.044L369.538 14.236C368.578 16.6253 366.616 17.7133 364.738 17.7133ZM375.485 17.7133C372.925 17.7133 370.813 15.7507 370.813 12.444C370.813 9.32933 372.882 7.04667 375.741 7.04667C378.173 7.04667 379.709 8.54 379.666 11.164H372.327C372.306 11.356 372.306 11.5693 372.306 11.7827C372.306 14.7693 374.034 16.5827 376.146 16.5827C377.575 16.5827 378.877 15.6653 379.73 14.0867L380.093 14.2787C379.154 16.5613 377.341 17.7133 375.485 17.7133ZM372.413 10.5667H377.511C377.938 10.5667 378.045 10.4387 378.045 10.012C378.045 8.83867 377.234 7.62267 375.57 7.62267C374.013 7.62267 372.775 8.64667 372.413 10.5667Z" fill="#111111"/>
<path d="M278.713 37.5985V38.6692C282.057 39.9305 281.412 41.9838 280.415 41.3092C280.165 40.5758 279.403 39.6225 278.713 38.9772V45.9878C278.713 46.0758 278.391 46.3252 277.921 46.3252H277.775V39.7838C277.056 41.2798 276.088 42.6145 274.856 43.7145L274.665 43.5092C275.985 41.9105 276.968 39.7398 277.511 37.5985H274.9L274.797 37.1732H277.775V34.7092C276.851 34.8998 275.868 35.0758 274.944 35.1785L274.856 34.9292C276.719 34.4892 279.021 33.6092 280.18 32.9492L281.368 33.9612C281.236 34.1078 280.957 34.1078 280.62 33.9758C280.077 34.1518 279.432 34.3278 278.713 34.4892V37.1732H279.799L280.488 36.2932C280.488 36.2932 281.251 36.9238 281.735 37.3638C281.691 37.5252 281.544 37.5985 281.339 37.5985H278.713ZM284.829 39.9745L285.064 39.8865C289.229 43.9345 288.628 46.9705 287.425 45.9292C287.323 45.3572 287.117 44.6972 286.853 44.0078C285.328 44.3892 283.304 44.8585 280.591 45.4305C280.503 45.6212 280.356 45.7092 280.195 45.7385L279.681 44.3892C280.136 44.3598 280.796 44.3012 281.617 44.2278C282.453 40.7225 283.363 35.7652 283.685 33.2718L285.343 33.6532C285.313 33.8292 285.137 34.0492 284.785 34.0785C284.272 36.4838 283.201 40.8398 281.955 44.1985C283.289 44.0812 284.976 43.9052 286.736 43.7145C286.193 42.3945 285.431 41.0158 284.829 39.9745ZM296.68 38.9332L296.592 38.5812C297.281 38.3025 298.279 38.0532 299.247 38.0532C300.215 38.0532 300.875 38.2438 301.227 38.4052C301.564 38.5812 301.755 38.8012 301.755 39.0505C301.755 39.3145 301.505 39.3878 301.153 39.4172C300.889 39.4465 300.669 39.4905 300.288 39.6518C299.833 39.8132 299.144 40.1652 298.645 40.4145L298.455 40.1505C298.953 39.8278 299.804 39.2705 299.995 39.0798C300.112 38.9918 300.068 38.9185 299.936 38.8745C299.584 38.7425 299.085 38.6985 298.645 38.6985C298 38.6985 297.325 38.7865 296.68 38.9332ZM293.145 34.1518L293.175 33.8145C293.483 33.7412 293.747 33.6972 294.099 33.7118C294.627 33.7412 295.551 34.0932 295.565 34.4305C295.565 34.6798 295.36 35.0465 295.184 35.6038C295.111 35.8678 295.023 36.2345 294.905 36.6452C295.683 36.3812 296.299 36.1025 296.753 35.8678C296.973 35.7505 297.135 35.6625 297.252 35.6625C297.501 35.6625 297.883 35.8092 297.883 36.0732C297.883 36.3518 297.721 36.4985 297.179 36.7332C296.841 36.8798 295.697 37.2905 294.641 37.5545C294.436 38.2732 294.187 39.0652 293.923 39.7692C293.233 41.7492 292.295 44.1105 291.664 45.1372C291.459 45.4745 291.312 45.6065 291.019 45.6065C290.769 45.6065 290.593 45.3425 290.593 45.0052C290.593 44.6825 290.725 44.5505 290.945 44.1545C291.693 43.0398 292.515 41.5732 293.233 39.5198C293.424 38.9772 293.615 38.3612 293.791 37.7452C293.263 37.8478 292.647 37.9212 292.104 37.9212C291.253 37.9212 290.549 37.5985 290.065 36.4838L290.315 36.2932C290.945 36.8505 291.385 37.1292 292.104 37.1292C292.793 37.1292 293.453 37.0265 294.011 36.8945C294.201 36.1318 294.333 35.4425 294.377 34.9878C294.407 34.6652 294.333 34.5332 294.069 34.4012C293.776 34.2985 293.453 34.2105 293.145 34.1518ZM295.404 42.0572L295.756 42.0132C295.844 42.4385 295.976 42.9665 296.255 43.4065C296.768 44.1985 297.663 44.5358 298.924 44.5358C300.391 44.5358 300.86 44.2572 301.285 44.2572C301.623 44.2572 302.004 44.4185 302.004 44.7558C302.004 45.0492 301.623 45.2105 301.197 45.2985C300.743 45.4012 300.083 45.4892 299.232 45.4892C297.531 45.4892 296.181 44.9758 295.727 43.6852C295.477 43.1278 295.419 42.5705 295.404 42.0572ZM307.709 34.1665L307.695 33.8438C308.017 33.7705 308.325 33.6972 308.619 33.6972C309.279 33.6972 310.129 34.1372 310.129 34.4745C310.129 34.7678 309.836 34.8558 309.719 35.3105C309.616 35.6332 309.528 36.0145 309.396 36.5278C310.379 36.3518 311.332 36.0585 311.948 35.7505C312.491 35.4718 312.784 35.2812 313.019 35.2812C313.327 35.2812 313.752 35.3838 313.752 35.7358C313.752 35.9852 313.356 36.2345 312.828 36.4398C312.227 36.6598 310.804 37.1145 309.191 37.3492C308.897 38.4932 308.399 40.2825 308.179 41.1038C308.091 41.4412 308.091 41.5145 308.413 41.2505C309.777 40.2092 311.083 39.5198 312.623 39.5198C314.779 39.5198 315.791 40.8252 315.791 42.3065C315.791 44.9465 312.036 45.9878 308.692 45.7678L308.648 45.4012C309.777 45.3572 310.745 45.1958 311.523 44.9758C314.119 44.2718 314.793 43.0985 314.793 42.0572C314.793 40.7665 313.781 40.0185 312.564 40.0185C310.936 40.0185 309.308 41.2798 308.252 42.4825C308.032 42.7318 307.812 43.2892 307.533 43.2892C307.24 43.2892 306.917 42.7465 306.917 42.2918C306.917 42.0572 307.02 41.9985 307.24 41.4705C307.548 40.6785 308.105 38.5958 308.384 37.4372C308.061 37.4665 307.739 37.4812 307.416 37.4812C306.184 37.4812 305.744 37.3638 304.908 35.8825L305.172 35.6918C306.023 36.5132 306.609 36.7185 307.563 36.7185C307.871 36.7185 308.208 36.7038 308.56 36.6598C308.721 35.9118 308.868 35.1345 308.883 34.8118C308.912 34.5185 308.824 34.4452 308.589 34.3718C308.355 34.2838 308.076 34.2252 307.709 34.1665ZM325.251 36.9385C325.251 36.4105 325.089 36.0292 324.84 35.5892C323.813 35.7945 322.816 36.3078 322.068 37.0412C321.129 37.9505 320.557 39.1385 320.557 40.4292C320.557 41.8372 321.203 42.9078 321.804 42.9078C322.772 42.9078 324.121 40.5905 324.723 39.1972C325.001 38.4932 325.251 37.5985 325.251 36.9385ZM325.001 45.2252L324.943 44.8878C328.536 44.2572 330.267 42.4092 330.267 39.7545C330.267 37.1438 328.331 35.4718 325.911 35.4718C325.735 35.4718 325.559 35.4865 325.383 35.5012C325.72 35.9705 326.013 36.4838 326.013 37.0558C326.013 37.7598 325.852 38.5812 325.559 39.4172C324.943 41.1772 323.241 44.0225 321.745 44.0225C320.763 44.0225 319.736 42.4678 319.736 40.6638C319.736 39.1825 320.44 37.6572 321.687 36.5425C322.889 35.4718 324.4 34.9732 325.969 34.9732C328.991 34.9732 331.323 36.9532 331.323 39.9892C331.323 42.4238 329.797 44.9172 325.001 45.2252ZM341.824 35.8532H339.301V37.8038H341.824V35.8532ZM341.824 40.2385V38.2438H339.301V40.2385H341.824ZM341.824 42.7758V40.6785H339.301V42.7758H341.824ZM338.363 44.1985V36.8212C337.864 37.4078 337.336 37.9212 336.793 38.3465L336.588 38.1852C337.659 36.9532 338.788 34.9292 339.477 32.8465L340.944 33.4332C340.871 33.5945 340.695 33.6972 340.372 33.6678C340.093 34.2692 339.771 34.8558 339.419 35.3985L339.492 35.4278H341.853C342.073 34.6945 342.323 33.7118 342.455 32.9932L344.009 33.3305C343.965 33.5065 343.804 33.6385 343.481 33.6385C343.188 34.1812 342.748 34.8558 342.279 35.4278H344.611L345.285 34.5918C345.285 34.5918 346.048 35.1785 346.532 35.6185C346.488 35.7798 346.341 35.8532 346.136 35.8532H342.748V37.8038H344.391L345.021 37.0118C345.021 37.0118 345.755 37.5692 346.209 38.0092C346.18 38.1705 346.033 38.2438 345.828 38.2438H342.748V40.2385H344.391L345.021 39.4465C345.021 39.4465 345.755 40.0038 346.209 40.4438C346.18 40.6052 346.033 40.6785 345.828 40.6785H342.748V42.7758H344.816L345.52 41.9105C345.52 41.9105 346.297 42.5118 346.781 42.9665C346.752 43.1278 346.605 43.2012 346.4 43.2012H339.301V43.8758C339.301 43.9492 338.993 44.1985 338.524 44.1985H338.363ZM333.728 33.4332L333.889 33.3158C337.395 34.5038 336.617 36.9092 335.532 36.1172C335.341 35.2078 334.476 34.0785 333.728 33.4332ZM336.339 39.6958V43.6412C337.38 44.8292 338.524 45.0052 341.076 45.0052C342.836 45.0052 345.183 45.0052 346.972 44.9465V45.1518C346.561 45.2252 346.297 45.5038 346.253 45.9438H341.091C338.392 45.9438 337.189 45.6065 336.148 43.9345C335.62 44.5798 334.769 45.4452 334.241 45.9292C334.285 46.1052 334.212 46.1932 334.095 46.2665L333.405 45.0932C333.889 44.8585 334.681 44.4038 335.429 43.9492V39.5638H333.537L333.464 39.1385H335.239L335.796 38.3758L337.057 39.4318C336.955 39.5345 336.735 39.6518 336.339 39.6958ZM354.349 39.7252C354.804 38.8598 355.185 37.9212 355.464 37.0705C354.261 37.1292 353.205 37.4372 352.193 38.1998C352.34 38.7425 352.545 39.3438 352.824 39.8718C353.044 40.2825 353.323 40.6345 353.616 40.9132C353.895 40.5465 354.144 40.1358 354.349 39.7252ZM352.105 42.5852C352.413 42.3652 352.736 42.0278 353.059 41.6465C352.633 41.1772 352.296 40.6052 352.047 40.0772C351.856 39.6518 351.68 39.1972 351.548 38.7718C350.521 39.8132 349.964 41.1772 349.964 42.0278C349.964 42.8492 350.257 43.1865 350.668 43.1865C351.255 43.1865 351.621 42.9665 352.105 42.5852ZM356.769 35.7505L356.535 36.5132C359.116 36.7772 360.641 38.5812 360.641 40.7958C360.641 43.0838 359.175 45.2985 354.012 45.6065L353.939 45.2545C358.485 44.5065 359.6 42.4678 359.6 40.5758C359.6 38.8452 358.295 37.2905 356.344 37.0852C356.051 37.9358 355.684 38.9038 355.053 40.0918C354.775 40.6052 354.525 41.0598 354.276 41.4412C354.364 41.4852 354.437 41.5438 354.525 41.5878C354.804 41.7345 355.053 41.9252 355.053 42.2185C355.053 42.4825 354.863 42.5998 354.599 42.5998C354.305 42.5998 353.953 42.4092 353.704 42.2185C353.337 42.6585 352.956 43.0105 352.516 43.3478C351.929 43.8025 351.269 44.1838 350.433 44.1838C349.583 44.1838 349.201 43.3185 349.201 42.4238C349.201 40.4145 350.551 38.8158 351.343 38.1412C351.24 37.7892 351.137 37.4518 351.035 37.1732C350.844 36.6158 350.389 36.1612 349.7 35.5745L349.891 35.3692C350.243 35.4718 350.609 35.6185 350.873 35.7945C351.211 36.0145 351.724 36.3372 351.885 36.9825C351.929 37.1585 351.988 37.3932 352.047 37.6278C352.956 37.0265 354.056 36.5278 355.64 36.4838C355.787 35.9265 355.904 35.4132 355.948 35.0172C355.977 34.6798 355.816 34.5918 355.552 34.5185C355.288 34.4452 355.009 34.4158 354.657 34.4158L354.628 34.1078C354.863 34.0052 355.2 33.9025 355.479 33.9025C356.153 33.9025 357.121 34.4745 357.121 34.8558C357.121 35.1492 356.901 35.3545 356.769 35.7505ZM374.149 35.6772L374.883 34.7532C374.883 34.7532 375.733 35.3985 376.232 35.8678C376.188 36.0292 376.071 36.0878 375.851 36.0878H368.767C368.693 37.0412 368.605 37.9358 368.459 38.7865H372.712L373.299 38.1852L374.413 39.1238C374.311 39.2412 374.135 39.3145 373.812 39.3585C373.651 42.4385 373.255 45.0345 372.536 45.6945C372.125 46.0905 371.509 46.2958 370.791 46.2812C370.791 45.9878 370.717 45.7092 370.468 45.5772C370.204 45.4012 369.383 45.2252 368.693 45.1078V44.8585C369.485 44.9318 370.893 45.0638 371.26 45.0638C371.568 45.0638 371.7 45.0345 371.876 44.8732C372.375 44.4625 372.697 42.0425 372.844 39.2265H368.371C367.755 42.3358 366.361 44.6825 363.032 46.3252L362.9 46.1345C366.493 43.6998 367.432 40.4292 367.608 36.0878H362.929L362.812 35.6772H368.987V32.8465L370.497 33.0078C370.468 33.2132 370.321 33.3598 369.969 33.4038V35.6772H374.149Z" fill="#111111" fill-opacity="0.6"/>
</g>
<g clip-path="url(#clip2_2_7)">
<path d="M414.3 17.116C415.836 17.0307 416.135 16.8813 416.135 16.028V3.44133C416.135 2.588 415.836 2.43867 414.3 2.35333V1.96933H419.634V2.35333C418.098 2.43867 417.799 2.588 417.799 3.44133V16.028C417.799 16.8813 418.098 17.0307 419.634 17.116V17.5H414.3V17.116ZM427.637 17.116C428.661 17.0307 428.96 16.9453 428.96 16.1133V10.8013C428.96 8.96667 428.107 8.156 426.741 8.156C425.845 8.156 424.907 8.64667 424.011 9.308V16.1133C424.011 16.9453 424.309 17.0307 425.333 17.116V17.5H421.109V17.116C422.219 17.0307 422.517 16.9453 422.517 16.1133V9.90533C422.517 8.62533 422.133 8.26267 421.28 8.11333V7.72933C422.091 7.62267 423.029 7.36667 423.755 7.04667H424.139L423.989 8.64667C425.035 7.836 426.187 7.132 427.701 7.132C429.408 7.132 430.453 8.24133 430.453 10.46V16.1133C430.453 16.9453 430.752 17.0307 431.861 17.116V17.5H427.637V17.116ZM436.397 17.7133C435.138 17.7133 434.2 17.052 434.2 15.4307V8.17733H432.962V7.75067C434.264 7.28133 434.818 6.236 435.288 4.956H435.672V7.26H439.149L439 8.17733H435.672V15.004C435.672 16.3053 436.354 16.6893 437.25 16.6893C437.912 16.6893 438.552 16.4333 439.128 16.0707L439.362 16.3907C438.509 17.2227 437.421 17.7133 436.397 17.7133ZM445.037 17.7133C442.477 17.7133 440.365 15.7507 440.365 12.444C440.365 9.32933 442.434 7.04667 445.293 7.04667C447.725 7.04667 449.261 8.54 449.218 11.164H441.879C441.858 11.356 441.858 11.5693 441.858 11.7827C441.858 14.7693 443.586 16.5827 445.698 16.5827C447.127 16.5827 448.429 15.6653 449.282 14.0867L449.645 14.2787C448.706 16.5613 446.893 17.7133 445.037 17.7133ZM441.965 10.5667H447.063C447.49 10.5667 447.597 10.4387 447.597 10.012C447.597 8.83867 446.786 7.62267 445.122 7.62267C443.565 7.62267 442.327 8.64667 441.965 10.5667ZM450.901 17.116C452.01 17.0307 452.309 16.9453 452.309 16.1133V9.90533C452.309 8.62533 451.925 8.26267 451.072 8.11333V7.72933C451.925 7.62267 452.821 7.36667 453.546 7.04667H453.93L453.781 9.052C453.994 8.75333 454.229 8.43333 454.506 8.17733C455.168 7.516 455.978 7.04667 456.981 7.04667C457.536 7.04667 457.898 7.388 457.898 7.9C457.898 8.39067 457.514 8.75333 457.024 8.75333C456.448 8.75333 456.149 8.39067 455.722 8.39067C455.125 8.39067 454.357 8.924 453.802 9.82V16.1133C453.802 16.9453 454.122 17.0307 455.637 17.116V17.5H450.901V17.116ZM460.095 9.244C459.626 8.092 459.327 7.75067 458.431 7.644V7.26H462.74V7.644C461.268 7.708 461.226 8.07067 461.524 8.88133L464.17 15.7933L466.666 9.372C467.028 8.43333 466.964 7.75067 465.62 7.644V7.26H469.204V7.644C468.372 7.75067 467.818 8.30533 467.391 9.41467L464.212 17.5H463.338L460.095 9.244ZM469.858 17.116C471.053 17.0307 471.352 16.9453 471.352 16.1133V9.90533C471.352 8.62533 470.968 8.26267 470.029 8.11333V7.72933C470.968 7.62267 471.864 7.36667 472.589 7.04667H472.973C472.845 7.9 472.845 8.88133 472.845 9.90533V16.1133C472.845 16.9453 473.144 17.0307 474.338 17.116V17.5H469.858V17.116ZM470.882 3.164C470.882 2.588 471.33 2.14 471.906 2.14C472.461 2.14 472.93 2.588 472.93 3.164C472.93 3.74 472.461 4.188 471.906 4.188C471.33 4.188 470.882 3.74 470.882 3.164ZM480.391 17.7133C477.831 17.7133 475.719 15.7507 475.719 12.444C475.719 9.32933 477.788 7.04667 480.647 7.04667C483.079 7.04667 484.615 8.54 484.572 11.164H477.234C477.212 11.356 477.212 11.5693 477.212 11.7827C477.212 14.7693 478.94 16.5827 481.052 16.5827C482.482 16.5827 483.783 15.6653 484.636 14.0867L484.999 14.2787C484.06 16.5613 482.247 17.7133 480.391 17.7133ZM477.319 10.5667H482.418C482.844 10.5667 482.951 10.4387 482.951 10.012C482.951 8.83867 482.14 7.62267 480.476 7.62267C478.919 7.62267 477.682 8.64667 477.319 10.5667ZM493.408 9.244C492.96 8.092 492.662 7.75067 491.851 7.644V7.26H496.075V7.644C494.582 7.708 494.539 8.07067 494.859 8.88133L497.44 15.772L499.872 9.372C500.235 8.43333 500.171 7.75067 498.827 7.644V7.26H502.411V7.644C501.579 7.75067 501.024 8.30533 500.598 9.41467L497.462 17.5H496.608L493.899 10.524L491.211 17.5H490.336L487.158 9.244C486.71 8.092 486.39 7.75067 485.494 7.644V7.26H489.718V7.644C488.352 7.708 488.288 8.07067 488.587 8.88133L491.19 15.7933L493.536 9.564L493.408 9.244Z" fill="#111111"/>
<path d="M421.888 34.2252L421.991 33.9465C422.328 33.9612 422.636 33.9758 422.944 34.1078C423.516 34.2985 424.162 34.9438 424.162 35.3252C424.162 35.6038 423.898 35.5745 423.502 36.0145C422.959 36.6158 422.24 37.4078 421.272 38.3318C421.683 38.5958 422.02 38.8452 422.02 39.0505C422.02 39.2412 421.888 39.4465 421.888 39.8132C421.786 41.9398 421.859 44.1838 421.859 45.0638C421.859 45.6065 421.727 45.7825 421.419 45.7825C420.935 45.7825 420.686 45.0785 420.686 44.5945C420.686 44.3305 420.803 44.0372 420.862 43.5532C420.979 42.5558 421.038 40.1065 420.994 39.4465C420.979 39.1825 420.935 39.0065 420.774 38.8012C419.85 39.6078 417.84 41.2212 415.274 42.2772L415.083 41.9252C418.794 39.8572 421.331 37.1732 422.358 35.7212C422.636 35.3398 422.754 35.0905 422.754 34.9732C422.754 34.7385 422.504 34.5332 421.888 34.2252ZM430.835 35.4572L431.011 35.1492C432.683 35.6185 434.707 36.6158 434.707 37.7452C434.707 38.0678 434.502 38.2878 434.194 38.2878C433.959 38.2878 433.768 38.1265 433.387 37.6718C432.683 36.8212 432.126 36.3078 430.835 35.4572ZM432.287 43.5385C433.416 43.5385 438.784 39.6518 440.867 36.5278L441.204 36.7478C439.444 39.8718 436.716 42.2185 433.504 44.2718C433.211 44.4478 433.05 44.8145 432.727 44.8145C432.155 44.8145 431.275 44.1252 430.982 43.6852C430.835 43.4358 430.703 42.9665 430.674 42.7318L430.908 42.5852C431.348 43.0692 431.818 43.5385 432.287 43.5385ZM452.82 36.5865C452.893 36.3958 452.82 36.3518 452.658 36.3518C452.145 36.3958 450.781 36.6158 450.268 36.7332C449.96 36.8065 449.666 36.9092 449.461 36.9092C449.314 36.9092 449.124 36.8065 448.918 36.6598C448.464 37.2612 447.965 37.8625 447.437 38.4198C448.61 38.8745 449.857 39.4465 450.781 40.0332C451.72 38.8598 452.424 37.6718 452.82 36.5865ZM449.314 36.1025H449.461C450.165 36.1025 452.057 35.8532 452.453 35.7652C452.864 35.6918 452.952 35.4278 453.201 35.4278C453.568 35.4278 454.448 36.0585 454.448 36.4398C454.448 36.7185 453.949 36.8212 453.773 37.1878C453.113 38.4052 452.38 39.5198 451.544 40.5612C452.438 41.2358 453.186 41.9838 453.186 42.5412C453.201 42.8638 453.01 43.0692 452.702 43.0692C452.292 43.0838 452.028 42.4385 450.913 41.2945C449.182 43.1865 447.056 44.7265 444.328 45.8412L444.122 45.5038C446.498 44.3012 448.654 42.5412 450.253 40.6785C449.373 39.9012 448.346 39.2412 447.158 38.6985C446.278 39.5638 445.296 40.3265 444.269 40.8985L444.034 40.5905C446.293 38.9625 448.786 35.6038 448.786 34.7532C448.786 34.4892 448.405 34.2692 447.892 34.0492L447.965 33.7705C448.229 33.7558 448.522 33.7558 448.845 33.8292C449.432 33.9612 450.165 34.3865 450.165 34.6652C450.165 34.9145 449.945 35.0465 449.74 35.4278C449.608 35.6478 449.461 35.8825 449.314 36.1025ZM465.961 36.6452L466.181 36.4545C466.46 36.4985 466.665 36.5718 466.87 36.7038C467.266 36.9825 467.692 37.5252 467.692 37.8332C467.692 38.1265 467.31 38.2145 466.753 38.5078C465.712 39.0212 463.644 39.9745 461.224 40.6638C461.194 41.5438 461.18 42.3212 461.18 42.7025C461.18 44.1398 461.502 44.2425 463.262 44.2425C465.58 44.2425 466.577 43.7732 467.076 43.7732C467.765 43.7732 468.205 43.9345 468.205 44.2718C468.205 44.5652 468 44.6972 467.721 44.7998C467.12 44.9758 465.653 45.1518 463.365 45.1518C460.74 45.1518 460.358 44.7118 460.344 42.6438C460.329 41.3385 460.505 36.5132 460.432 35.8238C460.373 35.4132 460.05 35.3252 459.288 35.2225L459.273 34.9585C459.61 34.8705 459.992 34.7532 460.314 34.7678C460.916 34.7972 461.766 35.3545 461.766 35.7065C461.766 35.9852 461.488 36.0438 461.444 36.4985C461.37 37.1292 461.297 38.6692 461.238 40.0772C463.233 39.3732 465.198 38.4052 466.137 37.6865C466.386 37.4958 466.43 37.3785 466.313 37.1292C466.24 36.9532 466.093 36.7772 465.961 36.6452ZM466.87 35.0612L467.076 34.8118C467.809 35.1345 468.352 35.4865 468.718 35.8385C469.056 36.1905 469.217 36.4398 469.202 36.7185C469.202 36.9678 469.026 37.1438 468.806 37.1145C468.586 37.0998 468.454 36.7625 468.161 36.3958C467.868 35.9998 467.472 35.5305 466.87 35.0612ZM468.132 33.9612L468.322 33.7118C469.056 34.0052 469.613 34.3132 469.965 34.6212C470.346 34.9438 470.478 35.2225 470.464 35.5305C470.464 35.7798 470.332 35.9118 470.112 35.9118C469.877 35.8972 469.73 35.5598 469.422 35.1785C469.1 34.8118 468.777 34.4452 468.132 33.9612ZM475.729 38.6692L475.905 38.5958C476.14 38.8305 476.521 39.1385 476.814 39.1385C477.372 39.1385 479.146 38.8305 479.674 38.7132C479.924 38.6545 480.07 38.3905 480.276 38.3905C480.584 38.3905 481.522 38.9625 481.522 39.2558C481.522 39.5345 481.185 39.6372 481.097 39.9452C480.936 40.4878 480.569 42.0278 480.305 43.0985C480.672 43.0692 481.024 43.0545 481.332 43.0398C481.86 43.0252 482.021 42.9225 482.153 42.9225C482.652 42.9225 483.59 43.3772 483.59 43.7732C483.59 44.0078 483.444 44.1398 483.209 44.1398C482.872 44.1398 482.021 43.8612 480.774 43.8172C479.586 43.7732 477.269 44.0078 476.184 44.2718C475.714 44.3892 475.465 44.5652 475.186 44.5652C474.834 44.5652 474.277 44.0225 474.145 43.7438C474.057 43.5678 474.028 43.4065 473.998 43.0692L474.189 43.0252C474.438 43.3038 474.732 43.5678 475.128 43.5678C475.538 43.5678 477.562 43.3332 479.425 43.1718C479.66 41.9398 479.982 40.1065 480.07 39.4758C480.07 39.3878 480.026 39.3438 479.938 39.3438C479.601 39.3438 478.105 39.7105 477.577 39.8718C477.298 39.9598 477.108 40.1212 476.858 40.1212C476.55 40.1212 476.037 39.6812 475.846 39.3145C475.744 39.1238 475.729 38.8598 475.729 38.6692ZM487.521 39.0505L487.814 38.9625C488.137 39.4612 488.372 39.9158 488.988 39.9158C490.293 39.9158 495.426 39.5785 496.101 39.5492C497.084 39.4758 497.494 39.3878 497.876 39.3878C498.433 39.3878 499.093 39.6372 499.093 40.0332C499.093 40.2972 498.946 40.4585 498.448 40.4585C497.934 40.4585 497.421 40.4292 496.526 40.4292C495.602 40.4292 491.481 40.6492 490.381 40.7812C489.545 40.8692 489.384 41.0892 488.958 41.0892C488.548 41.0892 487.858 40.3705 487.653 39.8718C487.55 39.5932 487.536 39.3438 487.521 39.0505Z" fill="#111111" fill-opacity="0.6"/>
</g>
<g clip-path="url(#clip3_2_7)">
<path d="M539.289 17.116C540.867 17.0093 541.251 16.5827 541.251 14.9187V4.55067C541.251 2.88666 540.867 2.46 539.289 2.35333V1.96933H542.851L551.811 14.876V4.55067C551.811 2.88666 551.449 2.46 549.251 2.35333V1.96933H554.499V2.35333C552.899 2.46 552.537 2.88666 552.537 4.55067V17.5H551.662L541.955 3.612V14.9187C541.955 16.5827 542.339 17.0093 544.537 17.116V17.5H539.289V17.116ZM560.297 17.7133C557.737 17.7133 555.625 15.7507 555.625 12.444C555.625 9.32933 557.694 7.04667 560.553 7.04667C562.985 7.04667 564.521 8.54 564.479 11.164H557.14C557.118 11.356 557.118 11.5693 557.118 11.7827C557.118 14.7693 558.846 16.5827 560.959 16.5827C562.388 16.5827 563.689 15.6653 564.542 14.0867L564.905 14.2787C563.967 16.5613 562.153 17.7133 560.297 17.7133ZM557.225 10.5667H562.324C562.75 10.5667 562.857 10.4387 562.857 10.012C562.857 8.83867 562.047 7.62267 560.382 7.62267C558.825 7.62267 557.588 8.64667 557.225 10.5667ZM573.314 9.244C572.866 8.092 572.568 7.75067 571.757 7.644V7.26H575.981V7.644C574.488 7.708 574.445 8.07067 574.765 8.88133L577.347 15.772L579.779 9.372C580.141 8.43333 580.077 7.75067 578.733 7.644V7.26H582.317V7.644C581.485 7.75067 580.931 8.30533 580.504 9.41467L577.368 17.5H576.515L573.805 10.524L571.117 17.5H570.242L567.064 9.244C566.616 8.092 566.296 7.75067 565.4 7.644V7.26H569.624V7.644C568.258 7.708 568.194 8.07067 568.493 8.88133L571.096 15.7933L573.443 9.564L573.314 9.244ZM586.05 17.7133C584.92 17.7133 583.896 17.4573 583.277 17.18L583.021 14.748H583.448C584.045 16.3907 584.898 17.1373 586.242 17.1373C587.501 17.1373 588.44 16.3693 588.44 15.3027C588.44 14.428 587.885 13.7453 586.477 13.1267L585.73 12.8067C583.938 12.0387 583.384 11.036 583.384 9.92667C583.384 8.22 584.642 7.04667 586.52 7.04667C587.416 7.04667 588.205 7.23867 588.952 7.516L589.144 9.67067H588.717C588.184 8.284 587.352 7.62267 586.37 7.62267C585.453 7.62267 584.536 8.22 584.536 9.244C584.536 10.0547 584.856 10.6733 586.456 11.3773L587.202 11.6973C588.973 12.4653 589.592 13.468 589.592 14.5987C589.592 16.4547 588.162 17.7133 586.05 17.7133Z" fill="#111111"/>
<path d="M540.522 44.0078V41.7638C539.818 42.2332 539.07 42.8785 538.454 43.4505C538.997 43.7292 539.657 44.0665 540.111 44.2718C540.419 44.4038 540.522 44.2865 540.522 44.0078ZM541.182 40.0332V40.6638C542.414 40.0332 543.763 39.5345 545.245 39.5345C546.931 39.5345 548.134 40.5905 548.134 42.2185C548.134 43.7145 547.005 44.9318 545.157 44.9318C544.115 44.9318 543.162 44.4772 542.399 43.4652L542.634 43.2305C543.221 43.6998 543.954 44.1105 544.951 44.1105C546.403 44.1105 547.21 43.1865 547.21 42.0278C547.21 40.9278 546.506 40.0772 544.937 40.0772C543.719 40.0772 542.355 40.6932 541.197 41.3532C541.255 43.3478 541.417 43.8905 541.417 44.4185C541.417 45.0785 541.021 45.7532 540.581 45.7532C540.243 45.7532 540.214 45.2985 539.745 44.8732C539.422 44.5945 538.718 44.0665 538.175 43.7145C537.735 44.1252 537.545 44.2425 537.339 44.2425C537.178 44.2425 537.017 44.1398 536.87 43.9932C536.679 43.8025 536.606 43.6118 536.606 43.3918C536.606 43.0545 536.694 42.9372 537.017 42.9665C537.413 43.0252 537.603 42.9518 537.853 42.8052C538.395 42.4825 539.539 41.5878 540.522 41.0305V40.1798V38.1998C539.994 38.3318 539.334 38.4638 538.909 38.4638C538.19 38.4638 537.574 38.3318 536.973 36.9972L537.222 36.8065C537.97 37.5398 538.19 37.6865 538.967 37.6572C539.378 37.6425 539.935 37.5545 540.522 37.3932C540.522 36.3078 540.537 35.3252 540.522 34.9732C540.522 34.6505 540.463 34.5918 540.229 34.5185C539.979 34.4305 539.686 34.4158 539.305 34.4158L539.261 34.1372C539.569 33.9758 539.921 33.8585 540.287 33.8585C540.845 33.8585 541.783 34.3278 541.783 34.6798C541.783 35.0318 541.563 35.2518 541.461 35.7212C541.387 36.0292 541.329 36.5425 541.285 37.1585C542.429 36.7332 542.913 36.2492 543.221 36.2345C543.485 36.2345 543.866 36.2932 543.881 36.6158C543.881 36.8652 543.719 37.0412 543.411 37.1878C542.869 37.4665 541.945 37.7745 541.241 37.9945C541.197 38.6545 541.182 39.3585 541.182 40.0332ZM544.966 36.0732L544.937 35.6918C545.67 35.5452 546.242 35.5012 546.887 35.6185C548.017 35.8385 549.073 36.8065 549.117 37.7305C549.131 38.0238 549.029 38.2732 548.75 38.3025C548.413 38.3758 548.281 37.9945 547.811 38.0825C547.562 38.1118 546.99 38.3758 546.682 38.5225L546.521 38.2585C546.814 38.0678 547.489 37.6572 547.694 37.4518C547.855 37.2758 547.87 37.1585 547.709 36.9238C547.122 36.1025 545.993 35.9998 544.966 36.0732ZM556.01 39.0798L556.685 38.2292C556.685 38.2292 557.447 38.8305 557.931 39.2852C557.887 39.4465 557.741 39.5198 557.535 39.5198H554.734C554.705 40.0625 554.631 40.6345 554.499 41.2065C558.137 43.0398 557.477 45.2398 556.421 44.4918C556.127 43.5825 555.218 42.4092 554.426 41.5585C553.971 43.2745 552.974 44.9905 550.818 46.2812L550.657 46.0905C553.018 44.0958 553.663 41.7492 553.81 39.5198H550.818L550.715 39.0798H553.825C553.839 38.8452 553.839 38.6252 553.839 38.3905V35.9118H552.651C552.153 36.8505 551.566 37.6425 550.906 38.2585L550.701 38.1265C551.537 36.8358 552.241 34.8998 552.593 32.9052L554.133 33.3158C554.074 33.4918 553.913 33.6238 553.575 33.6238C553.385 34.2692 553.15 34.8998 552.871 35.4718H555.57L556.245 34.6505C556.245 34.6505 556.978 35.2078 557.477 35.6772C557.447 35.8385 557.301 35.9118 557.095 35.9118H554.778V38.3758C554.778 38.6105 554.778 38.8452 554.763 39.0798H556.01ZM559.163 44.0518H562.463V35.2225H559.163V44.0518ZM562.859 34.1665L564.033 35.1052C563.959 35.2225 563.71 35.3398 563.417 35.3985V45.2692C563.402 45.3718 562.933 45.6358 562.61 45.6358H562.463V44.4772H559.163V45.4745C559.163 45.5918 558.826 45.8265 558.386 45.8265H558.21V34.2985L559.222 34.7972H562.317L562.859 34.1665ZM571.894 35.1932C571.513 34.7238 570.706 34.3718 569.797 34.1078L569.885 33.7852C571.249 33.9172 572.011 34.2692 572.525 34.6212C573.155 35.0612 573.361 35.4865 573.361 35.9998C573.361 36.3665 573.199 36.5572 572.891 36.5572C572.51 36.5572 572.407 36.4545 571.762 36.4692C570.926 36.4985 569.914 36.7332 569.547 36.8212C569.313 36.8798 569.239 36.9825 569.239 37.1292C569.239 37.2905 569.415 37.6865 569.415 37.9798C569.43 38.3465 569.269 38.7278 569.137 39.2412C568.99 39.9158 568.785 40.6785 568.785 41.3972C568.785 41.5585 568.873 41.5878 568.99 41.4852C570.618 40.1212 572.363 39.3732 573.889 39.3732C576.089 39.3732 577.145 40.8105 577.145 42.2772C577.145 44.9172 573.229 45.9878 569.87 45.7825L569.826 45.4158C570.867 45.3718 571.938 45.1958 572.613 45.0052C575.326 44.2718 576.118 43.0838 576.118 42.0132C576.118 40.7078 575.091 39.8865 573.83 39.8865C572.187 39.8865 570.442 41.1772 569.298 42.4825C569.078 42.7318 568.902 43.1865 568.623 43.1865C568.447 43.1865 568.301 43.0838 568.125 42.8785C567.949 42.6878 567.831 42.3945 567.831 42.2038C567.831 41.9692 567.934 41.6318 567.978 41.2652C568.081 40.3852 568.345 39.1092 568.462 38.3905C568.565 37.7745 568.506 37.3932 568.506 37.0705C568.506 36.7625 568.638 36.5132 569.107 36.3958C569.87 36.1905 571.293 35.8825 571.879 35.6625C572.099 35.5892 572.129 35.4425 571.894 35.1932ZM587.319 34.5038L587.305 34.2105C587.642 34.0932 587.935 33.9758 588.229 33.9758C588.933 33.9758 589.798 34.5332 589.798 34.9292C589.798 35.1785 589.519 35.2665 589.505 35.7798C589.475 36.2345 589.461 36.8212 589.431 37.5105C590.561 37.2905 591.47 37.1292 591.793 37.1292C592.394 37.1292 592.922 37.3492 592.922 37.8038C592.922 38.0972 592.702 38.1705 592.291 38.1705C591.719 38.1705 591.191 38.0825 590.165 38.1705C589.93 38.1998 589.681 38.2292 589.402 38.2732C589.358 39.3145 589.27 40.5758 589.109 41.2358C588.962 41.9105 588.639 42.3212 588.111 42.3212C587.906 42.3212 587.789 42.2772 587.627 41.9985C587.407 41.5585 586.762 41.3092 586.175 41.0598L586.278 40.7372C586.923 40.9278 587.642 41.1185 587.891 41.1185C588.111 41.1185 588.258 41.0598 588.361 40.7665C588.478 40.2972 588.566 39.2265 588.595 38.4052C587.158 38.6692 585.471 39.0652 584.43 39.3438C584.415 40.6198 584.386 41.9985 584.401 42.6732C584.459 44.2425 584.767 44.4332 586.747 44.4332C588.551 44.4332 589.651 44.0665 590.121 44.0665C590.605 44.0665 591.001 44.2425 591.001 44.5945C591.001 44.8878 590.825 45.0052 590.385 45.1078C589.798 45.2398 588.507 45.3425 586.982 45.3425C584.87 45.3425 583.726 44.8878 583.653 43.2305C583.609 42.4238 583.623 40.9865 583.609 39.5932C581.849 40.1358 581.247 40.5318 580.851 40.5318C580.441 40.5318 579.883 40.0185 579.663 39.4758C579.575 39.2998 579.59 39.0212 579.59 38.7425L579.81 38.6545C580.045 39.0505 580.411 39.4758 580.763 39.4758C581.101 39.4758 582.641 39.0798 583.609 38.8305C583.623 37.8185 583.623 36.9092 583.579 36.4838C583.55 36.0585 583.462 35.9705 583.227 35.8825C583.007 35.7945 582.655 35.7798 582.377 35.7505L582.362 35.4425C582.641 35.3545 582.963 35.2518 583.345 35.2518C583.887 35.2518 584.826 35.7358 584.826 36.1172C584.826 36.3812 584.591 36.4398 584.547 37.0118C584.503 37.3638 584.489 37.9505 584.459 38.6252C585.427 38.3905 587.275 37.9505 588.61 37.6718C588.625 36.7772 588.625 35.6185 588.581 35.0318C588.566 34.7972 588.449 34.6798 588.199 34.6212C587.965 34.5625 587.671 34.5332 587.319 34.5038Z" fill="#111111" fill-opacity="0.6"/>
</g>
<defs>
<clipPath id="clip0_2_7">
<rect width="103" height="47.6667" fill="white" transform="translate(135 0.5)"/>
</clipPath>
<clipPath id="clip1_2_7">
<rect width="111" height="47.6667" fill="white" transform="translate(270 0.5)"/>
</clipPath>
<clipPath id="clip2_2_7">
<rect width="90" height="47.6667" fill="white" transform="translate(413 0.5)"/>
</clipPath>
<clipPath id="clip3_2_7">
<rect width="59" height="47.6667" fill="white" transform="translate(535 0.5)"/>
</clipPath>
</defs>
</svg>
