<svg width="383" height="117" viewBox="0 0 383 117" fill="none" xmlns="http://www.w3.org/2000/svg">
<path d="M5.208 18.824L5.808 18.8C5.856 21.968 6.576 24.224 11.904 24.224C15.912 24.224 17.664 23.264 18.312 23.264C19.008 23.264 19.92 23.648 19.92 24.296C19.92 24.848 19.68 25.088 18.864 25.376C17.688 25.76 15.48 26.144 12.312 26.144C5.928 26.144 4.224 23.144 5.208 18.824ZM9.12 14.768L8.832 14.312C9.96 13.568 11.376 12.584 12.216 12.008C12.456 11.816 12.432 11.744 12.096 11.744C9.384 11.744 7.56 11.528 6.048 9.416L6.36 9.032C7.992 10.088 9.096 10.304 11.016 10.304C13.944 10.304 14.52 9.776 15.504 9.776C16.488 9.776 17.904 10.304 17.904 10.976C17.904 11.456 17.616 11.696 16.944 11.816C16.248 11.96 15.48 12.056 14.376 12.44C13.104 12.872 10.92 13.88 9.12 14.768ZM35.448 12.416C35.448 11.576 35.16 10.904 34.752 10.256C33.12 10.616 31.512 11.456 30.312 12.68C28.824 14.192 27.936 16.04 27.936 18.104C27.936 20.288 28.92 22.04 29.904 22.04C31.416 22.04 33.6 18.392 34.536 16.304C35.04 15.08 35.448 13.568 35.448 12.416ZM35.088 26.192L34.992 25.664C40.92 24.512 43.608 21.416 43.608 17.096C43.608 12.8 40.536 10.04 36.576 10.04C36.288 10.04 36 10.064 35.688 10.088C36.312 10.856 36.888 11.792 36.888 12.776C36.888 13.952 36.624 15.368 36.12 16.76C35.112 19.688 32.352 24.272 29.76 24.272C28.056 24.272 26.352 21.608 26.352 18.584C26.352 16.232 27.504 13.616 29.664 11.744C31.608 10.016 34.08 9.176 36.744 9.176C41.856 9.176 45.696 12.584 45.696 17.576C45.696 21.704 42.984 25.736 35.088 26.192ZM66.264 18.392L67.632 16.736C67.632 16.736 69.144 17.864 70.104 18.704C70.032 18.968 69.768 19.088 69.432 19.088H59.4C58.32 21.056 56.856 23.384 55.56 25.04C58.32 24.896 61.752 24.68 65.4 24.44C64.488 23.144 63.384 21.896 62.376 20.96L62.64 20.768C70.848 24.032 69.456 29.288 67.056 27.608C66.792 26.768 66.336 25.856 65.736 24.968C62.568 25.592 58.32 26.312 52.44 27.2C52.296 27.488 52.032 27.656 51.792 27.704L50.616 25.256C51.576 25.232 52.92 25.184 54.552 25.088C55.368 23.36 56.28 20.912 56.808 19.088H50.28L50.064 18.392H66.264ZM62.256 14.096L63.552 12.512C63.552 12.512 64.992 13.592 65.904 14.408C65.856 14.672 65.592 14.792 65.256 14.792H54.24L54.072 14.096H62.256ZM58.704 5.696L62.112 6.512C62.016 6.8 61.704 6.944 61.056 6.992C63.192 9.824 67.368 12.224 71.256 13.472L71.208 13.832C70.296 14.072 69.648 14.912 69.456 15.68C65.664 13.904 62.232 10.712 60.648 7.28C58.464 10.64 53.64 14.264 49.008 16.088L48.816 15.752C52.92 13.544 57.528 8.96 58.704 5.696ZM80.688 9.392L82.536 11.288C82.32 11.456 82.008 11.528 81.456 11.552C80.832 12.848 79.92 14.168 78.816 15.44C83.616 16.784 82.488 19.976 80.784 18.944C80.472 18.008 79.56 16.88 78.696 16.04V27.296C78.696 27.464 78.072 27.944 77.136 27.944H76.8V17.504C75.552 18.656 74.184 19.664 72.768 20.456L72.48 20.168C75.384 17.888 78.12 14.288 79.392 11.216H73.296L73.08 10.496H76.776V5.936L79.488 6.2C79.44 6.536 79.224 6.776 78.6 6.872V10.496H79.512L80.688 9.392ZM91.776 26.144L93 24.488C93 24.488 94.44 25.64 95.28 26.456C95.208 26.72 94.968 26.84 94.656 26.84H80.52L80.352 26.144H86.64V14.96H82.056L81.864 14.24H86.64V5.984L89.496 6.272C89.448 6.632 89.232 6.872 88.632 6.968V14.24H91.176L92.376 12.656C92.376 12.656 93.768 13.76 94.608 14.576C94.56 14.84 94.32 14.96 93.984 14.96H88.632V26.144H91.776ZM103.296 17.168L103.872 17.432C103.416 18.704 102.456 21.344 102.144 22.208C101.928 23.024 101.808 23.528 101.808 23.912C101.808 24.68 102.168 25.448 102.168 26.096C102.168 26.648 101.88 27.008 101.328 27.008C100.848 27.008 100.44 26.6 100.056 26.024C99.336 25.016 98.64 22.832 98.64 20.312C98.64 17.648 99.36 15.104 99.768 13.664C100.08 12.512 100.344 11.624 100.368 10.76C100.368 9.824 99.792 8.984 99 8.072L99.36 7.784C99.96 8 100.296 8.144 100.776 8.528C101.328 8.936 102.504 10.184 102.504 11.312C102.504 11.864 102.144 12.32 101.568 13.664C100.92 15.08 99.936 17.552 99.936 20.024C99.936 21.128 100.08 21.776 100.32 22.232C100.464 22.544 100.68 22.568 100.896 22.232C101.424 21.416 102.72 18.392 103.296 17.168ZM112.2 22.088V21.992C111.456 21.8 110.616 21.704 109.704 21.704C108.264 21.704 106.728 22.304 106.728 23.408C106.728 24.44 107.808 24.872 109.152 24.872C111.72 24.872 112.2 23.936 112.2 22.088ZM113.424 14.288V14.528C113.424 16.928 113.616 19.16 113.76 20.888C115.704 21.416 117 22.352 117.744 23.072C118.248 23.528 118.512 24.008 118.512 24.464C118.512 25.04 118.248 25.376 117.768 25.376C117.36 25.376 117.048 25.064 116.496 24.56C115.68 23.768 114.84 23.12 113.88 22.64C113.904 22.832 113.904 23.024 113.904 23.192C113.904 25.16 112.68 26.432 109.656 26.432C107.52 26.432 105.744 25.4 105.744 23.552C105.744 21.44 107.952 20.48 110.592 20.48C111.144 20.48 111.672 20.504 112.152 20.576C112.08 18.896 111.936 16.496 111.912 14.552C111.048 14.672 110.16 14.744 109.32 14.744C107.832 14.744 106.776 14.456 105.504 12.368L105.84 12.056C106.872 12.8 107.904 13.256 109.152 13.256C110.16 13.256 111.072 13.16 111.912 12.992C111.912 11.84 111.912 10.592 111.912 10.016C111.912 9.344 111.792 9.224 111.432 9.104C110.952 8.96 110.352 8.864 109.728 8.816L109.68 8.36C110.208 8.096 110.976 7.76 111.552 7.76C112.752 7.76 114.072 8.48 114.072 9.056C114.072 9.584 113.856 9.752 113.688 10.736C113.592 11.216 113.52 11.888 113.472 12.632C113.904 12.488 114.264 12.368 114.552 12.248C115.776 11.816 116.184 11.528 116.4 11.528C116.976 11.528 117.816 11.84 117.816 12.392C117.816 12.944 117.456 13.136 116.592 13.472C115.968 13.688 114.792 14.024 113.424 14.288ZM135.12 10.088C136.512 10.76 136.944 11.36 136.944 12.104C136.944 12.536 136.632 12.992 136.104 12.992C135.504 13.016 135.192 12.68 134.448 12.128C132.552 10.808 130.752 10.016 127.512 9.104L127.608 8.6C130.728 8.816 133.536 9.344 135.12 10.088ZM126.744 14.96L126.864 14.456C130.008 14.576 132.432 15.248 133.656 15.8C134.64 16.232 135.24 16.76 135.24 17.552C135.24 18.032 134.928 18.44 134.352 18.44C133.944 18.44 133.56 18.152 132.84 17.696C131.472 16.88 129.816 15.968 126.744 14.96ZM125.784 21.512L125.928 20.984C130.008 21.272 133.968 22.448 135.888 23.648C136.824 24.248 137.328 24.896 137.328 25.496C137.328 26.024 137.064 26.456 136.32 26.456C135.72 26.456 135.096 25.904 134.232 25.256C131.496 23.36 129.216 22.52 125.784 21.512ZM154.019 16.064C153.707 15.416 153.227 14.552 152.771 14.024L153.035 13.784C153.755 14.12 154.307 14.432 154.883 14.912C155.747 15.584 156.347 16.4 156.347 17.384C156.347 18.008 155.891 18.32 155.411 18.32C154.571 18.32 154.595 17.312 154.019 16.064ZM161.723 17C159.899 20.984 156.179 25.184 150.299 27.224L150.035 26.816C156.251 23.624 160.163 17.312 160.163 15.296C160.163 14.888 159.779 14.576 158.915 14.192L159.011 13.856C159.347 13.832 159.803 13.76 160.211 13.808C161.195 13.928 162.467 15.08 162.467 15.776C162.467 16.208 162.011 16.448 161.723 17ZM149.843 17.432C149.459 16.568 149.027 15.896 148.547 15.32L148.835 15.056C149.507 15.344 150.155 15.824 150.563 16.16C151.643 16.976 152.267 17.888 152.267 18.776C152.267 19.328 151.955 19.736 151.379 19.736C150.515 19.736 150.491 18.728 149.843 17.432ZM176.579 11.048C175.715 10.304 174.755 9.632 174.035 9.248L174.275 8.72C175.139 8.912 176.243 9.176 177.395 9.608C179.027 10.304 179.963 11.096 179.963 12.128C179.963 12.632 179.603 13.064 179.099 13.064C178.307 13.064 177.851 12.104 176.579 11.048ZM173.987 23.72C175.955 23.72 184.739 18.248 189.011 12.536L189.515 12.872C186.875 17.696 181.715 22.112 176.411 25.088C175.859 25.424 175.595 26.096 174.899 26.096C174.059 26.096 172.523 25.064 171.947 24.2C171.635 23.744 171.443 22.808 171.419 22.376L171.779 22.16C172.379 22.88 173.147 23.72 173.987 23.72ZM173.603 15.872C172.643 15.056 171.803 14.48 170.867 13.976L171.083 13.472C172.235 13.712 173.147 13.928 174.299 14.336C175.835 14.888 176.939 15.776 176.939 16.856C176.939 17.288 176.675 17.744 176.075 17.744C175.211 17.744 174.803 16.832 173.603 15.872ZM197.375 14.36L197.687 14.264C198.071 14.696 198.479 15.128 199.031 15.128C200.231 15.128 204.815 14.648 205.895 14.504C206.519 14.408 206.687 14 207.119 14C207.719 14 209.423 15.128 209.423 15.776C209.423 16.232 208.799 16.424 208.703 17C208.463 18.344 207.983 21.368 207.623 23.456C208.199 23.672 208.727 24.152 208.727 24.488C208.727 24.92 208.415 25.16 208.055 25.16C207.623 25.16 206.543 24.944 205.655 24.944C204.095 24.944 201.719 25.232 200.327 25.472C199.823 25.592 199.319 25.856 198.959 25.856C198.311 25.856 197.447 24.848 197.255 24.344C197.135 24.104 197.039 23.696 197.039 23.288L197.303 23.12C197.735 23.576 198.118 24.032 198.791 24.032C199.967 24.032 203.903 23.6 205.991 23.432C206.087 22.496 206.231 21.296 206.351 20.096C204.359 20.24 202.103 20.528 200.807 20.72C200.231 20.816 199.919 21.056 199.559 21.056C199.055 21.056 198.287 20.264 198.047 19.784C197.903 19.496 197.807 19.064 197.783 18.728L198.071 18.584C198.479 18.968 198.935 19.352 199.463 19.352C200.207 19.352 204.215 18.896 206.495 18.728C206.639 17.552 206.735 16.52 206.807 16.016C206.831 15.872 206.759 15.824 206.615 15.824C205.271 15.824 202.199 16.184 200.567 16.52C199.967 16.664 199.511 16.952 199.103 16.952C198.503 16.952 197.639 15.92 197.495 15.392C197.398 15.056 197.375 14.672 197.375 14.36ZM219.599 9.944L219.887 9.464C222.791 10.112 226.271 11.672 226.271 13.712C226.271 14.36 225.839 14.816 225.239 14.816C224.735 14.816 224.351 14.504 223.751 13.736C222.599 12.296 221.783 11.432 219.599 9.944ZM222.047 23.144C224.111 23.144 233.063 16.736 236.495 11.744L237.023 12.08C234.167 17.24 229.727 21.2 224.399 24.584C223.847 24.92 223.559 25.568 222.983 25.568C221.927 25.568 220.415 24.368 219.911 23.576C219.671 23.12 219.455 22.304 219.431 21.824L219.791 21.584C220.463 22.328 221.255 23.144 222.047 23.144ZM253.415 16.88C253.415 18.176 252.359 19.232 251.062 19.232C249.767 19.232 248.711 18.176 248.711 16.88C248.711 15.584 249.767 14.528 251.062 14.528C252.359 14.528 253.415 15.584 253.415 16.88ZM278.111 11.792L278.423 11.504C278.999 11.6 279.407 11.744 279.815 12.032C280.583 12.56 281.255 13.496 281.255 14.024C281.255 14.528 280.607 14.672 279.695 15.128C277.847 16.016 274.535 17.456 270.575 18.584C270.527 19.976 270.503 21.2 270.503 21.824C270.503 24.08 270.983 24.272 273.791 24.272C277.487 24.272 279.287 23.48 280.031 23.48C281.327 23.48 282.119 23.792 282.119 24.44C282.119 25.04 281.759 25.304 281.231 25.472C280.151 25.808 277.679 26.096 274.079 26.096C269.519 26.096 268.895 25.304 268.847 21.848C268.823 19.328 269.111 11.6 268.943 10.592C268.847 9.968 268.271 9.776 267.071 9.56L267.047 9.176C267.623 9.008 268.343 8.72 268.919 8.744C270.023 8.792 271.511 9.848 271.511 10.472C271.511 10.976 271.055 11.12 270.959 11.864C270.815 12.896 270.695 15.32 270.599 17.576C273.743 16.4 276.815 14.84 278.327 13.616C278.711 13.28 278.807 13.088 278.639 12.656C278.519 12.32 278.279 12.008 278.111 11.792ZM279.671 9.272L279.983 8.888C281.231 9.368 282.191 9.896 282.815 10.52C283.367 11.048 283.607 11.456 283.607 11.936C283.583 12.368 283.271 12.68 282.863 12.656C282.503 12.608 282.239 12.128 281.807 11.528C281.327 10.88 280.727 10.088 279.671 9.272ZM281.783 7.496L282.071 7.112C283.319 7.52 284.279 8 284.879 8.504C285.503 9.032 285.719 9.488 285.695 10.016C285.695 10.448 285.455 10.688 285.071 10.688C284.663 10.664 284.399 10.16 283.895 9.56C283.415 8.96 282.887 8.336 281.783 7.496ZM306.263 12.224C305.903 12.224 305.639 11.768 305.159 11.168C304.679 10.52 304.031 9.704 302.975 8.84L303.287 8.456C304.535 8.936 305.567 9.488 306.167 10.088C306.743 10.64 306.983 11.048 306.983 11.504C306.983 11.936 306.671 12.224 306.263 12.224ZM308.783 10.304C308.375 10.304 308.087 9.824 307.583 9.224C307.079 8.624 306.503 7.976 305.399 7.112L305.687 6.728C306.959 7.136 307.919 7.64 308.543 8.144C309.143 8.648 309.431 9.104 309.431 9.608C309.431 10.04 309.167 10.304 308.783 10.304ZM295.823 11.432C294.959 10.688 293.999 10.016 293.279 9.632L293.519 9.104C294.383 9.296 295.487 9.56 296.639 9.992C298.271 10.688 299.207 11.48 299.207 12.512C299.207 13.016 298.847 13.448 298.343 13.448C297.551 13.448 297.095 12.488 295.823 11.432ZM293.23 24.104C295.199 24.104 303.983 18.632 308.255 12.92L308.759 13.256C306.119 18.08 300.959 22.496 295.655 25.472C295.103 25.808 294.839 26.48 294.143 26.48C293.303 26.48 291.767 25.448 291.191 24.584C290.879 24.128 290.687 23.192 290.663 22.76L291.023 22.544C291.623 23.264 292.391 24.104 293.23 24.104ZM292.847 16.256C291.887 15.44 291.047 14.864 290.111 14.36L290.327 13.856C291.479 14.096 292.391 14.312 293.543 14.72C295.079 15.272 296.183 16.16 296.183 17.24C296.183 17.672 295.919 18.128 295.319 18.128C294.455 18.128 294.047 17.216 292.847 16.256ZM316.906 14.36L317.218 14.264C317.602 14.696 318.01 15.128 318.562 15.128C319.762 15.128 324.346 14.648 325.426 14.504C326.05 14.408 326.218 14 326.65 14C327.25 14 328.954 15.128 328.954 15.776C328.954 16.232 328.33 16.424 328.234 17C327.994 18.344 327.514 21.368 327.154 23.456C327.73 23.672 328.258 24.152 328.258 24.488C328.258 24.92 327.946 25.16 327.586 25.16C327.154 25.16 326.074 24.944 325.186 24.944C323.626 24.944 321.25 25.232 319.858 25.472C319.354 25.592 318.85 25.856 318.49 25.856C317.842 25.856 316.978 24.848 316.786 24.344C316.666 24.104 316.57 23.696 316.57 23.288L316.834 23.12C317.266 23.576 317.65 24.032 318.322 24.032C319.498 24.032 323.434 23.6 325.522 23.432C325.618 22.496 325.762 21.296 325.882 20.096C323.89 20.24 321.634 20.528 320.338 20.72C319.762 20.816 319.45 21.056 319.09 21.056C318.586 21.056 317.818 20.264 317.578 19.784C317.434 19.496 317.338 19.064 317.314 18.728L317.602 18.584C318.01 18.968 318.466 19.352 318.994 19.352C319.738 19.352 323.746 18.896 326.026 18.728C326.17 17.552 326.266 16.52 326.338 16.016C326.362 15.872 326.29 15.824 326.146 15.824C324.802 15.824 321.73 16.184 320.098 16.52C319.498 16.664 319.042 16.952 318.634 16.952C318.034 16.952 317.17 15.92 317.026 15.392C316.93 15.056 316.906 14.672 316.906 14.36ZM339.13 9.944L339.418 9.464C342.322 10.112 345.802 11.672 345.802 13.712C345.802 14.36 345.37 14.816 344.77 14.816C344.266 14.816 343.882 14.504 343.282 13.736C342.13 12.296 341.314 11.432 339.13 9.944ZM341.578 23.144C343.642 23.144 352.594 16.736 356.026 11.744L356.554 12.08C353.698 17.24 349.258 21.2 343.93 24.584C343.378 24.92 343.09 25.568 342.514 25.568C341.458 25.568 339.946 24.368 339.442 23.576C339.202 23.12 338.986 22.304 338.962 21.824L339.322 21.584C339.994 22.328 340.786 23.144 341.578 23.144ZM376.306 13.064L376.57 12.656C377.53 12.776 378.058 12.944 378.538 13.256C379.21 13.688 379.978 14.6 379.978 15.32C379.978 15.848 379.618 15.896 378.61 16.184C376.81 16.712 374.098 17.696 371.986 18.728C372.082 20.096 372.106 21.704 372.106 22.52C372.106 23.168 371.794 23.6 371.218 23.6C370.714 23.6 370.234 23.312 370.234 22.568C370.234 21.968 370.33 20.792 370.354 19.568C368.146 20.864 366.466 22.328 366.466 23.696C366.466 24.92 367.834 25.544 370.138 25.544C373.69 25.544 375.082 24.776 376.162 24.776C377.122 24.776 377.722 25.064 377.722 25.688C377.722 26.144 377.554 26.456 376.738 26.696C375.874 26.96 373.402 27.344 371.362 27.344C366.85 27.344 365.362 25.88 365.362 23.936C365.362 21.968 367.666 20 370.354 18.296C370.282 16.304 369.898 15.56 368.674 15.56C367.378 15.56 365.794 17 364.834 18.08C363.994 19.016 363.298 20.264 362.626 20.288C362.05 20.312 361.714 19.832 361.714 19.136C361.69 18.416 362.554 17.864 363.61 16.784C364.906 15.488 366.034 13.904 366.898 12.416C366.298 12.488 365.698 12.536 365.122 12.536C363.178 12.536 362.746 11.816 361.882 9.92L362.338 9.656C363.25 10.568 363.802 11.12 365.53 11.096C366.202 11.096 366.97 11 367.738 10.856C368.098 10.088 368.338 9.392 368.458 8.864C368.578 8.456 368.53 8.24 368.074 8.024C367.762 7.856 367.258 7.712 366.682 7.592L366.706 7.184C367.186 7.016 367.762 6.848 368.17 6.872C368.986 6.872 370.666 7.256 370.666 7.904C370.666 8.24 370.474 8.432 370.234 8.936C370.042 9.32 369.754 9.896 369.466 10.448C370.594 10.136 371.626 9.776 372.298 9.488C373.258 9.08 373.426 8.84 373.786 8.84C374.41 8.84 374.986 9.032 374.986 9.608C374.986 9.944 374.77 10.184 374.266 10.448C373.33 10.904 371.002 11.72 368.53 12.176C368.026 13.064 367.378 14.12 366.37 15.416C366.274 15.56 366.346 15.68 366.514 15.584C367.306 15.152 368.194 14.72 369.154 14.72C370.642 14.72 371.578 15.728 371.842 17.432C373.714 16.424 376.018 15.464 377.362 14.744C377.77 14.504 377.818 14.264 377.482 13.904C377.242 13.592 376.762 13.28 376.306 13.064ZM2.976 54.96H12.096V57H1.296V55.368C2.736 53.76 4.128 52.176 5.28 50.856C7.848 47.928 9.048 45.936 9.048 43.824C9.048 41.568 7.8 40.08 5.832 40.08C5.448 40.08 4.968 40.128 4.416 40.248L3.888 42.168C3.576 43.392 3.12 43.824 2.448 43.824C1.896 43.824 1.44 43.512 1.176 43.008C1.536 40.368 3.84 39.048 6.456 39.048C9.84 39.048 11.352 40.968 11.352 43.704C11.352 45.984 10.008 47.664 6.072 51.768C5.376 52.488 4.2 53.712 2.976 54.96ZM17.2999 57.888L16.2919 57.12C15.6199 56.64 15.3319 55.968 15.3319 55.368C15.3319 54.48 15.8839 53.76 16.8679 53.76C17.3479 53.76 17.8519 53.928 18.4279 54.48C18.6439 55.104 18.7159 55.656 18.7159 56.328C18.7159 59.376 16.2919 61.824 13.8919 62.784L13.5319 62.016C15.3799 61.08 16.7239 59.88 17.2999 57.888ZM24.4783 48.072C24.4783 54.624 26.0143 56.328 27.6943 56.328C29.3023 56.328 30.8143 54.6 30.8143 48.072C30.8143 41.76 29.3023 40.104 27.6943 40.104C26.0143 40.104 24.4783 41.76 24.4783 48.072ZM27.6943 39.048C30.4543 39.048 33.1663 41.496 33.1663 48.072C33.1663 54.864 30.4543 57.336 27.6943 57.336C24.8623 57.336 22.1503 54.864 22.1503 48.072C22.1503 41.496 24.8623 39.048 27.6943 39.048ZM37.6502 48.072C37.6502 54.624 39.1862 56.328 40.8662 56.328C42.4742 56.328 43.9862 54.6 43.9862 48.072C43.9862 41.76 42.4742 40.104 40.8662 40.104C39.1862 40.104 37.6502 41.76 37.6502 48.072ZM40.8662 39.048C43.6262 39.048 46.3382 41.496 46.3382 48.072C46.3382 54.864 43.6262 57.336 40.8662 57.336C38.0342 57.336 35.3222 54.864 35.3222 48.072C35.3222 41.496 38.0342 39.048 40.8662 39.048ZM50.8221 48.072C50.8221 54.624 52.3581 56.328 54.0381 56.328C55.6461 56.328 57.1581 54.6 57.1581 48.072C57.1581 41.76 55.6461 40.104 54.0381 40.104C52.3581 40.104 50.8221 41.76 50.8221 48.072ZM54.0381 39.048C56.7981 39.048 59.5101 41.496 59.5101 48.072C59.5101 54.864 56.7981 57.336 54.0381 57.336C51.2061 57.336 48.4941 54.864 48.4941 48.072C48.4941 41.496 51.2061 39.048 54.0381 39.048ZM70.7859 37.272L73.7139 37.584C73.6659 37.944 73.4739 38.184 72.8499 38.256C73.3779 47.208 75.5379 53.256 83.8179 56.856L83.7699 57.12C82.7619 57.264 82.0659 57.816 81.7779 58.872C75.4419 55.416 73.3779 49.824 72.6819 42.528C72.2259 48.432 70.4979 54.504 61.8579 58.92L61.5459 58.536C70.8579 52.464 70.7619 44.688 70.7859 37.272ZM92.3379 47.976L92.8659 48.216C92.3859 49.512 91.3539 52.032 91.1139 52.944C90.8739 53.736 90.7299 54.288 90.7299 54.696C90.7299 55.44 91.2099 56.232 91.2099 56.832C91.2099 57.408 90.9219 57.744 90.3699 57.744C89.8899 57.744 89.4579 57.36 89.0979 56.808C88.3779 55.752 87.6819 53.688 87.6819 51.312C87.6819 48.648 88.4259 46.488 88.8099 45.048C89.0979 43.872 89.3619 43.008 89.3859 42.12C89.4099 41.208 88.8339 40.344 88.0659 39.528L88.4259 39.216C89.0019 39.432 89.3859 39.624 89.8179 39.96C90.3939 40.392 91.5459 41.568 91.5459 42.648C91.5459 43.224 91.2099 43.68 90.6099 45.024C89.9379 46.464 89.0259 48.624 89.0259 50.904C89.0259 52.008 89.1699 52.488 89.3379 52.8C89.5059 53.112 89.6739 53.16 89.8899 52.824C90.4419 51.984 91.7619 49.176 92.3379 47.976ZM94.7139 50.304L95.2419 50.232C95.3859 50.808 95.6019 51.672 95.9139 52.224C96.7539 53.712 97.9779 54.504 100.954 54.504C103.498 54.504 104.434 54.072 104.986 54.072C105.73 54.072 106.498 54.36 106.498 54.984C106.498 56.112 104.218 56.4 101.53 56.4C97.5459 56.4 95.5539 54.96 94.9539 52.416C94.7619 51.696 94.7139 50.952 94.7139 50.304ZM95.6739 43.464L95.4819 42.912C97.3779 41.688 99.6339 41.208 101.338 41.208C102.97 41.208 103.906 41.4 104.698 41.76C105.274 42.024 105.49 42.408 105.49 42.744C105.49 43.128 105.274 43.368 104.746 43.44C104.122 43.536 103.45 43.584 102.61 43.896C101.554 44.352 99.8979 45.264 98.6739 46.008L98.2899 45.576C99.3459 44.784 100.93 43.608 101.386 43.176C101.674 42.888 101.698 42.72 100.066 42.72C99.1539 42.72 97.6899 42.84 95.6739 43.464ZM115.33 38.664V38.28C115.738 38.112 116.386 37.944 116.914 37.944C117.61 37.944 118.354 38.112 118.786 38.4C119.218 38.688 119.074 39.216 118.234 42C120.394 41.304 120.898 40.776 121.306 40.776C121.834 40.776 122.29 41.112 122.29 41.616C122.29 42.072 121.81 42.384 121.498 42.576C120.73 43.008 119.266 43.512 117.682 43.848C116.842 46.368 115.21 50.688 113.29 53.568C112.858 54.192 112.522 54.648 112.018 54.648C111.442 54.648 111.154 54.072 111.154 53.52C111.154 53.064 111.274 52.68 111.61 52.248C113.122 50.304 115.018 47.496 116.098 44.112C115.474 44.184 114.85 44.232 114.274 44.232C112.402 44.232 111.562 43.584 110.818 41.616L111.226 41.328C112.258 42.168 112.858 42.696 114.466 42.696C115.162 42.696 115.93 42.576 116.578 42.456C116.794 41.544 116.938 40.608 116.962 40.008C116.986 39.504 116.842 39.288 116.434 39.072C116.074 38.88 115.642 38.736 115.33 38.664ZM123.13 54.072C123.13 53.904 123.13 53.712 123.13 53.52C122.482 53.4 121.786 53.328 121.042 53.328C118.906 53.328 117.85 54.24 117.85 55.056C117.85 55.896 118.594 56.52 120.322 56.52C122.482 56.52 123.13 55.488 123.13 54.072ZM123.994 42.96V42.432C125.242 42.168 126.514 42.264 127.45 42.6C128.938 43.128 129.778 44.112 129.778 45.192C129.778 45.792 129.538 46.2 128.986 46.2C128.314 46.2 127.834 45.696 126.73 45.744C125.938 45.84 125.098 46.128 124.618 46.656C124.138 47.184 124.09 47.952 124.138 48.864C124.186 49.56 124.45 50.976 124.618 52.392C126.106 52.728 127.282 53.328 128.17 53.904C129.418 54.672 130.09 55.44 130.09 56.184C130.09 56.784 129.754 57.12 129.322 57.12C128.818 57.12 128.482 56.616 127.858 56.064C127.042 55.272 126.034 54.552 124.81 54.048C124.834 54.384 124.858 54.696 124.858 54.984C124.858 57 123.346 58.152 120.802 58.152C118.258 58.152 116.866 56.904 116.866 55.392C116.866 53.544 118.786 52.08 122.05 52.08C122.386 52.08 122.722 52.104 123.034 52.128C122.986 51.144 122.89 50.16 122.89 49.296C122.89 47.904 123.226 46.968 123.994 46.176C124.786 45.312 125.914 44.904 126.73 44.52C127.114 44.28 127.018 43.992 126.658 43.728C126.034 43.224 125.074 43.008 123.994 42.96ZM136.546 48.624L136.834 48.48C137.122 48.84 137.578 49.176 138.034 49.176C138.346 49.176 138.61 49.104 139.33 48.768C141.322 47.832 144.106 46.128 146.986 46.128C150.322 46.128 152.242 48.336 152.242 50.664C152.242 53.088 150.802 54.6 148.906 55.536C147.082 56.472 144.082 56.784 141.346 56.616L141.298 56.16C146.098 55.752 150.37 54.168 150.37 50.4C150.37 48.504 149.122 47.088 146.962 47.088C144.61 47.088 142.138 49.176 140.962 49.968C139.762 50.832 139.306 51.24 138.73 51.24C138.01 51.24 137.05 50.496 136.762 49.848C136.57 49.464 136.57 49.008 136.546 48.624ZM162.298 47.808C162.298 48.552 163.018 49.2 165.106 49.512C165.346 48 165.682 46.464 165.97 45.288C164.362 45.384 162.298 46.704 162.298 47.808ZM170.482 46.728L170.794 46.344C174.586 48.096 176.17 50.376 176.17 53.088C176.17 55.464 174.202 58.272 169.834 58.272C166.426 58.272 164.698 56.256 164.698 53.304C164.698 52.728 164.746 52.008 164.842 51.24C162.61 50.736 161.314 49.536 161.314 48.144C161.314 46.824 162.682 45.432 164.458 44.52C163.858 44.328 163.354 44.136 162.754 43.752C161.914 43.176 161.458 42.48 161.17 41.184L161.554 40.968C162.154 41.784 162.754 42.504 163.762 42.912C164.674 43.272 165.586 43.416 166.426 43.488C166.858 41.928 167.218 40.656 167.29 40.056C167.314 39.48 167.122 39.288 166.69 39.072C166.33 38.904 165.874 38.784 165.49 38.688L165.514 38.208C165.946 38.112 166.402 38.04 166.954 38.04C168.178 38.04 169.69 39.312 169.69 40.008C169.69 40.488 169.33 40.704 169.042 41.256C168.754 41.832 168.466 42.528 168.106 43.56C168.322 43.584 168.514 43.584 168.706 43.608C169.618 43.704 169.954 44.184 169.954 44.664C169.954 45.144 169.594 45.336 168.97 45.384C168.634 45.408 168.082 45.384 167.53 45.36C167.146 46.536 166.69 48.12 166.33 49.656C167.482 49.704 168.418 49.632 168.946 49.68C169.594 49.728 170.026 50.016 170.026 50.592C170.026 51.096 169.666 51.408 168.73 51.528C168.106 51.576 167.098 51.576 165.994 51.432C165.898 52.104 165.826 52.728 165.826 53.232C165.826 55.584 167.338 56.664 169.57 56.664C172.618 56.664 174.226 54.672 174.226 52.56C174.226 49.92 172.666 48.36 170.482 46.728ZM203.026 44.616H193.474C194.314 49.128 196.93 53.856 203.938 56.952L203.914 57.24C202.882 57.384 202.21 57.864 201.97 58.968C195.634 55.392 193.738 49.632 193.042 44.832C192.346 50.448 190.09 55.392 181.762 58.944L181.474 58.56C188.41 54.72 190.402 50.016 191.002 44.616H181.906L181.738 43.92H191.074C191.266 41.688 191.242 39.312 191.242 36.864L194.218 37.176C194.146 37.536 193.954 37.776 193.402 37.848C193.354 39.936 193.33 41.952 193.138 43.92H199.618L201.034 42.144C201.034 42.144 202.69 43.392 203.65 44.232C203.602 44.496 203.338 44.616 203.026 44.616ZM211.978 53.328H210.37C208.69 53.328 208.354 52.824 208.354 51.48V45.216L205.546 45.744L205.234 45.072L208.354 44.496V37.272L210.946 37.56C210.922 37.872 210.706 38.112 210.178 38.208V44.136L213.058 43.608L213.922 41.664C213.922 41.664 215.482 42.6 216.442 43.296C216.418 43.56 216.226 43.728 215.89 43.8L210.178 44.88V50.904C210.178 51.288 210.274 51.432 210.802 51.432H212.074C212.65 51.432 213.082 51.408 213.274 51.408C213.466 51.384 213.586 51.336 213.706 51.144C213.874 50.832 214.186 49.296 214.426 48.024H214.714L214.81 51.24C215.338 51.48 215.458 51.696 215.458 52.08C215.458 52.872 214.714 53.328 211.978 53.328ZM225.922 38.184L228.01 40.008C227.818 40.224 227.506 40.368 226.978 40.44C226.714 50.016 226.138 55.536 224.818 57.048C224.026 57.936 222.994 58.32 221.698 58.32C221.722 57.672 221.602 57.144 221.242 56.856C220.858 56.496 219.85 56.208 218.818 56.016L218.842 55.632C219.946 55.704 221.674 55.872 222.25 55.872C222.73 55.872 222.946 55.776 223.234 55.536C224.29 54.552 224.818 48.84 225.034 40.128H220.498C219.946 49.944 218.602 56.04 210.154 58.944L209.866 58.584C216.922 55.488 218.002 48.984 218.434 40.128H213.898L213.682 39.432H224.794L225.922 38.184ZM236.338 47.976L236.866 48.216C236.386 49.512 235.354 52.032 235.114 52.944C234.874 53.736 234.73 54.288 234.73 54.696C234.73 55.44 235.21 56.232 235.21 56.832C235.21 57.408 234.922 57.744 234.37 57.744C233.89 57.744 233.458 57.36 233.098 56.808C232.378 55.752 231.682 53.688 231.682 51.312C231.682 48.648 232.426 46.488 232.81 45.048C233.098 43.872 233.362 43.008 233.386 42.12C233.41 41.208 232.834 40.344 232.066 39.528L232.426 39.216C233.002 39.432 233.386 39.624 233.818 39.96C234.394 40.392 235.546 41.568 235.546 42.648C235.546 43.224 235.21 43.68 234.61 45.024C233.938 46.464 233.026 48.624 233.026 50.904C233.026 52.008 233.17 52.488 233.338 52.8C233.506 53.112 233.674 53.16 233.89 52.824C234.442 51.984 235.762 49.176 236.338 47.976ZM238.714 50.304L239.242 50.232C239.386 50.808 239.602 51.672 239.914 52.224C240.754 53.712 241.978 54.504 244.954 54.504C247.498 54.504 248.434 54.072 248.986 54.072C249.73 54.072 250.498 54.36 250.498 54.984C250.498 56.112 248.218 56.4 245.53 56.4C241.546 56.4 239.554 54.96 238.954 52.416C238.762 51.696 238.714 50.952 238.714 50.304ZM239.674 43.464L239.482 42.912C241.378 41.688 243.634 41.208 245.338 41.208C246.97 41.208 247.906 41.4 248.698 41.76C249.274 42.024 249.49 42.408 249.49 42.744C249.49 43.128 249.274 43.368 248.746 43.44C248.122 43.536 247.45 43.584 246.61 43.896C245.554 44.352 243.898 45.264 242.674 46.008L242.29 45.576C243.346 44.784 244.93 43.608 245.386 43.176C245.674 42.888 245.698 42.72 244.066 42.72C243.154 42.72 241.69 42.84 239.674 43.464ZM253.93 42.024L254.314 41.88C254.674 42.504 255.298 43.08 255.85 43.08C257.17 43.08 261.466 41.832 265.498 40.896C268.186 40.248 270.25 39.84 271.042 39.84C271.714 39.84 272.386 39.936 272.842 40.152C273.394 40.392 273.682 40.704 273.682 41.136C273.682 41.544 273.346 41.88 272.746 41.88C272.218 41.88 271.498 41.808 270.658 41.808C269.53 41.808 267.922 41.952 266.674 42.744C265.666 43.368 263.386 45.528 263.386 50.112C263.386 52.776 264.49 53.808 265.426 54.36C266.938 55.248 269.002 55.104 269.89 55.104C270.538 55.104 271.402 55.632 271.402 56.304C271.402 57.024 270.61 57.264 269.506 57.264C267.994 57.264 265.786 57.12 264.178 55.968C262.642 54.888 261.778 53.376 261.778 50.568C261.778 47.568 262.858 44.448 265.57 42.384C265.738 42.264 265.714 42.12 265.45 42.168C262.738 42.816 259.354 43.968 257.914 44.688C257.434 44.928 256.93 45.36 256.378 45.36C255.442 45.36 254.098 44.16 253.93 43.224C253.858 42.792 253.906 42.384 253.93 42.024ZM271.018 43.8L271.282 43.392C272.53 43.8 273.538 44.232 274.138 44.736C274.762 45.24 275.002 45.696 275.002 46.224C275.002 46.656 274.786 46.896 274.378 46.896C273.97 46.896 273.706 46.392 273.226 45.792C272.698 45.216 272.146 44.592 271.018 43.8ZM268.858 45.384L269.17 44.976C270.394 45.456 271.402 45.984 272.05 46.584C272.602 47.088 272.818 47.52 272.818 47.976C272.818 48.408 272.554 48.696 272.146 48.696C271.786 48.696 271.522 48.192 271.042 47.592C270.562 46.968 269.914 46.176 268.858 45.384ZM285.058 39.024L284.986 38.616C285.682 38.136 286.306 37.872 287.098 37.872C288.082 37.872 289.018 38.088 289.138 38.808C289.258 39.504 289.378 40.44 289.618 41.352C291.994 40.608 292.858 39.816 293.194 39.816C293.866 39.816 294.61 39.936 294.634 40.536C294.634 40.776 294.466 41.064 294.058 41.328C293.482 41.688 291.922 42.312 290.074 42.84C290.386 43.752 290.77 44.688 291.298 45.696C291.85 45.528 292.378 45.336 292.858 45.144C294.682 44.448 295.042 44.04 295.378 44.04C296.074 43.968 296.77 44.16 296.77 44.76C296.77 45.048 296.65 45.336 296.194 45.624C295.306 46.152 293.89 46.752 292.162 47.232C294.034 50.232 295.426 50.88 295.426 51.6C295.426 52.464 294.946 53.52 294.298 53.52C293.65 53.52 293.29 53.04 292.21 52.464C291.322 52.008 289.474 51.384 287.506 51.384C284.986 51.384 283.21 52.464 283.21 53.976C283.21 56.064 286.066 56.4 288.25 56.4C290.146 56.4 290.626 56.112 291.682 56.112C292.498 56.112 293.098 56.448 293.098 57.024C293.098 57.888 291.346 58.272 288.394 58.272C285.178 58.272 281.842 57.12 281.842 54.384C281.842 52.368 283.858 50.472 288.01 50.472C290.05 50.472 291.778 50.856 292.834 51.12C293.146 51.216 293.17 51.144 293.026 50.904C292.618 50.304 291.73 49.176 290.842 47.592C289.066 48 287.074 48.264 284.962 48.264C281.602 48.264 280.522 46.056 283.234 44.184L283.618 44.52C282.274 45.84 282.61 46.752 285.106 46.752C286.786 46.752 288.49 46.488 290.05 46.056C289.618 45.192 289.186 44.184 288.778 43.152C287.506 43.44 286.21 43.632 285.034 43.632C283.21 43.632 281.938 43.32 280.762 41.16L281.074 40.92C282.274 41.808 283.018 42.216 284.818 42.216C285.682 42.216 287.026 42 288.202 41.712C287.986 41.136 287.77 40.56 287.554 39.984C287.338 39.432 287.122 39.168 286.402 39.096C285.994 39.048 285.514 39.024 285.058 39.024ZM312.442 56.232C312.802 56.232 313.138 56.208 313.474 56.184C313.162 54.408 312.058 53.424 310.714 53.424C309.826 53.424 309.202 53.904 309.202 54.672C309.202 55.536 310.258 56.232 312.442 56.232ZM307.186 39.216L307.594 39.168C307.93 39.888 308.338 40.608 308.962 40.608C309.874 40.608 312.778 39.888 313.906 39.528C314.554 39.336 314.602 39.048 314.986 39.048C315.826 39.048 317.314 40.2 317.314 40.968C317.314 41.472 316.666 41.544 315.85 42.24C314.53 43.248 311.41 46.2 310.354 47.304C310.162 47.496 310.282 47.688 310.498 47.592C311.506 47.232 312.898 46.776 314.602 46.776C317.746 46.776 320.41 48.816 320.362 52.224C320.314 55.272 317.578 57.792 312.922 57.792C310.21 57.792 308.29 56.664 308.29 54.84C308.29 53.472 309.514 52.464 311.146 52.464C312.826 52.464 314.698 53.52 315.13 55.872C317.434 55.152 318.514 53.496 318.538 51.696C318.61 49.584 317.05 47.64 314.146 47.64C310.738 47.64 308.362 49.848 306.346 52.464C305.914 52.992 305.698 53.16 305.29 53.136C304.906 53.136 304.498 52.68 304.546 52.008C304.57 51.504 304.834 51.12 305.458 50.496C308.818 47.04 313.354 42.72 314.434 41.088C314.698 40.704 314.53 40.56 314.218 40.632C313.426 40.776 311.506 41.544 310.522 42C310.066 42.216 309.706 42.576 309.274 42.576C308.218 42.576 307.282 41.376 307.138 40.632C307.042 40.2 307.09 39.72 307.186 39.216ZM342.85 49.392L344.218 47.736C344.218 47.736 345.73 48.864 346.69 49.704C346.618 49.968 346.354 50.088 346.018 50.088H335.986C334.906 52.056 333.442 54.384 332.146 56.04C334.906 55.896 338.338 55.68 341.986 55.44C341.074 54.144 339.97 52.896 338.962 51.96L339.226 51.768C347.434 55.032 346.042 60.288 343.642 58.608C343.378 57.768 342.922 56.856 342.322 55.968C339.154 56.592 334.906 57.312 329.026 58.2C328.882 58.488 328.618 58.656 328.378 58.704L327.202 56.256C328.162 56.232 329.506 56.184 331.138 56.088C331.954 54.36 332.866 51.912 333.394 50.088H326.866L326.65 49.392H342.85ZM338.842 45.096L340.138 43.512C340.138 43.512 341.578 44.592 342.49 45.408C342.442 45.672 342.178 45.792 341.842 45.792H330.826L330.658 45.096H338.842ZM335.29 36.696L338.698 37.512C338.602 37.8 338.29 37.944 337.642 37.992C339.778 40.824 343.954 43.224 347.842 44.472L347.794 44.832C346.882 45.072 346.234 45.912 346.042 46.68C342.25 44.904 338.818 41.712 337.234 38.28C335.05 41.64 330.226 45.264 325.594 47.088L325.402 46.752C329.506 44.544 334.114 39.96 335.29 36.696ZM357.274 40.392L359.122 42.288C358.906 42.456 358.594 42.528 358.042 42.552C357.418 43.848 356.506 45.168 355.402 46.44C360.202 47.784 359.074 50.976 357.37 49.944C357.058 49.008 356.146 47.88 355.282 47.04V58.296C355.282 58.464 354.658 58.944 353.722 58.944H353.386V48.504C352.138 49.656 350.77 50.664 349.354 51.456L349.066 51.168C351.97 48.888 354.706 45.288 355.978 42.216H349.882L349.666 41.496H353.362V36.936L356.074 37.2C356.026 37.536 355.81 37.776 355.186 37.872V41.496H356.098L357.274 40.392ZM368.362 57.144L369.586 55.488C369.586 55.488 371.026 56.64 371.866 57.456C371.794 57.72 371.554 57.84 371.242 57.84H357.106L356.938 57.144H363.226V45.96H358.642L358.45 45.24H363.226V36.984L366.082 37.272C366.034 37.632 365.818 37.872 365.218 37.968V45.24H367.762L368.962 43.656C368.962 43.656 370.354 44.76 371.194 45.576C371.146 45.84 370.906 45.96 370.57 45.96H365.218V57.144H368.362Z" fill="black"/>
<path d="M4.848 91.84L7.464 92.728C7.392 92.992 7.176 93.16 6.6 93.184C12.672 95.32 10.704 98.464 9.168 97.36C8.688 96.352 7.656 94.888 6.312 93.64C5.112 96.064 3.024 98.944 0.624 100.72L0.312 100.48C2.28 98.296 4.152 94.36 4.848 91.84ZM6.648 103.24V110.416C8.04 110.128 9.528 109.792 11.04 109.432L11.112 109.792C9.216 110.656 6.528 111.808 2.712 113.272C2.616 113.56 2.4 113.776 2.16 113.872L0.888 111.592C1.752 111.448 3.192 111.16 4.92 110.8V103.24H1.32L1.152 102.544H4.92V99.496H2.952L2.76 98.824H7.008L8.064 97.384C8.064 97.384 9.264 98.416 10.008 99.112C9.936 99.376 9.72 99.496 9.384 99.496H6.648V102.544H7.728L8.808 101.056C8.808 101.056 10.056 102.088 10.8 102.856C10.752 103.12 10.512 103.24 10.176 103.24H6.648ZM1.752 104.536L2.088 104.44C5.472 107.728 3.672 110.824 2.352 109.312C2.544 107.8 2.16 105.856 1.752 104.536ZM7.776 109.216L7.368 109.048C7.68 107.824 7.992 105.928 8.184 104.272L10.584 104.992C10.488 105.28 10.224 105.496 9.744 105.496C9.192 106.744 8.472 108.208 7.776 109.216ZM19.44 103.336L20.28 102.328L22.32 103.84C22.176 104.008 21.84 104.2 21.432 104.272V109.216C21.432 110.632 21.168 111.448 19.056 111.664C19.008 111.088 18.936 110.608 18.672 110.296C18.408 110.008 17.976 109.816 17.184 109.672V109.312C17.184 109.312 18.816 109.432 19.224 109.432C19.56 109.432 19.656 109.288 19.656 109V104.008H15.936V113.416C15.936 113.56 15.36 113.92 14.4 113.92H14.088V104.008H11.136L10.92 103.336H19.44ZM16.92 99.808L18.072 98.344C18.072 98.344 19.416 99.352 20.232 100.144C20.184 100.408 19.944 100.528 19.584 100.528H12.432L12.24 99.808H16.92ZM15.12 91.72L18.072 92.392C18 92.656 17.784 92.752 17.232 92.824C18.456 95.344 21.048 97.528 23.448 98.8L23.424 99.088C22.656 99.304 22.08 100 21.936 100.768C19.704 98.968 17.76 96.112 16.872 93.088C15.504 96.208 12.504 99.256 9.6 101.08L9.384 100.792C11.76 98.632 14.472 94.528 15.12 91.72ZM46.272 98.632H37.368C39.528 103.192 43.536 107.08 47.4 108.832L47.328 109.096C46.536 109.192 45.816 109.84 45.48 110.776C41.784 108.4 38.712 104.2 36.936 98.872V113.176C36.936 113.416 36.072 113.92 35.328 113.92H34.944V101.08C32.736 105.16 29.28 108.712 24.912 111.184L24.624 110.896C28.704 107.848 31.992 103.12 33.696 98.632H25.368L25.2 97.936H34.944V91.792L37.776 92.104C37.728 92.44 37.536 92.68 36.936 92.776V97.936H43.032L44.4 96.208C44.4 96.208 45.984 97.384 46.92 98.248C46.848 98.512 46.632 98.632 46.272 98.632ZM57.456 107.416L57.696 107.248C64.296 109.432 62.376 113.992 60.192 112.264C59.952 110.632 58.632 108.64 57.456 107.416ZM70.512 99.232H60.816C61.656 103.696 64.272 108.64 71.208 111.952L71.16 112.24C70.152 112.36 69.504 112.816 69.24 113.92C62.88 110.104 61.008 104.008 60.36 99.232H60.264C59.592 104.776 57.408 110.08 49.248 113.968L48.96 113.56C55.608 109.48 57.6 104.512 58.2 99.232H49.2L48.984 98.536H58.272C58.464 96.352 58.464 94.12 58.464 91.864L61.44 92.176C61.392 92.536 61.2 92.776 60.6 92.848C60.552 94.744 60.528 96.64 60.336 98.536H67.248L68.616 96.784C68.616 96.784 70.2 98.008 71.16 98.848C71.088 99.112 70.848 99.232 70.512 99.232ZM76.56 103.072H82.2V99.88H76.56V103.072ZM82.2 96.112H76.56V99.16H82.2V96.112ZM81.96 95.416L82.92 94.312L85.104 95.968C84.936 96.16 84.576 96.352 84.096 96.448V104.824C84.048 104.992 83.112 105.4 82.488 105.4H82.2V103.744H76.56V110.008C78.12 109.696 79.92 109.312 81.768 108.928C81.12 107.752 80.28 106.648 79.488 105.832L79.776 105.64C86.544 108.856 84.864 113.896 82.824 112.168C82.776 111.304 82.464 110.344 82.032 109.432C80.208 110.272 77.712 111.352 74.4 112.672C74.304 112.96 74.088 113.152 73.824 113.224L72.624 110.752C73.128 110.68 73.872 110.536 74.76 110.368V94.528L76.704 95.416H78.384V91.96L81.144 92.224C81.096 92.56 80.856 92.8 80.28 92.872V95.416H81.96ZM93.144 92.968L95.328 95.056C95.136 95.272 94.8 95.344 94.248 95.368C93.36 96.976 91.728 99.976 90.528 101.56C93.456 103.552 94.608 105.88 94.608 107.92C94.608 110.344 93.648 111.616 90.912 111.712C90.912 111.088 90.792 110.392 90.576 110.128C90.36 109.912 89.832 109.768 89.184 109.672V109.288H91.296C91.56 109.288 91.728 109.264 91.92 109.168C92.376 108.904 92.64 108.376 92.64 107.416C92.64 105.568 91.896 103.576 89.952 101.632C90.552 100.024 91.512 96.928 92.064 94.816H87.96V113.176C87.96 113.44 87.312 113.92 86.448 113.92H86.112V93.208L88.08 94.096H91.992L93.144 92.968Z" fill="black"/>
</svg>
