<svg width="605" height="226" viewBox="0 0 605 226" fill="none" xmlns="http://www.w3.org/2000/svg">
<path d="M132.004 68.344L131.932 69.496C127.684 70.504 126.1 73.312 125.74 74.032C118.18 68.992 103.564 56.392 99.82 26.512C96.076 56.248 82.468 69.28 66.484 74.896L65.98 73.888C75.988 67.336 81.316 60.856 84.412 56.176C91.036 46.096 95.284 31.336 95.284 15.784C95.284 12.328 95.14 11.392 94.924 10.024L101.548 10.888C102.196 10.96 103.348 11.104 103.348 12.04C103.348 12.832 102.7 13.192 100.612 13.984V15.712C100.612 31.912 109.396 57.472 132.004 68.344ZM153.1 27.88H168.004V17.584C168.004 15.928 168.004 11.464 167.644 9.232L174.196 10.024C174.988 10.096 176.14 10.312 176.14 11.176C176.14 11.968 175.564 12.328 173.26 13.264V27.88H189.172L191.836 23.92C192.124 23.488 192.412 23.272 192.772 23.272C193.06 23.272 193.276 23.344 193.852 23.848L199.108 28.456C199.252 28.528 199.828 29.032 199.828 29.68C199.828 30.76 198.748 30.76 198.244 30.76H173.26V47.176H186.076L188.956 43C189.172 42.64 189.46 42.352 189.892 42.352C190.252 42.352 190.468 42.496 190.9 42.856L196.228 47.68C196.516 47.896 196.948 48.472 196.948 48.976C196.948 49.912 196.084 50.056 195.364 50.056H173.26V69.64H192.988L195.868 65.392C196.012 65.104 196.3 64.744 196.804 64.744C197.092 64.744 197.308 64.888 197.812 65.248L203.212 70.144C203.428 70.36 203.86 70.936 203.86 71.44C203.86 72.52 202.708 72.52 202.276 72.52H144.172C142.372 72.52 140.788 72.592 138.556 72.808L137.332 69.352C139.636 69.496 141.796 69.64 144.604 69.64H168.004V50.056H152.308C150.94 50.056 149.572 50.056 146.692 50.344L145.468 46.888C147.556 47.032 149.86 47.176 152.74 47.176H168.004V30.76H151.66C149.068 35.44 145.612 41.704 138.412 47.68L137.548 46.96C144.748 36.448 150.436 24.64 151.804 13.336L158.284 15.496C159.796 16 160.012 16.432 160.012 16.936C160.012 18.088 159.292 18.088 157.06 18.304C155.548 22.48 154.684 24.568 153.1 27.88ZM254.116 34.072L254.26 32.992C254.836 32.776 255.484 32.56 256.42 32.56C259.876 32.56 263.548 36.232 263.548 38.608C263.548 40.048 263.044 40.192 258.436 41.488C250.228 43.864 244.324 46.672 240.796 48.4C240.868 49.48 241.228 56.248 241.228 56.824C241.228 57.76 241.228 61.144 238.276 61.144C236.044 61.144 236.044 58.84 236.044 57.904V50.92C232.012 53.224 225.388 57.112 225.388 61.72C225.388 65.032 228.484 66.832 237.7 66.832C241.372 66.832 245.116 66.472 249.148 65.752C251.02 65.392 251.38 65.32 252.1 65.32C253.684 65.32 257.068 66.688 257.068 68.632C257.068 70.288 255.196 70.648 254.26 70.864C251.74 71.368 244.18 71.584 239.5 71.584C235.252 71.584 221.5 71.584 221.5 62.584C221.5 57.112 226.036 52.72 235.828 47.104C235.54 43.576 235.18 39.184 229.564 39.184C222.868 39.184 218.908 44.512 216.1 48.184C214.156 50.848 213.868 51.208 212.788 51.208C211.564 51.208 210.484 50.128 210.484 48.544C210.484 46.096 212.716 44.152 214.3 42.712C217.972 39.544 221.14 35.224 225.532 29.032C224.308 29.104 222.94 29.248 221.572 29.248C215.38 29.248 213.724 26.08 212.356 23.488L213.22 22.84C214.156 23.344 216.676 24.928 221.788 24.928C224.236 24.928 227.476 24.496 228.772 24.352C230.068 22.408 233.02 17.872 233.02 16.216C233.02 14.992 231.724 14.056 229.492 13.336L229.852 12.328C230.572 12.04 231.292 11.68 232.444 11.68C235.54 11.68 239.5 13.912 239.5 16C239.5 17.08 239.068 17.584 237.556 19.168C236.836 19.96 235.828 21.328 234.1 23.56C238.708 22.696 241.588 22.12 244.252 20.752C246.196 19.816 246.556 19.6 247.564 19.6C249.436 19.6 252.1 20.752 252.1 22.336C252.1 24.064 249.868 24.568 245.332 25.576C240.652 26.656 236.332 27.376 230.644 28.312C229.996 29.104 225.604 34.792 223.084 38.032C225.244 37.024 227.476 35.944 230.644 35.944C238.996 35.944 240.076 42.784 240.364 44.584C244.9 42.28 249.58 40.048 254.26 37.816C255.844 37.096 256.564 36.664 256.564 36.016C256.564 34.936 254.764 34.288 254.116 34.072ZM280.9 46.096H292.924L294.292 44.008C294.58 43.648 294.796 43.432 295.084 43.432C295.444 43.432 295.876 43.72 296.02 43.864L299.908 47.032C300.412 47.464 300.556 47.68 300.556 48.04C300.556 48.688 300.34 48.904 298.252 50.272V63.016C298.252 64.456 298.54 70.648 298.54 71.944C298.54 72.592 298.54 74.32 295.156 74.32C293.572 74.32 293.5 73.816 293.5 72.736V70.648H280.468V73.384C280.468 74.536 279.82 75.4 277.228 75.4C275.788 75.4 275.356 74.968 275.356 73.888C275.356 73.168 275.644 65.752 275.644 64.24V50.92C275.644 48.76 275.5 46.456 275.5 46.024C273.916 47.464 272.548 48.688 269.164 51.136L268.444 50.2C275.14 42.496 281.692 32.848 284.428 23.92L289.9 26.224C291.052 26.728 291.268 27.016 291.268 27.52C291.268 28.672 290.044 28.672 288.604 28.672L288.46 28.96C298.468 33.784 302.716 40.264 302.716 43.072C302.716 44.8 301.708 46.168 300.34 46.168C299.116 46.168 299.044 46.024 296.02 41.2C292.42 35.368 290.116 33.136 287.524 30.616C284.716 35.44 282.124 39.256 277.3 44.224L280.9 46.096ZM293.5 48.904H280.468V67.768H293.5V48.904ZM336.628 70.072V71.224C336.124 71.368 333.892 72.016 333.532 72.304C332.02 73.312 331.372 74.32 330.94 75.04C327.988 72.16 325.108 67.984 322.804 62.656C319.708 55.528 318.772 49.552 318.196 46.168C317.044 53.224 314.308 67.336 300.988 75.976L300.196 75.184C313.588 59.488 314.308 44.872 314.308 28.6H309.34C306.388 33.064 304.588 35.152 302.068 37.384L301.204 36.664C309.34 23.416 311.5 10.384 311.644 9.304L317.044 10.816C318.556 11.248 319.204 11.608 319.204 12.328C319.204 13.336 318.196 13.48 316.612 13.84C314.812 18.52 313.588 21.256 311.14 25.72H327.196L328.996 23.488C329.14 23.272 329.572 22.84 330.004 22.84C330.436 22.84 330.796 23.2 331.084 23.488L334.9 27.16C335.404 27.664 335.62 28.24 335.62 28.672C335.62 29.752 334.324 29.896 332.164 30.112C330.868 32.344 327.916 37.168 323.164 42.064L322.228 41.416C324.748 36.232 326.116 32.416 327.268 28.6H319.204C319.204 29.968 318.988 37.168 318.988 37.888C318.988 39.472 321.58 62.008 336.628 70.072ZM279.748 9.808L285.292 12.256C285.94 12.544 286.876 12.976 286.876 13.84C286.876 14.92 285.652 14.92 283.924 14.92C279.964 20.968 276.58 25.648 269.956 30.4L269.164 29.608C274.06 22.984 278.092 16.216 279.748 9.808ZM287.812 11.608L288.316 10.6C296.092 12.976 302.644 18.88 302.644 23.272C302.644 25.072 301.564 26.152 300.412 26.152C299.188 26.152 298.9 25.72 295.948 20.896C293.572 17.08 291.988 15.352 287.812 11.608ZM358.3 43.288L359.884 40.984C360.172 40.552 360.46 40.336 360.82 40.336C361.252 40.336 361.54 40.552 361.9 40.84L365.572 44.152C366.076 44.584 366.292 44.872 366.292 45.304C366.292 45.88 366.004 46.096 363.772 47.608C362.26 74.608 356.572 75.688 350.596 75.688C350.524 71.944 349.012 71.512 343.18 69.712L343.252 68.56C344.692 68.704 350.956 69.064 352.252 69.064C353.692 69.064 354.7 68.92 356.212 65.104C358.012 60.568 358.588 51.64 358.876 46.168H348.292L348.076 47.968C347.932 48.904 347.86 49.84 345.052 49.84C343.9 49.84 342.748 49.624 342.748 48.472C342.748 48.04 343.756 42.064 343.9 40.984L344.764 33.496C345.124 30.328 345.34 26.656 345.412 25.432L350.524 28.312H359.308V16.504H348.652C347.572 16.504 345.988 16.504 342.964 16.792L341.74 13.336C343.828 13.48 346.132 13.624 349.012 13.624H358.732L360.316 11.32C360.604 10.888 360.82 10.672 361.108 10.672C361.54 10.672 361.828 10.96 362.116 11.176L365.932 14.344C366.292 14.632 366.58 14.92 366.58 15.568C366.58 16.216 366.364 16.36 364.204 17.8V23.128C364.204 24.496 364.492 30.976 364.492 31.552C364.492 33.712 361.324 33.712 360.964 33.712C359.308 33.712 359.308 33.28 359.308 31.192H349.948L348.58 43.288H358.3ZM370.972 10.6L377.02 13.624H395.092L397.684 10.024C397.9 9.664 398.188 9.376 398.548 9.376C398.98 9.376 399.268 9.664 399.628 9.952L404.308 14.2C404.524 14.416 404.956 14.92 404.956 15.424C404.956 16.504 403.876 16.504 403.444 16.504H376.372V23.344H392.572L394.804 20.176C395.092 19.744 395.308 19.528 395.74 19.528C396.028 19.528 396.316 19.672 396.748 20.104L400.924 23.92C401.14 24.064 401.572 24.64 401.572 25.144C401.572 26.008 400.852 26.224 400.06 26.224H376.372V33.136H392.572L394.732 30.04C395.02 29.608 395.308 29.392 395.668 29.392C396.028 29.392 396.316 29.608 396.748 29.968L400.924 33.712C401.14 33.928 401.572 34.432 401.572 34.936C401.572 35.872 400.78 36.088 399.988 36.088H376.372V42.928H396.964L399.484 39.256C399.772 38.824 399.988 38.608 400.348 38.608C400.852 38.608 401.14 38.896 401.428 39.184L406.108 43.504C406.324 43.72 406.756 44.224 406.756 44.728C406.756 45.808 405.604 45.808 405.244 45.808H384.724C385.804 49.264 387.028 52.504 390.556 57.112C392.86 55.024 396.532 51.64 399.628 47.104L404.452 51.352C404.812 51.64 405.172 52.072 405.172 52.576C405.172 53.296 404.596 53.44 404.092 53.44C403.588 53.44 402.58 53.224 402.004 53.008C396.532 56.248 394.876 57.256 391.636 58.408C397.828 65.536 404.812 68.128 407.836 69.28V70.432C404.596 71.08 403.372 72.88 402.58 74.392C387.964 65.392 384.076 52.864 383.068 45.808H376.372V67.336C380.26 66.616 385.372 65.68 390.124 64.672L390.412 65.824C383.5 68.848 374.644 71.944 367.804 74.032C367.516 75.832 367.444 76.264 366.652 76.264C366.292 76.264 365.86 76.192 365.284 74.68L363.124 69.064C367.228 68.704 370.108 68.272 371.26 68.128V45.808C369.244 45.88 368.308 45.88 366.724 46.096L365.5 42.64C368.092 42.856 369.028 42.856 371.26 42.928V19.528C371.26 13.48 371.116 11.752 370.972 10.6ZM424.324 17.08L425.404 16.648C426.124 17.728 427.276 19.312 430.228 19.312C433.108 19.312 440.596 17.656 441.244 17.512C442.108 17.296 449.308 15.64 449.596 15.64C451.9 15.64 454.276 18.88 454.276 20.104C454.276 20.896 453.988 21.184 451.036 23.128C445.78 26.584 428.86 43.072 428.86 43.072C434.548 39.616 439.444 36.664 447.724 36.664C457.948 36.664 465.94 42.136 465.94 51.928C465.94 63.448 454.996 71.08 442.18 71.08C434.044 71.08 427.852 67.768 427.852 62.152C427.852 57.4 432.316 53.728 437.716 53.728C442.18 53.728 448.804 56.68 450.676 65.752C459.964 62.224 460.54 54.376 460.54 51.928C460.54 43.936 454.852 39.76 446.86 39.76C433.684 39.76 422.74 50.776 420.076 54.16C417.484 57.4 417.196 57.76 416.044 57.76C414.46 57.76 413.884 55.888 413.884 54.52C413.884 52.72 414.172 52.432 418.42 48.4C420.94 46.024 439.876 27.304 441.748 25.36C442.684 24.424 445.78 21.256 445.78 20.608C445.78 20.32 445.492 20.176 445.132 20.176C444.988 20.176 441.532 20.68 436.78 22.336C435.7 22.696 431.092 24.784 430.084 24.784C428.212 24.784 424.18 22.264 424.18 18.448C424.18 18.088 424.18 18.016 424.324 17.08ZM445.996 66.976C444.844 58.408 438.58 57.4 436.852 57.4C433.972 57.4 431.74 59.344 431.74 61.792C431.74 65.68 437.284 67.336 441.532 67.336C443.332 67.336 444.988 67.12 445.996 66.976ZM476.236 53.944L476.812 52.936C488.548 56.464 494.236 63.232 494.236 67.84C494.236 70.288 492.868 72.52 490.564 72.52C488.836 72.52 488.548 72.016 486.46 67.408C483.148 60.208 478.468 55.96 476.236 53.944ZM33.724 152.112V122.448C33.724 121.296 33.724 120.864 33.58 117.264C32.068 118.704 31.132 119.568 28.972 121.224L28.108 120.504C37.468 107.976 40.564 99.12 41.284 95.376L47.116 97.032C48.484 97.392 48.988 97.752 48.988 98.4C48.988 99.408 48.124 99.552 46.18 99.84C44.812 102.288 44.452 102.936 43.588 104.232H52.732L54.676 102.144C55.108 101.712 55.324 101.568 55.612 101.568C56.116 101.568 56.476 101.856 56.764 102.144L60.724 105.888C61.084 106.176 61.444 106.536 61.444 107.112C61.444 108.048 60.436 108.192 57.772 108.48C52.876 113.664 52.372 114.24 49.492 116.904H59.716L61.156 114.816C61.444 114.456 61.66 114.24 62.02 114.24C62.308 114.24 62.74 114.456 62.956 114.672L66.7 117.84C67.06 118.2 67.42 118.416 67.42 118.992C67.42 119.712 67.132 119.856 64.972 121.152V128.784C64.972 129.936 65.26 135.768 65.26 137.136C65.26 138.648 63.676 139.008 61.588 139.008C60.076 139.008 60.076 138.432 60.076 137.64V136.416H38.62V151.752C38.62 153.336 38.836 154.632 41.428 154.632H58.996C62.956 154.632 63.028 154.344 65.404 143.832L66.556 143.904C66.7 146.064 66.844 148.44 66.844 149.016C67.06 152.328 67.132 152.76 67.708 153.48C68.86 154.848 68.932 155.064 68.932 155.712C68.932 159.528 61.444 159.528 58.78 159.528H40.996C34.444 159.528 33.724 157.944 33.724 152.112ZM38.62 119.784V133.536H46.972V119.784H38.62ZM35.452 115.248L39.34 116.904H46.9C49.06 113.448 50.572 110.856 52.372 107.112H41.716C38.26 112.224 36.676 113.88 35.452 115.248ZM51.364 119.784V133.536H60.076V119.784H51.364ZM24.58 105.888L29.332 108.84C30.988 109.848 30.988 110.208 30.988 110.64C30.988 111.72 29.98 111.648 27.964 111.504C23.428 117.912 19.612 122.304 13.78 127.128C14.14 127.128 23.428 126.624 24.94 126.48C24.148 124.824 23.428 123.456 21.916 121.224L22.708 120.432C25.876 122.376 31.06 126.264 31.06 131.016C31.06 133.248 29.908 134.328 28.756 134.328C27.532 134.328 27.316 133.608 26.668 131.304C26.164 129.576 25.876 128.784 25.588 128.064C23.5 128.64 22.636 128.856 20.98 129.288V150.672C20.98 152.04 21.124 158.304 21.124 159.528C21.124 161.472 19.468 161.832 17.74 161.832C16.156 161.832 16.084 161.184 16.084 160.176C16.084 158.664 16.228 152.04 16.228 150.672V130.368C14.932 130.656 8.95599 132.024 7.73199 132.24C7.51599 133.464 7.29999 134.256 6.50799 134.256C5.93199 134.256 5.57199 133.752 5.21199 132.672L3.26799 127.056C6.86799 127.272 7.22799 127.272 11.116 127.2C19.18 117.192 23.716 108.192 24.58 105.888ZM4.77999 107.544L5.35599 106.536C8.88399 107.688 11.188 109.128 11.548 109.344C15.508 101.28 16.516 97.824 16.948 95.088L22.348 97.608C24.22 98.472 24.22 98.976 24.22 99.336C24.22 100.488 23.14 100.488 21.196 100.488C18.46 104.664 15.436 108.192 13.132 110.496C16.156 112.728 16.804 114.744 16.804 116.112C16.804 117.408 16.156 119.496 14.428 119.496C13.204 119.496 12.772 118.632 11.548 116.256C9.89199 112.944 7.65999 109.92 4.77999 107.544ZM8.45199 136.056L13.348 137.64C14.5 138 14.932 138.216 14.932 138.864C14.932 139.8 13.708 140.016 12.916 140.16C10.756 147.144 8.01999 153.336 4.99599 157.08L3.98799 156.576C7.65999 145.776 8.30799 139.152 8.45199 136.056ZM22.564 135.696L23.428 134.904C28.9 139.44 30.772 144.408 30.772 147.288C30.772 149.448 29.332 150.672 28.18 150.672C26.884 150.672 26.74 149.736 26.308 147.36C25.228 140.808 23.428 137.352 22.564 135.696ZM91.18 99.624H126.028L127.54 97.536C127.828 97.104 128.116 96.888 128.404 96.888C128.764 96.888 129.124 97.104 129.412 97.32L133.66 100.56C134.02 100.848 134.308 101.136 134.308 101.712C134.308 102.576 132.652 103.512 131.788 104.088V108.336C131.788 109.848 132.076 116.256 132.076 117.552C132.076 119.64 129.916 120 128.332 120C126.604 120 126.604 119.424 126.604 117.912H113.356C113.5 118.128 113.5 118.2 113.5 118.416C113.5 118.992 113.14 119.352 111.124 120.072V122.88H131.212L133.804 119.064C134.02 118.704 134.236 118.416 134.74 118.416C135.1 118.416 135.46 118.632 135.748 118.92L141.148 123.6C141.364 123.744 141.724 124.104 141.724 124.68C141.724 125.76 140.572 125.76 140.068 125.76H81.892C80.452 125.76 79.156 125.76 76.42 126.048L75.196 122.592C77.428 122.736 79.588 122.88 82.468 122.88H105.868C105.796 119.064 105.796 118.632 105.724 117.912H90.316C90.316 118.848 90.316 120.144 86.572 120.144C85.204 120.144 84.772 119.568 84.772 118.344C84.772 117.624 85.06 111 85.06 110.496V105.456C85.06 103.224 85.06 99.264 84.772 96.672L91.18 99.624ZM126.604 102.504H90.316V107.256H126.604V102.504ZM126.604 110.136H90.316V115.032H126.604V110.136ZM92.404 130.512H124.732L126.388 128.208C126.604 127.848 126.892 127.632 127.252 127.632C127.612 127.632 127.9 127.776 128.188 128.064L132.148 131.304C132.724 131.736 132.796 132.024 132.796 132.384C132.796 132.888 132.652 133.32 130.42 134.76V137.208C130.42 138.144 130.708 142.536 130.708 143.04C130.708 144.84 128.836 145.2 127.036 145.2C125.236 145.2 125.236 144.84 125.236 143.256H111.268V150.168C111.268 151.176 111.412 155.784 111.412 156.72C111.412 158.52 111.412 161.616 103.852 162.264C103.564 159.744 102.628 158.736 95.428 156.72V155.568L104.572 155.856C105.724 155.928 106.012 155.424 106.012 154.488V143.256H91.972C91.972 144.336 91.972 145.56 88.516 145.56C86.644 145.56 86.5 144.84 86.5 144.264C86.5 144.192 86.788 138.792 86.788 137.784V133.752C86.788 132.384 86.788 130.008 86.428 127.632L92.404 130.512ZM125.236 133.32H91.972V140.304H125.236V133.32ZM115.444 146.352L115.804 145.344C123.724 147.288 128.836 148.512 134.02 152.4C135.028 153.12 137.044 154.992 137.044 157.224C137.044 158.304 136.612 159.96 134.812 159.96C133.3 159.96 132.436 159.096 129.844 156.432C124.372 150.96 118.612 148.008 115.444 146.352ZM94.492 144.624L98.668 147.216C99.46 147.72 100.18 148.296 100.18 148.872C100.18 149.808 99.244 149.88 99.028 149.88C98.452 149.88 97.804 149.736 97.156 149.592C92.188 154.128 84.556 158.592 77.212 160.896L76.636 159.888C85.06 154.344 89.74 150.816 94.492 144.624ZM188.956 120.072L189.1 118.992C189.676 118.776 190.324 118.56 191.26 118.56C194.716 118.56 198.388 122.232 198.388 124.608C198.388 126.048 197.884 126.192 193.276 127.488C185.068 129.864 179.164 132.672 175.636 134.4C175.708 135.48 176.068 142.248 176.068 142.824C176.068 143.76 176.068 147.144 173.116 147.144C170.884 147.144 170.884 144.84 170.884 143.904V136.92C166.852 139.224 160.228 143.112 160.228 147.72C160.228 151.032 163.324 152.832 172.54 152.832C176.212 152.832 179.956 152.472 183.988 151.752C185.86 151.392 186.22 151.32 186.94 151.32C188.524 151.32 191.908 152.688 191.908 154.632C191.908 156.288 190.036 156.648 189.1 156.864C186.58 157.368 179.02 157.584 174.34 157.584C170.092 157.584 156.34 157.584 156.34 148.584C156.34 143.112 160.876 138.72 170.668 133.104C170.38 129.576 170.02 125.184 164.404 125.184C157.708 125.184 153.748 130.512 150.94 134.184C148.996 136.848 148.708 137.208 147.628 137.208C146.404 137.208 145.324 136.128 145.324 134.544C145.324 132.096 147.556 130.152 149.14 128.712C152.812 125.544 155.98 121.224 160.372 115.032C159.148 115.104 157.78 115.248 156.412 115.248C150.22 115.248 148.564 112.08 147.196 109.488L148.06 108.84C148.996 109.344 151.516 110.928 156.628 110.928C159.076 110.928 162.316 110.496 163.612 110.352C164.908 108.408 167.86 103.872 167.86 102.216C167.86 100.992 166.564 100.056 164.332 99.336L164.692 98.328C165.412 98.04 166.132 97.68 167.284 97.68C170.38 97.68 174.34 99.912 174.34 102C174.34 103.08 173.908 103.584 172.396 105.168C171.676 105.96 170.668 107.328 168.94 109.56C173.548 108.696 176.428 108.12 179.092 106.752C181.036 105.816 181.396 105.6 182.404 105.6C184.276 105.6 186.94 106.752 186.94 108.336C186.94 110.064 184.708 110.568 180.172 111.576C175.492 112.656 171.172 113.376 165.484 114.312C164.836 115.104 160.444 120.792 157.924 124.032C160.084 123.024 162.316 121.944 165.484 121.944C173.836 121.944 174.916 128.784 175.204 130.584C179.74 128.28 184.42 126.048 189.1 123.816C190.684 123.096 191.404 122.664 191.404 122.016C191.404 120.936 189.604 120.288 188.956 120.072ZM237.988 106.392H251.596L254.332 102.288C254.548 101.928 254.836 101.712 255.196 101.712C255.556 101.712 255.844 101.856 256.276 102.216L261.388 106.896C261.604 107.112 262.108 107.616 262.108 108.192C262.108 109.272 260.956 109.272 260.524 109.272H237.988V118.992H258.292L261.028 114.888C261.172 114.672 261.46 114.312 261.964 114.312C262.324 114.312 262.612 114.528 262.972 114.816L268.156 119.496C268.372 119.712 268.804 120.288 268.804 120.792C268.804 121.872 267.652 121.872 267.22 121.872H209.404C207.388 121.872 205.732 121.944 203.788 122.16L202.564 118.704C205.444 118.848 206.884 118.992 209.836 118.992H214.948V108.408C214.948 106.608 214.948 104.016 214.588 101.208L220.996 102C221.716 102.072 222.868 102.216 222.868 103.08C222.868 103.728 222.58 104.16 220.132 105.096V118.992H232.804V102.504C232.804 100.128 232.732 97.464 232.444 95.304L238.852 96.096C239.572 96.168 240.724 96.312 240.724 97.248C240.724 97.752 240.58 98.256 237.988 99.192V106.392ZM232.444 122.016L238.852 122.736C239.5 122.808 240.724 123.024 240.724 123.888C240.724 124.68 239.86 125.112 237.988 125.832V130.368C237.988 131.88 238.132 138.36 238.132 139.656C238.132 142.32 238.132 145.632 230.644 146.352C230.284 142.752 224.38 141.168 222.004 140.52V139.368L230.788 139.656C232.588 139.728 232.804 139.368 232.804 137.928V129.072C232.804 127.704 232.804 124.464 232.444 122.016ZM245.188 126.12L245.764 125.112C255.628 127.848 266.356 133.824 266.356 139.44C266.356 141.6 264.988 142.536 263.98 142.536C262.612 142.536 262.324 142.104 259.516 138.576C257.14 135.552 253.612 131.16 245.188 126.12ZM218.188 124.32L223.3 127.128C223.804 127.416 225.1 128.136 225.1 129C225.1 129.864 224.38 129.936 223.732 129.936C223.444 129.936 222.508 129.864 222.004 129.792C215.02 138.864 207.316 143.4 203.14 145.632L202.492 144.696C209.404 138.36 215.308 131.52 218.188 124.32ZM249.364 133.536L253.972 136.416C255.124 137.136 255.556 137.496 255.556 138.072C255.556 139.224 254.044 139.08 252.748 139.008C244.396 150.672 228.412 159.456 204.796 161.832L204.58 160.68C214.3 158.304 240.436 151.176 249.364 133.536ZM277.66 110.496L278.452 109.776C279.964 110.712 281.62 111.792 285.868 111.792C287.956 111.792 290.692 111.36 293.14 111.072C293.5 106.968 293.716 104.952 293.716 103.584C293.716 101.784 293.14 100.704 289.54 99.624L289.684 98.544C290.548 98.184 291.34 97.752 292.852 97.752C295.66 97.752 299.764 99.624 299.764 101.784C299.764 102.36 298.9 104.592 298.756 105.024C298.396 106.32 298.036 108.84 297.82 110.208C300.772 109.632 302.716 109.2 304.876 108.48C305.236 108.336 307.54 107.544 308.116 107.544C309.7 107.544 311.932 108.408 311.932 110.064C311.932 111.648 310.06 112.08 308.26 112.512C308.188 112.512 297.82 114.456 297.172 114.528C296.74 117.264 296.596 117.912 295.66 123.816C296.524 124.968 296.884 126.408 296.884 127.848C296.884 128.712 296.884 130.872 294.508 135.912C292.276 140.664 291.196 143.04 291.196 146.496C291.196 151.752 295.732 152.4 301.852 152.4C319.78 152.4 321.724 149.448 321.724 145.56C321.724 143.904 321.364 141.744 320.716 138.864C318.412 128.064 318.124 126.84 318.124 123.888C318.124 115.32 323.524 114.6 325.18 114.6C332.956 114.6 338.284 123.168 338.284 127.92C338.284 129.792 337.42 131.016 336.196 131.016C335.476 131.016 335.26 130.8 334.18 130.008C333.964 129.792 333.316 129.288 332.308 129.288C331.588 129.288 327.484 130.008 326.548 130.152L325.972 129.216C331.732 125.976 331.732 125.472 331.732 124.608C331.732 122.16 328.204 117.624 324.964 117.624C322.948 117.624 321.004 119.496 321.004 123.456C321.004 125.04 321.364 130.008 324.1 137.784C325.324 141.168 327.196 146.568 327.196 148.008C327.196 154.848 320.5 157.08 305.092 157.08C296.164 157.08 287.38 156.216 287.38 147.576C287.38 145.56 287.884 143.112 288.1 142.032C287.308 142.248 286.66 142.392 285.796 142.392C282.772 142.392 279.316 140.016 279.316 134.4C279.316 127.128 284.788 121.368 290.548 121.368C291.124 121.368 291.628 121.44 291.916 121.512C291.988 120.792 292.636 115.32 292.636 115.248C291.052 115.536 287.74 115.968 285.94 115.968C282.268 115.968 279.676 114.528 277.66 110.496ZM289.18 125.256C284.788 125.256 282.916 130.8 282.916 134.04C282.916 136.92 284.212 138.432 285.796 138.432C289.828 138.432 291.772 130.08 291.772 127.92C291.772 125.688 289.972 125.256 289.18 125.256ZM403.084 154.344L403.012 155.496C398.764 156.504 397.18 159.312 396.82 160.032C389.26 154.992 374.644 142.392 370.9 112.512C367.156 142.248 353.548 155.28 337.564 160.896L337.06 159.888C347.068 153.336 352.396 146.856 355.492 142.176C362.116 132.096 366.364 117.336 366.364 101.784C366.364 98.328 366.22 97.392 366.004 96.024L372.628 96.888C373.276 96.96 374.428 97.104 374.428 98.04C374.428 98.832 373.78 99.192 371.692 99.984V101.712C371.692 117.912 380.476 143.472 403.084 154.344ZM423.46 113.88H438.364V103.584C438.364 101.928 438.364 97.464 438.004 95.232L444.556 96.024C445.348 96.096 446.5 96.312 446.5 97.176C446.5 97.968 445.924 98.328 443.62 99.264V113.88H459.532L462.196 109.92C462.484 109.488 462.772 109.272 463.132 109.272C463.42 109.272 463.636 109.344 464.212 109.848L469.468 114.456C469.612 114.528 470.188 115.032 470.188 115.68C470.188 116.76 469.108 116.76 468.604 116.76H443.62V133.176H456.436L459.316 129C459.532 128.64 459.82 128.352 460.252 128.352C460.612 128.352 460.828 128.496 461.26 128.856L466.588 133.68C466.876 133.896 467.308 134.472 467.308 134.976C467.308 135.912 466.444 136.056 465.724 136.056H443.62V155.64H463.348L466.228 151.392C466.372 151.104 466.66 150.744 467.164 150.744C467.452 150.744 467.668 150.888 468.172 151.248L473.572 156.144C473.788 156.36 474.22 156.936 474.22 157.44C474.22 158.52 473.068 158.52 472.636 158.52H414.532C412.732 158.52 411.148 158.592 408.916 158.808L407.692 155.352C409.996 155.496 412.156 155.64 414.964 155.64H438.364V136.056H422.668C421.3 136.056 419.932 136.056 417.052 136.344L415.828 132.888C417.916 133.032 420.22 133.176 423.1 133.176H438.364V116.76H422.02C419.428 121.44 415.972 127.704 408.772 133.68L407.908 132.96C415.108 122.448 420.796 110.64 422.164 99.336L428.644 101.496C430.156 102 430.372 102.432 430.372 102.936C430.372 104.088 429.652 104.088 427.42 104.304C425.908 108.48 425.044 110.568 423.46 113.88ZM525.196 120.072L525.34 118.992C525.916 118.776 526.564 118.56 527.5 118.56C530.956 118.56 534.628 122.232 534.628 124.608C534.628 126.048 534.124 126.192 529.516 127.488C521.308 129.864 515.404 132.672 511.876 134.4C511.948 135.48 512.308 142.248 512.308 142.824C512.308 143.76 512.308 147.144 509.356 147.144C507.124 147.144 507.124 144.84 507.124 143.904V136.92C503.092 139.224 496.468 143.112 496.468 147.72C496.468 151.032 499.564 152.832 508.78 152.832C512.452 152.832 516.196 152.472 520.228 151.752C522.1 151.392 522.46 151.32 523.18 151.32C524.764 151.32 528.148 152.688 528.148 154.632C528.148 156.288 526.276 156.648 525.34 156.864C522.82 157.368 515.26 157.584 510.58 157.584C506.332 157.584 492.58 157.584 492.58 148.584C492.58 143.112 497.116 138.72 506.908 133.104C506.62 129.576 506.26 125.184 500.644 125.184C493.948 125.184 489.988 130.512 487.18 134.184C485.236 136.848 484.948 137.208 483.868 137.208C482.644 137.208 481.564 136.128 481.564 134.544C481.564 132.096 483.796 130.152 485.38 128.712C489.052 125.544 492.22 121.224 496.612 115.032C495.388 115.104 494.02 115.248 492.652 115.248C486.46 115.248 484.804 112.08 483.436 109.488L484.3 108.84C485.236 109.344 487.756 110.928 492.868 110.928C495.316 110.928 498.556 110.496 499.852 110.352C501.148 108.408 504.1 103.872 504.1 102.216C504.1 100.992 502.804 100.056 500.572 99.336L500.932 98.328C501.652 98.04 502.372 97.68 503.524 97.68C506.62 97.68 510.58 99.912 510.58 102C510.58 103.08 510.148 103.584 508.636 105.168C507.916 105.96 506.908 107.328 505.18 109.56C509.788 108.696 512.668 108.12 515.332 106.752C517.276 105.816 517.636 105.6 518.644 105.6C520.516 105.6 523.18 106.752 523.18 108.336C523.18 110.064 520.948 110.568 516.412 111.576C511.732 112.656 507.412 113.376 501.724 114.312C501.076 115.104 496.684 120.792 494.164 124.032C496.324 123.024 498.556 121.944 501.724 121.944C510.076 121.944 511.156 128.784 511.444 130.584C515.98 128.28 520.66 126.048 525.34 123.816C526.924 123.096 527.644 122.664 527.644 122.016C527.644 120.936 525.844 120.288 525.196 120.072ZM548.596 138.36C553.996 138.36 558.532 142.752 558.532 148.224C558.532 153.696 554.068 158.16 548.596 158.16C543.196 158.16 538.732 153.696 538.732 148.224C538.732 142.752 543.196 138.36 548.596 138.36ZM548.596 141.384C544.78 141.384 541.756 144.48 541.756 148.296C541.756 151.968 544.708 155.136 548.596 155.136C552.412 155.136 555.508 152.112 555.508 148.224C555.508 144.336 552.34 141.384 548.596 141.384Z" fill="#111111"/>
<g clip-path="url(#clip0_2_294)">
<path d="M243.842 212.177L241.904 215.668H246.505L248.387 212.177H243.842Z" fill="url(#paint0_linear_2_294)"/>
<path d="M268.168 212.177L270.294 215.668H274.533L276.687 212.177H268.168Z" fill="url(#paint1_linear_2_294)"/>
<path d="M423.479 215.672V212.172H410.481V215.672H423.479Z" fill="url(#paint2_linear_2_294)"/>
<path d="M397.497 215.672V212.172H384.499V215.672H397.497Z" fill="url(#paint3_linear_2_294)"/>
<path d="M358.785 215.668H366.923C369.628 215.202 370.574 213.574 371.209 212.177H364.181C364.181 212.177 364.153 212.177 364.134 212.177H358.813" fill="url(#paint4_linear_2_294)"/>
<path d="M341.686 215.751V212.086H332.409V215.751H341.686Z" fill="url(#paint5_linear_2_294)"/>
<path d="M223.666 215.751V212.086H214.389V215.751H223.666Z" fill="url(#paint6_linear_2_294)"/>
<path d="M246.496 215.672H241.9L237.21 224.14L236.523 225.344H237.831H252.993H253.614V224.728V222.018V221.397H252.993H243.406L243.443 221.331L246.496 215.672Z" fill="black"/>
<path d="M252.686 204.194L253.613 202.5H236.527V203.093C236.527 203.093 236.522 203.112 236.522 203.121V206.452H247.008L246.938 206.583L243.838 212.181H248.382L252.691 204.194H252.686Z" fill="black"/>
<path d="M278.465 202.5H282.713L282.073 203.446L276.687 212.177H268.167L262.851 203.446L262.23 202.5H266.478L272.443 212.177L278.465 202.5Z" fill="black"/>
<path d="M270.294 224.722V225.343H270.91H273.916H274.532V224.722V215.667H270.294V224.722Z" fill="black"/>
<path d="M423.479 206.419V202.5H410.486H406.52H406.247V225.344H406.52H410.486H423.479V221.43H410.486V206.419H423.479Z" fill="black"/>
<path d="M397.629 206.419V202.5H384.636H380.665H380.393V225.344H380.665H384.636H397.629V221.43H384.636V206.419H397.629Z" fill="black"/>
<path d="M371.252 224.398L366.924 215.672H362.408L366.746 225.052L366.896 225.344H367.272H370.697H371.779L371.252 224.398Z" fill="black"/>
<path d="M367.366 208.851C367.366 210.662 365.889 212.148 364.181 212.177H371.209C371.581 211.471 371.778 210.398 371.778 209.298C371.778 205.417 368.41 202.5 364.496 202.5H354.542V225.344H358.785V215.846L358.813 212.177V206.419H364.134C365.865 206.419 367.366 207.124 367.366 208.851Z" fill="black"/>
<path d="M188.544 215.668H196.682C199.387 215.202 200.333 213.574 200.968 212.177H193.94C193.94 212.177 193.911 212.177 193.893 212.177H188.572" fill="url(#paint7_linear_2_294)"/>
<path d="M201.005 224.398L196.677 215.672H192.161L196.503 225.052L196.649 225.344H197.025H200.45H201.532L201.005 224.398Z" fill="black"/>
<path d="M197.124 208.851C197.124 210.662 195.647 212.148 193.94 212.177H200.968C201.339 211.471 201.537 210.398 201.537 209.298C201.532 205.417 198.169 202.5 194.25 202.5H184.296V225.344H188.539V215.846L188.567 212.177V206.419H193.888C195.619 206.419 197.12 207.124 197.12 208.851H197.124Z" fill="black"/>
<path d="M436.345 215.668H444.483C447.188 215.202 448.134 213.574 448.769 212.177H441.74C441.74 212.177 441.712 212.177 441.693 212.177H436.373" fill="url(#paint8_linear_2_294)"/>
<path d="M448.806 224.398L444.478 215.672H439.962L444.304 225.052L444.45 225.344H444.826H448.251H449.333L448.806 224.398Z" fill="black"/>
<path d="M444.921 208.851C444.921 210.662 443.444 212.148 441.737 212.177H448.765C449.136 211.471 449.334 210.398 449.334 209.298C449.334 205.417 445.966 202.5 442.052 202.5H432.098V225.344H436.341V215.846L436.369 212.177V206.419H441.69C443.421 206.419 444.921 207.124 444.921 208.851Z" fill="black"/>
<path d="M337.067 202.5C332.028 202.5 328.171 206.423 328.171 211.264V225.344H332.409V211.457C332.409 208.78 334.291 206.644 337.062 206.644C339.833 206.644 341.686 208.78 341.686 211.49V225.344H345.925V211.269C345.925 206.423 342.067 202.5 337.067 202.5Z" fill="black"/>
<path d="M219.041 202.5C214.008 202.5 210.15 206.423 210.15 211.269V225.349H214.389V211.457C214.389 208.78 216.271 206.644 219.041 206.644C221.812 206.644 223.666 208.78 223.666 211.49V225.344H227.904V211.269C227.904 206.423 224.047 202.5 219.041 202.5Z" fill="black"/>
<path d="M158.991 212.177H160.665C160.689 212.078 160.708 211.979 160.731 211.885C161.536 208.808 164.179 206.47 167.548 206.47C169.326 206.47 171.099 207.167 172.435 208.343L172.854 208.743L173.23 208.343L175.164 206.343L175.597 205.901L175.136 205.459C172.972 203.516 170.657 202.5 167.454 202.5C161.818 202.5 157.161 206.532 156.187 211.88C156.168 211.979 156.163 212.078 156.145 212.177H158.944C158.944 212.177 158.972 212.177 158.991 212.177Z" fill="black"/>
<path d="M175.193 221.41L173.226 219.378L172.873 218.983L172.431 219.378C171.1 220.455 169.482 221.184 167.576 221.184C164.152 221.184 161.461 218.79 160.699 215.662H156.136C156.959 221.175 161.691 225.338 167.454 225.338C170.277 225.338 173.005 224.355 175.164 222.262L175.616 221.834L175.197 221.406L175.193 221.41Z" fill="black"/>
<path d="M160.671 215.55C160.549 215.004 160.474 214.44 160.474 213.861C160.474 213.283 160.544 212.723 160.667 212.177H158.992C158.992 212.177 158.964 212.177 158.945 212.177H156.151C156.061 212.756 156 213.349 156 213.955C156 214.496 156.042 215.028 156.113 215.55C156.118 215.593 156.127 215.63 156.136 215.668H160.704C160.695 215.625 160.681 215.588 160.671 215.55Z" fill="url(#paint9_linear_2_294)"/>
<path d="M302.721 212.177H304.396C304.419 212.078 304.438 211.979 304.462 211.885C305.266 208.808 307.91 206.47 311.278 206.47C313.056 206.47 314.83 207.167 316.166 208.343L316.584 208.743L316.961 208.343L318.894 206.343L319.327 205.901L318.866 205.459C316.702 203.516 314.388 202.5 311.184 202.5C305.548 202.5 300.891 206.532 299.917 211.88C299.899 211.979 299.894 212.078 299.875 212.177H302.669C302.669 212.177 302.698 212.177 302.716 212.177H302.721Z" fill="black"/>
<path d="M318.922 221.41L316.956 219.378L316.603 218.983L316.161 219.378C314.829 220.455 313.211 221.184 311.306 221.184C307.881 221.184 305.19 218.79 304.428 215.662H299.86C300.684 221.175 305.416 225.338 311.179 225.338C314.001 225.338 316.73 224.355 318.889 222.262L319.341 221.834L318.922 221.406V221.41Z" fill="black"/>
<path d="M304.4 215.55C304.278 215.004 304.202 214.44 304.202 213.861C304.202 213.283 304.273 212.723 304.395 212.177H302.72C302.72 212.177 302.692 212.177 302.673 212.177H299.879C299.79 212.756 299.729 213.349 299.729 213.955C299.729 214.496 299.771 215.028 299.841 215.55C299.846 215.593 299.856 215.63 299.865 215.668H304.433C304.423 215.625 304.409 215.588 304.4 215.55Z" fill="url(#paint10_linear_2_294)"/>
</g>
<defs>
<linearGradient id="paint0_linear_2_294" x1="248.387" y1="213.923" x2="241.904" y2="213.923" gradientUnits="userSpaceOnUse">
<stop stop-color="#E16D05"/>
<stop offset="0.42" stop-color="#DD3C14"/>
<stop offset="1" stop-color="#B3300E"/>
</linearGradient>
<linearGradient id="paint1_linear_2_294" x1="276.687" y1="202.501" x2="268.168" y2="213.923" gradientUnits="userSpaceOnUse">
<stop stop-color="#E16D05"/>
<stop offset="0.42" stop-color="#DD3C14"/>
<stop offset="1" stop-color="#B3300E"/>
</linearGradient>
<linearGradient id="paint2_linear_2_294" x1="423.479" y1="202.5" x2="410.485" y2="213.922" gradientUnits="userSpaceOnUse">
<stop stop-color="#E16D05"/>
<stop offset="0.42" stop-color="#DD3C14"/>
<stop offset="1" stop-color="#B3300E"/>
</linearGradient>
<linearGradient id="paint3_linear_2_294" x1="397.502" y1="202.5" x2="384.504" y2="213.922" gradientUnits="userSpaceOnUse">
<stop stop-color="#E16D05"/>
<stop offset="0.42" stop-color="#DD3C14"/>
<stop offset="1" stop-color="#B3300E"/>
</linearGradient>
<linearGradient id="paint4_linear_2_294" x1="371.209" y1="202.501" x2="358.785" y2="213.923" gradientUnits="userSpaceOnUse">
<stop stop-color="#E16D05"/>
<stop offset="0.42" stop-color="#DD3C14"/>
<stop offset="1" stop-color="#B3300E"/>
</linearGradient>
<linearGradient id="paint5_linear_2_294" x1="341.686" y1="213.921" x2="332.409" y2="213.921" gradientUnits="userSpaceOnUse">
<stop stop-color="#E16D05"/>
<stop offset="0.42" stop-color="#DD3C14"/>
<stop offset="1" stop-color="#B3300E"/>
</linearGradient>
<linearGradient id="paint6_linear_2_294" x1="223.666" y1="213.921" x2="214.389" y2="213.921" gradientUnits="userSpaceOnUse">
<stop stop-color="#E16D05"/>
<stop offset="0.42" stop-color="#DD3C14"/>
<stop offset="1" stop-color="#B3300E"/>
</linearGradient>
<linearGradient id="paint7_linear_2_294" x1="200.963" y1="202.501" x2="188.544" y2="213.923" gradientUnits="userSpaceOnUse">
<stop stop-color="#E16D05"/>
<stop offset="0.42" stop-color="#DD3C14"/>
<stop offset="1" stop-color="#B3300E"/>
</linearGradient>
<linearGradient id="paint8_linear_2_294" x1="448.764" y1="202.501" x2="436.345" y2="213.923" gradientUnits="userSpaceOnUse">
<stop stop-color="#E16D05"/>
<stop offset="0.42" stop-color="#DD3C14"/>
<stop offset="1" stop-color="#B3300E"/>
</linearGradient>
<linearGradient id="paint9_linear_2_294" x1="160.704" y1="213.923" x2="156" y2="213.923" gradientUnits="userSpaceOnUse">
<stop stop-color="#E16D05"/>
<stop offset="0.42" stop-color="#DD3C14"/>
<stop offset="1" stop-color="#B3300E"/>
</linearGradient>
<linearGradient id="paint10_linear_2_294" x1="304.428" y1="213.923" x2="299.729" y2="213.923" gradientUnits="userSpaceOnUse">
<stop stop-color="#E16D05"/>
<stop offset="0.42" stop-color="#DD3C14"/>
<stop offset="1" stop-color="#B3300E"/>
</linearGradient>
<clipPath id="clip0_2_294">
<rect width="293.333" height="22.8438" fill="white" transform="translate(156 202.5)"/>
</clipPath>
</defs>
</svg>
