<svg width="299" height="2317" viewBox="0 0 299 2317" fill="none" xmlns="http://www.w3.org/2000/svg">
<path d="M6.66018 2240.67C8.18018 2259.29 9.70017 2264.61 24.9002 2264.61L124.46 2264.61C157.52 2264.61 172.34 2250.17 172.34 2225.09C172.34 2207.23 162.46 2192.03 149.92 2175.69C143.84 2176.83 137 2177.59 129.4 2177.59L24.9002 2177.59C9.70017 2177.59 8.18018 2182.91 6.66018 2203.05L4.00017 2203.05L4.00018 2127.43L6.66018 2127.43C8.18018 2146.05 9.70017 2151.37 24.9002 2151.37L124.46 2151.37C157.52 2151.37 172.34 2136.93 172.34 2111.85C172.34 2094.75 163.22 2079.93 151.44 2064.35L24.9002 2064.35C9.70017 2064.35 8.18018 2069.67 6.66018 2088.29L4.00018 2088.29L4.00018 2012.67L6.66019 2012.67C8.18019 2032.81 9.70018 2038.13 24.9002 2038.13L139.28 2038.13C162.08 2038.13 168.54 2031.29 171.2 2015.71L173.48 2015.71C175.76 2032.05 182.98 2051.05 190.2 2064.73L190.2 2066.63L155.24 2063.59C172.72 2082.21 188.68 2101.97 188.68 2130.09C188.68 2153.27 177.28 2168.47 154.48 2174.55C172.34 2193.93 188.68 2214.83 188.68 2243.33C188.68 2273.73 168.92 2290.83 129.4 2290.83L24.9002 2290.83C9.70016 2290.83 8.18017 2296.15 6.66017 2316.29L4.00017 2316.29L4.00017 2240.67L6.66018 2240.67Z" fill="#111111" fill-opacity="0.1"/>
<path d="M0.200192 1923.93C0.200194 1877.57 35.1602 1840.33 93.6802 1840.33C149.54 1840.33 190.2 1877.19 190.2 1927.35C190.2 1970.29 164.74 1996.89 121.42 1997.65L121.42 1866.93C117.24 1866.55 112.68 1866.17 108.12 1866.17C53.0202 1866.17 18.8202 1897.71 18.8202 1936.85C18.8202 1963.45 35.1602 1987.01 64.4202 2002.97L62.9002 2005.63C21.1002 1989.29 0.20019 1956.61 0.200192 1923.93ZM127.5 1867.69L127.5 1959.65C127.5 1967.25 129.78 1969.15 137.76 1969.15C159.8 1969.15 184.5 1955.09 184.5 1924.69C184.5 1896.57 164.36 1873.39 127.5 1867.69Z" fill="#111111" fill-opacity="0.1"/>
<path d="M6.6601 1636.9C8.18009 1657.04 9.70008 1662.36 24.9001 1662.36L235.04 1662.36C268.48 1662.36 275.32 1658.94 278.36 1639.94L280.64 1639.94C282.92 1657.04 289.38 1674.52 298.12 1688.96L298.12 1690.86C282.92 1688.58 265.44 1688.58 235.04 1688.58L156 1688.58C173.1 1707.2 188.68 1726.58 188.68 1754.32C188.68 1784.72 168.92 1803.34 129.4 1803.34L24.9001 1803.34C9.70008 1803.34 8.18009 1808.66 6.66009 1828.8L4.00008 1828.8L4.00009 1753.18L6.66009 1753.18C8.18009 1771.8 9.70008 1777.12 24.9001 1777.12L124.46 1777.12C157.52 1777.12 172.34 1761.16 172.34 1736.08C172.34 1719.36 163.22 1704.16 151.44 1688.58L24.9001 1688.58C9.70008 1688.58 8.18009 1693.9 6.66009 1712.52L4.00009 1712.52L4.00009 1636.9L6.6601 1636.9Z" fill="#111111" fill-opacity="0.1"/>
<path d="M6.65991 1469.05C8.17991 1495.27 11.2199 1500.59 26.0399 1500.59L274.56 1500.59L274.56 1472.85C274.56 1431.81 265.44 1417.75 217.94 1398.37L217.94 1395.71L282.92 1408.63C281.4 1416.23 280.64 1430.29 280.64 1445.49L280.64 1585.33C280.64 1600.53 281.4 1614.21 282.92 1621.81L217.94 1635.11L217.94 1632.07C265.44 1612.69 274.56 1599.01 274.56 1557.59L274.56 1529.85L26.0399 1529.85C11.2199 1529.85 8.17991 1535.17 6.6599 1561.39L3.9999 1561.39L3.99991 1469.05L6.65991 1469.05Z" fill="#111111" fill-opacity="0.1"/>
<path d="M6.66034 1150.8C8.18034 1170.94 9.70033 1176.26 24.9003 1176.26L171.2 1176.26L171.2 1153.84L175.76 1153.84L186.4 1176.26L192.48 1176.26C249.86 1176.26 295.84 1213.88 295.84 1258.72C295.84 1278.1 286.72 1291.4 275.7 1291.4C268.1 1291.4 262.02 1285.7 262.02 1277.34C262.02 1270.5 266.58 1266.7 271.14 1262.52C279.12 1255.3 284.06 1249.6 284.06 1239.34C284.06 1218.06 265.44 1202.48 213 1202.48L186.4 1202.48L186.4 1250.74L171.2 1247.7L171.2 1202.48L24.9003 1202.48C9.70033 1202.48 8.18034 1208.18 6.66034 1235.54L4.00033 1235.54L4.00034 1150.8L6.66034 1150.8Z" fill="#111111" fill-opacity="0.1"/>
<path d="M0.200191 1042.53C0.200194 992.747 37.4402 952.467 92.9202 952.467C151.44 952.467 190.2 993.127 190.2 1045.57C190.2 1095.73 152.96 1136.01 97.4802 1136.01C38.9602 1136.01 0.200189 1094.97 0.200191 1042.53ZM103.18 980.967C51.8802 980.967 5.90017 1007.19 5.90017 1047.85C5.90017 1081.67 36.3002 1107.51 87.2202 1107.51C138.52 1107.51 184.5 1080.91 184.5 1040.63C184.5 1006.81 154.1 980.967 103.18 980.967Z" fill="#111111" fill-opacity="0.1"/>
<path d="M0.200192 785.385C0.200194 739.025 35.1602 701.785 93.6802 701.785C149.54 701.785 190.2 738.645 190.2 788.805C190.2 831.745 164.74 858.345 121.42 859.105L121.42 728.385C117.24 728.005 112.68 727.625 108.12 727.625C53.0202 727.625 18.8202 759.165 18.8202 798.305C18.8202 824.905 35.1602 848.465 64.4202 864.425L62.9002 867.085C21.1002 850.745 0.20019 818.065 0.200192 785.385ZM127.5 729.145L127.5 821.105C127.5 828.705 129.78 830.605 137.76 830.605C159.8 830.605 184.5 816.545 184.5 786.145C184.5 758.025 164.36 734.845 127.5 729.145Z" fill="#111111" fill-opacity="0.1"/>
<path d="M0.200192 606.289C0.200194 558.789 36.6802 520.409 92.9202 520.409C150.3 520.409 190.2 559.929 190.2 614.269C190.2 654.169 167.78 681.149 151.82 681.149C144.22 681.149 138.9 675.449 138.9 668.229C138.9 661.009 143.46 657.209 151.82 653.409C176.52 642.389 184.5 629.089 184.5 609.709C184.5 573.989 156.76 547.009 108.12 547.009C53.0202 547.009 18.8202 579.689 18.8202 619.589C18.8202 647.709 35.9202 673.549 64.4202 689.129L62.9002 691.789C19.9602 674.689 0.20019 639.729 0.200192 606.289Z" fill="#111111" fill-opacity="0.1"/>
<path d="M6.6601 427.945C8.18009 449.605 9.70008 454.925 24.9001 454.925L139.28 454.925C162.08 454.925 168.54 448.085 171.2 430.985L173.48 430.985C175.76 448.845 182.98 467.845 190.2 481.525L190.2 483.425C175 481.145 157.52 481.145 139.28 481.145L24.9001 481.145C9.70008 481.145 8.18009 486.465 6.66009 508.125L4.00009 508.125L4.00009 427.945L6.6601 427.945ZM259.36 446.185C269.62 446.185 277.6 454.165 277.6 464.425C277.6 474.685 269.62 482.665 259.36 482.665C249.1 482.665 241.12 474.685 241.12 464.425C241.12 454.165 249.1 446.185 259.36 446.185Z" fill="#111111" fill-opacity="0.1"/>
<path d="M0.200191 321.195C0.200194 271.415 37.4402 231.135 92.9202 231.135C151.44 231.135 190.2 271.795 190.2 324.235C190.2 374.395 152.96 414.675 97.4802 414.675C38.9602 414.675 0.200189 373.635 0.200191 321.195ZM103.18 259.635C51.8802 259.635 5.90017 285.855 5.90017 326.515C5.90017 360.335 36.3002 386.175 87.2202 386.175C138.52 386.175 184.5 359.575 184.5 319.295C184.5 285.475 154.1 259.635 103.18 259.635Z" fill="#111111" fill-opacity="0.1"/>
<path d="M239.98 41.8293C270.38 30.0493 275.7 24.7293 277.98 0.0292968L280.64 0.0292969L280.64 94.6493L277.98 94.6493C276.84 63.1093 270.76 61.5893 252.52 68.4293L45.8001 144.049L238.08 215.109C263.16 224.989 275.7 220.809 277.98 182.809L280.64 182.809L280.64 267.929L277.98 267.929C275.7 245.129 266.58 235.249 236.18 223.469L0.200128 135.689L0.200129 130.749L239.98 41.8293Z" fill="#111111" fill-opacity="0.1"/>
</svg>
